<svg width="80" height="80" viewBox="0 0 80 80" fill="none" xmlns="http://www.w3.org/2000/svg">
<rect x="0.883301" y="0.00488281" width="79" height="80" rx="10" fill="#2F1B1A"/>
<g clip-path="url(#clip0_1355_2625)">
<path d="M36.5255 14.6537C37.345 12.2556 40.6585 12.183 41.6301 14.4358L41.7123 14.6551L42.8182 17.8891C43.0716 18.6308 43.4812 19.3095 44.0192 19.8795C44.5573 20.4494 45.2113 20.8974 45.9371 21.1931L46.2345 21.3041L49.4686 22.4086C51.8667 23.2281 51.9393 26.5416 49.6878 27.5132L49.4686 27.5954L46.2345 28.7013C45.4926 28.9546 44.8136 29.364 44.2434 29.9021C43.6732 30.4401 43.225 31.0942 42.9292 31.8202L42.8182 32.1162L41.7137 35.3516C40.8942 37.7498 37.5807 37.8224 36.6105 35.5709L36.5255 35.3516L35.421 32.1176C35.1677 31.3757 34.7582 30.6967 34.2202 30.1265C33.6822 29.5563 33.0281 29.1081 32.302 28.8123L32.0061 28.7013L28.772 27.5968C26.3725 26.7773 26.2999 23.4638 28.5527 22.4935L28.772 22.4086L32.0061 21.3041C32.7477 21.0506 33.4264 20.6411 33.9964 20.1031C34.5663 19.565 35.0143 18.911 35.31 18.1851L35.421 17.8891L36.5255 14.6537ZM50.0825 9.92871C50.3388 9.92871 50.5901 10.0006 50.8076 10.1363C51.0251 10.2719 51.2003 10.4659 51.3131 10.6961L51.3788 10.8564L51.8585 12.2624L53.2658 12.7421C53.5227 12.8293 53.748 12.9909 53.9129 13.2064C54.0779 13.4218 54.1752 13.6813 54.1926 13.9521C54.2099 14.2229 54.1464 14.4927 54.0102 14.7274C53.874 14.9621 53.6712 15.1511 53.4275 15.2704L53.2658 15.3362L51.8598 15.8158L51.3802 17.2231C51.2928 17.48 51.1311 17.7051 50.9156 17.8699C50.7001 18.0348 50.4405 18.132 50.1697 18.1491C49.8989 18.1663 49.6291 18.1027 49.3945 17.9664C49.1599 17.8301 48.9711 17.6272 48.8519 17.3835L48.7861 17.2231L48.3065 15.8172L46.8991 15.3375C46.6422 15.2502 46.417 15.0886 46.252 14.8732C46.087 14.6578 45.9897 14.3983 45.9724 14.1275C45.9551 13.8567 46.0185 13.5868 46.1547 13.3522C46.2909 13.1175 46.4937 12.9285 46.7374 12.8092L46.8991 12.7434L48.3051 12.2638L48.7847 10.8564C48.8771 10.5857 49.052 10.3507 49.2847 10.1843C49.5174 10.0179 49.7964 9.92854 50.0825 9.92871Z" fill="#F53C31"/>
</g>
<path d="M37.9211 59.1549L36.6646 63.6383C36.6551 63.6669 36.6599 63.6954 36.6789 63.724C36.6979 63.7526 36.7217 63.7668 36.7503 63.7668H39.1205C39.1491 63.7668 39.1729 63.7526 39.1919 63.724C39.2109 63.6954 39.2157 63.6669 39.2062 63.6383L37.9497 59.1549C37.9497 59.1454 37.9449 59.1406 37.9354 59.1406C37.9259 59.1406 37.9211 59.1454 37.9211 59.1549ZM34.223 67.8076C34.0231 67.8076 33.866 67.7267 33.7518 67.5649C33.6376 67.4031 33.6138 67.227 33.6804 67.0366L36.6361 58.1554C36.7217 57.927 36.8598 57.7413 37.0501 57.5986C37.25 57.4558 37.469 57.3844 37.7069 57.3844H38.221C38.4685 57.3844 38.6874 57.4558 38.8778 57.5986C39.0777 57.7413 39.2157 57.927 39.2918 58.1554L42.2475 67.0366C42.3141 67.227 42.2903 67.4031 42.1761 67.5649C42.0619 67.7267 41.9048 67.8076 41.7049 67.8076H41.1909C40.9624 67.8076 40.7482 67.7362 40.5483 67.5934C40.358 67.4411 40.2295 67.2508 40.1628 67.0223L39.7059 65.4088C39.6964 65.3327 39.644 65.2946 39.5489 65.2946H36.3219C36.2363 65.2946 36.1839 65.3327 36.1649 65.4088L35.708 67.0223C35.6508 67.2508 35.5223 67.4411 35.3224 67.5934C35.1321 67.7362 34.9179 67.8076 34.6799 67.8076H34.223ZM44.765 67.8076C44.5461 67.8076 44.3557 67.7267 44.1939 67.5649C44.0321 67.4031 43.9512 67.2127 43.9512 66.9937V58.1983C43.9512 57.9793 44.0321 57.7889 44.1939 57.6271C44.3557 57.4653 44.5461 57.3844 44.765 57.3844H45.3362C45.5551 57.3844 45.7455 57.4653 45.9073 57.6271C46.0691 57.7889 46.15 57.9793 46.15 58.1983V66.9937C46.15 67.2127 46.0691 67.4031 45.9073 67.5649C45.7455 67.7267 45.5551 67.8076 45.3362 67.8076H44.765Z" fill="#F53C31"/>
<defs>
<clipPath id="clip0_1355_2625">
<rect width="32.6252" height="32.6252" fill="white" transform="translate(24.0708 7.20215)"/>
</clipPath>
</defs>
</svg>
