<svg width="45" height="16" viewBox="0 0 45 16" fill="none" xmlns="http://www.w3.org/2000/svg">
<rect x="0.185547" y="0.266602" width="44.1572" height="14.9685" rx="7.48427" fill="#2E160A"/>
<path d="M9.75174 6.83958C9.74875 6.93604 9.76156 7.03035 9.79016 7.12249C9.8181 7.20132 9.85303 7.27749 9.89494 7.35101C9.90991 7.37263 9.91823 7.39641 9.91989 7.42236C9.9182 7.44235 9.91151 7.46161 9.90044 7.47835C9.88937 7.49509 9.87427 7.50878 9.85652 7.51815L9.64996 7.65088C9.62541 7.66823 9.5962 7.6778 9.56613 7.67832C9.54754 7.67802 9.5292 7.67388 9.51229 7.66615C9.49537 7.65842 9.48024 7.64728 9.46784 7.63341C9.42263 7.58954 9.38277 7.54047 9.34909 7.48722C9.31429 7.42586 9.28167 7.36328 9.25129 7.29961C9.13654 7.43932 8.99034 7.55158 8.82419 7.62792C8.65804 7.70426 8.47592 7.74268 8.29231 7.73969C8.05365 7.75216 7.8197 7.67005 7.64118 7.51117C7.56061 7.43207 7.49774 7.33678 7.45672 7.23159C7.41569 7.1264 7.39744 7.01371 7.40318 6.90095C7.39919 6.77721 7.42314 6.65447 7.47403 6.54171C7.52492 6.42795 7.60126 6.32716 7.69756 6.24633C7.92739 6.07263 8.21119 5.98569 8.49888 6.00084C8.61596 6.00084 8.73255 6.00883 8.84864 6.02479C8.97138 6.04176 9.09363 6.06571 9.22285 6.09315V5.86114C9.23211 5.77052 9.22329 5.67896 9.19691 5.59177C9.17054 5.50458 9.12712 5.42349 9.06918 5.3532C8.91652 5.23944 8.72665 5.18725 8.5373 5.20701C8.41939 5.20767 8.30192 5.2214 8.18703 5.24793C8.06762 5.27553 7.95119 5.31179 7.83777 5.3567L7.72201 5.39761H7.67261C7.62372 5.39761 7.60276 5.36368 7.60276 5.29882V5.14215C7.59925 5.10447 7.60651 5.06658 7.62372 5.03288C7.65009 5.00373 7.68242 4.98059 7.71852 4.96502C7.84957 4.90315 7.98595 4.85542 8.12766 4.82182C8.29347 4.7797 8.46401 4.75907 8.63509 4.76045C8.94256 4.73346 9.24857 4.82623 9.48929 5.01941C9.58709 5.12419 9.66143 5.24793 9.70784 5.38214C9.75428 5.51615 9.77163 5.65852 9.75873 5.79977L9.75174 6.83958ZM8.42852 7.32356C8.5486 7.32356 8.66536 7.30427 8.77879 7.26568C8.89854 7.22577 9.00481 7.15542 9.08664 7.06111C9.14072 7.00493 9.17924 6.93563 9.19841 6.86004C9.22136 6.76923 9.232 6.67725 9.23034 6.58412V6.44092C9.12744 6.41939 9.02328 6.4044 8.91849 6.39601H8.61064C8.43996 6.38253 8.26973 6.42719 8.12766 6.52275C8.0731 6.56659 8.02995 6.62297 8.00189 6.68708C7.97383 6.7512 7.96168 6.82115 7.96649 6.89097C7.96075 6.95301 7.96843 7.01555 7.98901 7.07435C8.00958 7.13315 8.04258 7.18684 8.08574 7.23176C8.18381 7.30559 8.30669 7.3385 8.42852 7.32356ZM11.05 7.66435C11.0057 7.66856 10.9613 7.65784 10.9238 7.63391C10.8886 7.59963 10.8643 7.55572 10.8539 7.50768L10.0905 5.05333C10.0757 5.01151 10.0664 4.96788 10.0631 4.92361C10.0624 4.87205 10.088 4.84594 10.1399 4.84527H10.4618C10.5061 4.84121 10.5505 4.8521 10.588 4.87621C10.6219 4.91113 10.6449 4.95504 10.6543 5.00244L11.2037 7.12249L11.7181 5.00593C11.7231 4.95754 11.7457 4.91265 11.7815 4.8797C11.8202 4.85554 11.8657 4.84467 11.9112 4.84876H12.1732C12.2197 4.84463 12.2664 4.85547 12.3064 4.8797C12.339 4.91486 12.3609 4.95869 12.3692 5.00593L12.8767 7.12249L13.4405 4.99546C13.4497 4.94787 13.4726 4.90401 13.5064 4.86922C13.5439 4.84529 13.5883 4.83458 13.6326 4.83879H13.9369C13.9477 4.83769 13.9586 4.83895 13.9689 4.84249C13.9791 4.84602 13.9885 4.85173 13.9963 4.85924C14.004 4.86665 14.0099 4.87572 14.0135 4.88575C14.0172 4.89578 14.0184 4.90651 14.0173 4.91712C14.0181 4.93407 14.0181 4.95106 14.0173 4.96801C14.0173 4.96801 14.0173 5.01292 13.9963 5.04685L13.2055 7.50019C13.1961 7.54783 13.1731 7.5917 13.1391 7.62643C13.1012 7.64937 13.0571 7.66 13.0129 7.65686H12.7335C12.6875 7.66173 12.6414 7.64967 12.6037 7.62293C12.5692 7.58914 12.547 7.54466 12.5409 7.4967L12.0334 5.452L11.5295 7.4967C11.5232 7.54472 11.5009 7.58921 11.4661 7.62293C11.4281 7.64887 11.3823 7.66085 11.3364 7.65686L11.05 7.66435ZM15.2492 7.74618C15.0797 7.74696 14.9106 7.72855 14.7452 7.69129C14.6155 7.66608 14.4897 7.6238 14.371 7.56555C14.3296 7.54587 14.2944 7.51514 14.2692 7.47674C14.2557 7.44801 14.2486 7.41669 14.2483 7.38493V7.22477C14.2483 7.15924 14.2729 7.12631 14.3221 7.12598C14.343 7.12266 14.3642 7.12266 14.385 7.12598L14.4653 7.15991C14.5778 7.2088 14.6945 7.24523 14.8156 7.26918C14.9433 7.29645 15.0727 7.31009 15.2038 7.31009C15.3694 7.32007 15.5346 7.28315 15.6798 7.20431C15.732 7.17319 15.7751 7.12899 15.805 7.07608C15.8345 7.02376 15.8493 6.96447 15.8479 6.90444C15.8492 6.86347 15.8421 6.82267 15.827 6.78456C15.8119 6.74646 15.7891 6.71186 15.7601 6.68291C15.6649 6.60222 15.5521 6.54497 15.4308 6.51576L14.9588 6.36907C14.7542 6.31917 14.5716 6.20691 14.4374 6.04874C14.3319 5.9172 14.2738 5.75386 14.2727 5.58522C14.2711 5.46582 14.3014 5.34815 14.3606 5.24443C14.4189 5.14165 14.4988 5.05234 14.5951 4.98198C14.6998 4.90664 14.8186 4.85126 14.9448 4.81833C15.079 4.78041 15.2183 4.76245 15.358 4.76344C15.4301 4.75845 15.5025 4.75845 15.575 4.76344L15.7881 4.79787L15.9737 4.84876L16.1104 4.90365C16.147 4.92461 16.1796 4.95072 16.2082 4.98198C16.2281 5.01458 16.2374 5.04984 16.2361 5.08776V5.23745C16.2361 5.30564 16.2117 5.33973 16.1628 5.33973C16.1185 5.33429 16.0756 5.3204 16.0365 5.29882C15.8375 5.21435 15.623 5.17254 15.4069 5.17608C15.257 5.16896 15.1078 5.1995 14.9728 5.26489C14.9232 5.29427 14.8825 5.33651 14.855 5.38713C14.8274 5.43725 14.8148 5.49421 14.8186 5.55129C14.8182 5.59353 14.8268 5.63537 14.8437 5.67407C14.8607 5.71277 14.8856 5.74744 14.9169 5.77582C15.0202 5.85665 15.1394 5.91552 15.2667 5.94995L15.7287 6.09315C15.9234 6.14316 16.0988 6.24998 16.2326 6.4C16.3329 6.52774 16.3858 6.6854 16.3833 6.84657C16.385 6.97412 16.3561 7.10021 16.299 7.21429C16.2431 7.32406 16.1613 7.41986 16.061 7.49371C15.9569 7.57565 15.8382 7.63711 15.7112 7.67483C15.5582 7.72264 15.399 7.74786 15.2387 7.74967L15.2492 7.74618ZM6.88177 8.74957C6.92618 8.69418 7.00801 8.67921 7.08285 8.72462C8.56129 9.55887 10.2306 9.99601 11.9282 9.99345C13.198 9.98893 14.4547 9.73586 15.6274 9.24852C15.7377 9.20261 15.8479 9.23604 15.9018 9.31188C15.9159 9.33129 15.9257 9.35346 15.9306 9.37694C15.9355 9.40042 15.9354 9.42467 15.9303 9.4481C15.9157 9.50287 15.8814 9.55032 15.834 9.58132L15.8325 9.58232C14.6439 10.3765 13.2454 10.7982 11.8159 10.7933C10.0101 10.8046 8.26374 10.1483 6.91221 8.95064C6.8812 8.92508 6.86062 8.88905 6.85433 8.84936C6.85181 8.83173 6.85295 8.81377 6.85767 8.79661C6.86239 8.77944 6.8706 8.76343 6.88177 8.74957Z" fill="#F55406"/>
<path d="M16.8746 8.36639C16.8429 8.33425 16.8044 8.30969 16.7619 8.29455C16.7054 8.27196 16.6469 8.25459 16.5872 8.24265C16.4235 8.20997 16.2567 8.19525 16.0898 8.19875C15.7136 8.20424 15.2665 8.29005 14.9252 8.53554C14.8693 8.57546 14.8279 8.63283 14.8379 8.69271C14.8489 8.76057 14.9153 8.78851 14.9806 8.78851L14.9926 8.78701C15.1797 8.76356 15.4741 8.72714 15.741 8.72015C15.8757 8.71616 16.002 8.72015 16.1018 8.73712C16.152 8.7451 16.1937 8.75608 16.227 8.77005C16.2526 8.77879 16.2754 8.79431 16.2929 8.81495C16.3042 8.82792 16.3125 8.85187 16.3178 8.8868C16.3221 8.92206 16.3218 8.9653 16.3168 9.01653C16.3068 9.11931 16.2784 9.24455 16.2405 9.37777C16.1821 9.58483 16.1028 9.80537 16.0404 9.9805L15.992 10.1162C15.9791 10.1461 15.9756 10.1791 15.982 10.211C15.9852 10.2263 15.9918 10.2407 16.0013 10.2532C16.0108 10.2656 16.023 10.2757 16.0369 10.2829C16.0923 10.3098 16.1606 10.2874 16.214 10.241C16.5353 9.96653 16.7379 9.54542 16.8427 9.17569C16.8951 8.99108 16.924 8.81645 16.9305 8.67674C16.9338 8.60622 16.9315 8.54502 16.9235 8.49313C16.9193 8.44717 16.9023 8.4033 16.8746 8.36639Z" fill="#F55406"/>
<path d="M24.5504 5.76196L23.8259 8.34703C23.8204 8.36349 23.8232 8.37996 23.8341 8.39643C23.8451 8.41289 23.8588 8.42112 23.8753 8.42112H25.2419C25.2584 8.42112 25.2721 8.41289 25.2831 8.39643C25.2941 8.37996 25.2968 8.36349 25.2913 8.34703L24.5668 5.76196C24.5668 5.75647 24.5641 5.75373 24.5586 5.75373C24.5531 5.75373 24.5504 5.75647 24.5504 5.76196ZM22.4181 10.751C22.3028 10.751 22.2123 10.7043 22.1464 10.611C22.0806 10.5177 22.0668 10.4162 22.1053 10.3064L23.8094 5.18567C23.8588 5.05395 23.9384 4.94693 24.0482 4.8646C24.1634 4.78227 24.2897 4.74111 24.4269 4.74111H24.7233C24.866 4.74111 24.9922 4.78227 25.102 4.8646C25.2172 4.94693 25.2968 5.05395 25.3407 5.18567L27.0449 10.3064C27.0833 10.4162 27.0696 10.5177 27.0037 10.611C26.9379 10.7043 26.8473 10.751 26.732 10.751H26.4357C26.3039 10.751 26.1804 10.7098 26.0652 10.6275C25.9554 10.5397 25.8813 10.4299 25.8429 10.2982L25.5795 9.36788C25.574 9.32398 25.5438 9.30202 25.4889 9.30202H23.6283C23.5789 9.30202 23.5487 9.32398 23.5378 9.36788L23.2743 10.2982C23.2414 10.4299 23.1673 10.5397 23.052 10.6275C22.9423 10.7098 22.8188 10.751 22.6816 10.751H22.4181ZM27.9689 10.2899L26.9152 5.20214C26.8877 5.08139 26.9124 4.97437 26.9892 4.88106C27.0716 4.78776 27.1731 4.74111 27.2939 4.74111H27.5326C27.6698 4.74111 27.7878 4.78502 27.8866 4.87283C27.9854 4.96065 28.0458 5.07042 28.0677 5.20214L28.751 9.53254C28.751 9.53803 28.7538 9.54077 28.7593 9.54077C28.7703 9.54077 28.7757 9.53803 28.7757 9.53254L29.4344 5.20214C29.4563 5.07042 29.5167 4.96065 29.6155 4.87283C29.7143 4.78502 29.8323 4.74111 29.9695 4.74111H30.4634C30.6007 4.74111 30.7187 4.78502 30.8174 4.87283C30.9162 4.96065 30.9766 5.07042 30.9986 5.20214L31.6654 9.53254C31.6654 9.53803 31.6682 9.54077 31.6737 9.54077C31.6791 9.54077 31.6819 9.53803 31.6819 9.53254L32.3652 5.20214C32.3872 5.07042 32.4475 4.96065 32.5463 4.87283C32.6451 4.78502 32.7631 4.74111 32.9003 4.74111H33.1061C33.2269 4.74111 33.3257 4.78776 33.4025 4.88106C33.4794 4.97437 33.5068 5.08139 33.4848 5.20214L32.4311 10.2899C32.4036 10.4217 32.3378 10.5314 32.2335 10.6193C32.1292 10.7071 32.0084 10.751 31.8712 10.751H31.4349C31.2977 10.751 31.1769 10.7071 31.0727 10.6193C30.9739 10.5314 30.9135 10.4217 30.8915 10.2899L30.2082 5.95955C30.2082 5.95406 30.2055 5.95132 30.2 5.95132C30.1945 5.95132 30.1918 5.95406 30.1918 5.95955L29.5085 10.2899C29.4865 10.4217 29.4234 10.5314 29.3191 10.6193C29.2203 10.7071 29.1023 10.751 28.9651 10.751H28.5288C28.3915 10.751 28.2708 10.7071 28.1665 10.6193C28.0622 10.5314 27.9964 10.4217 27.9689 10.2899ZM35.9332 8.21531C35.2746 7.99577 34.7971 7.72958 34.5007 7.41673C34.2099 7.10389 34.0644 6.72519 34.0644 6.28062C34.0644 5.78117 34.2318 5.386 34.5666 5.09511C34.9014 4.80423 35.3707 4.65878 35.9744 4.65878C36.4848 4.65878 36.9294 4.71641 37.3081 4.83167C37.4398 4.87009 37.5441 4.94967 37.6209 5.07042C37.7033 5.18567 37.7444 5.31465 37.7444 5.45735V5.53145C37.7444 5.63573 37.6978 5.71806 37.6045 5.77843C37.5112 5.83331 37.4151 5.84155 37.3163 5.80313C36.9047 5.64396 36.4848 5.56438 36.0567 5.56438C35.7823 5.56438 35.5737 5.6275 35.431 5.75373C35.2883 5.87996 35.217 6.0556 35.217 6.28062C35.217 6.67579 35.4749 6.95845 35.9909 7.12859C36.7318 7.36459 37.245 7.63353 37.5304 7.93539C37.8213 8.23726 37.9667 8.62694 37.9667 9.10444C37.9667 10.257 37.256 10.8333 35.8344 10.8333C35.3899 10.8333 34.9865 10.7647 34.6242 10.6275C34.4925 10.5781 34.3882 10.493 34.3114 10.3723C34.24 10.2515 34.2044 10.1171 34.2044 9.96887V9.87008C34.2044 9.7658 34.2483 9.6917 34.3361 9.6478C34.4239 9.5984 34.5145 9.59565 34.6078 9.63956C34.97 9.82068 35.3515 9.91124 35.7521 9.91124C36.4491 9.91124 36.7977 9.6478 36.7977 9.1209C36.7977 8.90685 36.7318 8.73122 36.6001 8.59401C36.4684 8.45131 36.2461 8.32508 35.9332 8.21531Z" fill="#F55306"/>
</svg>
