<svg width="63" height="16" viewBox="0 0 63 16" fill="none" xmlns="http://www.w3.org/2000/svg">
<rect x="0.512207" y="0.845703" width="62.1194" height="14.9685" rx="7.48427" fill="#37373D"/>
<g clip-path="url(#clip0_1343_3266)">
<path d="M21.7119 5.67319L18.8769 3.99014C18.7114 3.89191 18.5225 3.84 18.33 3.83984C18.1414 3.83984 17.9521 3.89015 17.783 3.99084L14.9473 5.67396C14.6092 5.87456 14.4004 6.24573 14.4004 6.64771V10.0139C14.4004 10.4159 14.6086 10.787 14.9474 10.9876L17.7823 12.6707C17.9477 12.7692 18.1367 12.8212 18.3293 12.821C18.5218 12.8208 18.7107 12.7689 18.8763 12.6707L21.7119 10.9876C22.0501 10.787 22.2589 10.4151 22.2589 10.0139V6.64694C22.2589 6.24573 22.0508 5.87379 21.7119 5.67319ZM19.5165 10.929L19.5209 11.171C19.5209 11.2003 19.5022 11.2333 19.4796 11.2453L19.3361 11.328C19.3136 11.3392 19.294 11.3258 19.294 11.2964L19.2917 11.0583C19.1693 11.1094 19.0445 11.1214 18.9657 11.0899C18.9507 11.0838 18.9439 11.062 18.9499 11.0365L19.0017 10.8178C19.0062 10.8006 19.0153 10.7832 19.0273 10.7727C19.0312 10.7687 19.0358 10.7654 19.0408 10.763C19.049 10.7585 19.0573 10.7577 19.0641 10.7607C19.1497 10.7893 19.2587 10.7757 19.3639 10.7232C19.4977 10.6555 19.587 10.5188 19.5856 10.3836C19.584 10.2603 19.5179 10.21 19.3564 10.2084C19.1505 10.2091 18.9582 10.1687 18.9552 9.86506C18.9529 9.61562 19.0822 9.35566 19.288 9.19182L19.2858 8.94765C19.2858 8.91762 19.3038 8.8845 19.3271 8.87257L19.466 8.78388C19.4886 8.77259 19.5081 8.7869 19.5081 8.81616L19.5104 9.06033C19.6126 9.01978 19.7013 9.00855 19.7816 9.02736C19.799 9.03185 19.8072 9.05584 19.7997 9.08363L19.7456 9.30002C19.7413 9.31647 19.7327 9.33151 19.7208 9.34366C19.7166 9.3479 19.7118 9.35145 19.7066 9.35418C19.699 9.3579 19.6922 9.35867 19.6855 9.3579C19.6487 9.34962 19.5615 9.33089 19.424 9.4C19.2797 9.47283 19.2294 9.59836 19.2301 9.69154C19.2317 9.80275 19.288 9.8365 19.4848 9.83959C19.7471 9.84408 19.8598 9.95824 19.8628 10.222C19.8665 10.4805 19.7284 10.7592 19.5165 10.929ZM21.0026 10.5225C21.0026 10.5451 20.9996 10.5661 20.9808 10.5766L20.264 11.0124C20.2453 11.0237 20.2302 11.0139 20.2302 10.9913V10.8065C20.2302 10.784 20.2437 10.772 20.2625 10.7607L20.9688 10.3385C20.9876 10.3272 21.0026 10.3369 21.0026 10.3595L21.0026 10.5225ZM21.4956 6.38326L18.8131 8.03992C18.4787 8.23526 18.2322 8.45467 18.2315 8.85819V12.1635C18.2315 12.4046 18.3292 12.5609 18.4787 12.6068C18.4296 12.6156 18.3799 12.6204 18.33 12.6211C18.1729 12.6211 18.0181 12.5783 17.8821 12.4978L15.0472 10.8148C14.77 10.6503 14.598 10.343 14.598 10.0131V6.64694C14.598 6.31716 14.77 6.00984 15.0472 5.84523L17.883 4.16218C18.0185 4.08181 18.1732 4.03926 18.3308 4.03897C18.4878 4.03897 18.6426 4.08177 18.7785 4.16218L21.6143 5.84523C21.8479 5.98423 22.0057 6.22391 22.05 6.4937C21.9546 6.29302 21.7427 6.239 21.4956 6.38326Z" fill="white"/>
</g>
<path d="M32.1726 8.66268V10.3916C32.1726 10.4355 32.1973 10.4629 32.2467 10.4739C32.4388 10.5013 32.6199 10.515 32.7901 10.515C33.2456 10.515 33.5777 10.4327 33.7862 10.2681C34.0003 10.0979 34.1073 9.83996 34.1073 9.49419C34.1073 9.18683 33.9838 8.96181 33.7368 8.81911C33.4953 8.67092 33.0919 8.59682 32.5266 8.59682H32.2385C32.1946 8.59682 32.1726 8.61878 32.1726 8.66268ZM32.1726 6.25874V7.66653C32.1726 7.71592 32.1946 7.74062 32.2385 7.74062H32.4772C32.9877 7.74062 33.3554 7.67202 33.5804 7.53481C33.8109 7.39211 33.9262 7.18354 33.9262 6.90912C33.9262 6.64567 33.8329 6.45083 33.6463 6.3246C33.4597 6.19836 33.1551 6.13525 32.7324 6.13525C32.5404 6.13525 32.3757 6.14622 32.2385 6.16818C32.1946 6.17915 32.1726 6.20934 32.1726 6.25874ZM31.4975 11.3465C31.3658 11.3356 31.2561 11.2807 31.1682 11.1819C31.0804 11.0776 31.0365 10.9569 31.0365 10.8197V5.83064C31.0365 5.69343 31.0804 5.57542 31.1682 5.47663C31.2561 5.37235 31.3686 5.31472 31.5058 5.30374C31.9119 5.25984 32.3043 5.23788 32.6831 5.23788C34.2198 5.23788 34.9882 5.74008 34.9882 6.74447C34.9882 7.07926 34.8757 7.37015 34.6507 7.61713C34.4256 7.86411 34.1293 8.02328 33.7615 8.09463C33.756 8.09463 33.7533 8.09737 33.7533 8.10286C33.7533 8.11384 33.756 8.11933 33.7615 8.11933C34.2116 8.18519 34.5629 8.35259 34.8153 8.62152C35.0733 8.88497 35.2023 9.21153 35.2023 9.60121C35.2023 10.2049 35.0047 10.6577 34.6095 10.9596C34.2143 11.2615 33.5996 11.4124 32.7654 11.4124C32.3483 11.4124 31.9256 11.3905 31.4975 11.3465ZM38.0684 9.2719C37.2835 9.2719 36.8911 9.5134 36.8911 9.99638C36.8911 10.172 36.9405 10.3147 37.0393 10.4245C37.1436 10.5343 37.2753 10.5891 37.4345 10.5891C37.7473 10.5891 37.9998 10.4931 38.1919 10.301C38.384 10.1034 38.48 9.83447 38.48 9.49419V9.346C38.48 9.2966 38.4553 9.2719 38.4059 9.2719H38.0684ZM37.1381 11.4124C36.7649 11.4124 36.4548 11.2917 36.2078 11.0502C35.9663 10.8032 35.8456 10.4849 35.8456 10.0952C35.8456 9.61768 36.0267 9.24721 36.3889 8.98376C36.7567 8.72031 37.3165 8.58859 38.0684 8.58859H38.4059C38.4553 8.58859 38.48 8.56389 38.48 8.5145V8.44863C38.48 8.19617 38.4197 8.02053 38.2989 7.92174C38.1782 7.81746 37.9641 7.76532 37.6568 7.76532C37.3384 7.76532 36.9487 7.82295 36.4877 7.93821C36.3889 7.96565 36.2984 7.94918 36.216 7.88881C36.1337 7.82295 36.0925 7.73788 36.0925 7.6336C36.0925 7.50736 36.131 7.39485 36.2078 7.29606C36.2846 7.19178 36.3834 7.12866 36.5042 7.10671C36.9213 7.0134 37.3137 6.96675 37.6815 6.96675C38.384 6.96675 38.8752 7.09298 39.1551 7.34545C39.435 7.59792 39.575 8.03974 39.575 8.67092V10.8608C39.575 10.987 39.5283 11.0968 39.435 11.1901C39.3472 11.2834 39.2402 11.3301 39.1139 11.3301H39.0234C38.8917 11.3301 38.7791 11.2862 38.6858 11.1984C38.5925 11.1051 38.5431 10.9925 38.5377 10.8608V10.7456C38.5377 10.7401 38.5349 10.7373 38.5294 10.7373C38.5184 10.7373 38.513 10.7401 38.513 10.7456C38.1782 11.1901 37.7199 11.4124 37.1381 11.4124ZM42.0594 9.60121C41.4832 9.47498 41.0715 9.30209 40.8245 9.08255C40.5831 8.86301 40.4623 8.57761 40.4623 8.22635C40.4623 7.83118 40.6078 7.52383 40.8986 7.30429C41.195 7.07926 41.6313 6.96675 42.2076 6.96675C42.5699 6.96675 42.9294 6.99968 43.2861 7.06554C43.4069 7.0875 43.5029 7.14787 43.5743 7.24666C43.6511 7.33996 43.6895 7.44973 43.6895 7.57597C43.6895 7.68025 43.6484 7.76532 43.566 7.83118C43.4837 7.89156 43.3904 7.90802 43.2861 7.88058C42.9788 7.80374 42.6549 7.76532 42.3147 7.76532C41.8207 7.76532 41.5737 7.90253 41.5737 8.17696C41.5737 8.30868 41.6204 8.41845 41.7137 8.50626C41.807 8.59408 41.9661 8.66268 42.1912 8.71208C42.8223 8.83832 43.2532 9.00846 43.4837 9.22251C43.7197 9.43656 43.8377 9.7494 43.8377 10.161C43.8377 10.5562 43.6895 10.8636 43.3931 11.0831C43.0968 11.3026 42.6659 11.4124 42.1006 11.4124C41.7329 11.4124 41.3569 11.3685 40.9727 11.2807C40.852 11.2532 40.7532 11.1901 40.6764 11.0913C40.5995 10.987 40.5611 10.869 40.5611 10.7373C40.5611 10.633 40.6023 10.5535 40.6846 10.4986C40.7724 10.4437 40.8657 10.43 40.9645 10.4574C41.3213 10.5562 41.6588 10.6056 41.9771 10.6056C42.4766 10.6056 42.7263 10.4574 42.7263 10.161C42.7263 10.0183 42.6769 9.90582 42.5781 9.82349C42.4848 9.74117 42.3119 9.66707 42.0594 9.60121ZM45.3491 11.3301C45.2228 11.3301 45.1131 11.2834 45.0197 11.1901C44.9319 11.0968 44.888 10.987 44.888 10.8608V5.62482C44.888 5.49859 44.9319 5.38882 45.0197 5.29551C45.1131 5.20221 45.2228 5.15556 45.3491 5.15556H45.5137C45.6399 5.15556 45.7497 5.20221 45.843 5.29551C45.9363 5.38882 45.983 5.49859 45.983 5.62482V7.53481C45.983 7.54029 45.9857 7.54304 45.9912 7.54304C45.9967 7.54304 46.0022 7.54029 46.0077 7.53481C46.3919 7.1561 46.8145 6.96675 47.2755 6.96675C47.775 6.96675 48.1372 7.10945 48.3622 7.39485C48.5872 7.68025 48.6998 8.16872 48.6998 8.86027V10.8608C48.6998 10.987 48.6531 11.0968 48.5598 11.1901C48.4665 11.2834 48.3567 11.3301 48.2305 11.3301H48.0988C47.9725 11.3301 47.8628 11.2834 47.7695 11.1901C47.6762 11.0968 47.6295 10.987 47.6295 10.8608V9.02492C47.6295 8.54743 47.5774 8.23184 47.4731 8.07816C47.3743 7.92449 47.1849 7.84765 46.905 7.84765C46.6855 7.84765 46.4769 7.94644 46.2793 8.14402C46.0818 8.34161 45.983 8.55292 45.983 8.77794V10.8608C45.983 10.987 45.9363 11.0968 45.843 11.1901C45.7497 11.2834 45.6399 11.3301 45.5137 11.3301H45.3491Z" fill="white"/>
<defs>
<clipPath id="clip0_1343_3266">
<rect width="8.98112" height="8.98112" fill="white" transform="translate(13.8394 3.83984)"/>
</clipPath>
</defs>
</svg>
