<svg width="248" height="81" viewBox="0 0 248 81" fill="none" xmlns="http://www.w3.org/2000/svg">
<rect x="0.883301" y="0.194336" width="247" height="80" rx="10" fill="#1F2C24"/>
<path d="M111.92 15.3935H136.845V12.624H111.92C110.397 12.624 109.151 13.8703 109.151 15.3935V32.0101C109.151 33.5333 110.397 34.7795 111.92 34.7795H117.459V32.0101H111.92V15.3935ZM125.767 23.7018H120.229V26.1666C119.384 26.9282 118.844 28.0082 118.844 29.2406C118.844 30.473 119.384 31.5531 120.229 32.3147V34.7795H125.767V32.3147C126.612 31.5531 127.152 30.4592 127.152 29.2406C127.152 28.0221 126.612 26.9282 125.767 26.1666V23.7018ZM122.998 31.3177C121.849 31.3177 120.921 30.39 120.921 29.2406C120.921 28.0913 121.849 27.1636 122.998 27.1636C124.147 27.1636 125.075 28.0913 125.075 29.2406C125.075 30.39 124.147 31.3177 122.998 31.3177ZM138.23 18.1629H129.922C129.229 18.1629 128.537 18.8553 128.537 19.5476V33.3948C128.537 34.0872 129.229 34.7795 129.922 34.7795H138.23C138.922 34.7795 139.615 34.0872 139.615 33.3948V19.5476C139.615 18.8553 138.922 18.1629 138.23 18.1629ZM136.845 32.0101H131.306V20.9323H136.845V32.0101Z" fill="#9AE6B4"/>
<path d="M30.5774 68.4436C29.0734 68.4436 27.8788 67.9819 26.9935 67.0586C26.1177 66.1257 25.6799 64.8026 25.6799 63.0892C25.6799 61.3948 26.1035 60.0812 26.9507 59.1483C27.8074 58.2059 29.002 57.7348 30.5345 57.7348C31.2389 57.7348 31.8291 57.7776 32.3051 57.8633C32.5335 57.9013 32.7239 58.0156 32.8762 58.2059C33.0285 58.3963 33.1046 58.6105 33.1046 58.8485V58.9627C33.1046 59.1626 33.019 59.3197 32.8476 59.4339C32.6858 59.5481 32.5097 59.5814 32.3193 59.5338C31.8529 59.4101 31.3294 59.3482 30.7487 59.3482C29.8063 59.3482 29.0639 59.6719 28.5213 60.3192C27.9882 60.9664 27.7217 61.8898 27.7217 63.0892C27.7217 64.279 27.9977 65.2024 28.5498 65.8592C29.1115 66.5065 29.8587 66.8301 30.7915 66.8301C31.4198 66.8301 31.9576 66.773 32.405 66.6588C32.5954 66.6112 32.7715 66.6445 32.9333 66.7587C33.1046 66.8729 33.1903 67.03 33.1903 67.2299V67.3298C33.1903 67.5678 33.1142 67.782 32.9619 67.9724C32.8191 68.1532 32.6287 68.2627 32.3907 68.3008C31.8481 68.396 31.2437 68.4436 30.5774 68.4436ZM35.9035 68.3008C35.6846 68.3008 35.4942 68.2199 35.3324 68.058C35.1706 67.8962 35.0897 67.7058 35.0897 67.4869V61.6899C35.0897 61.4709 35.1706 61.2806 35.3324 61.1187C35.4942 60.9569 35.6846 60.876 35.9035 60.876H36.1891C36.4081 60.876 36.5984 60.9569 36.7603 61.1187C36.9221 61.2806 37.003 61.4709 37.003 61.6899V62.2896C37.003 62.2991 37.0077 62.3039 37.0173 62.3039C37.0363 62.3039 37.0458 62.2991 37.0458 62.2896C37.3219 61.9088 37.6836 61.5995 38.131 61.3615C38.5784 61.114 39.0686 60.9617 39.6017 60.9046C39.8016 60.8855 39.9729 60.9522 40.1157 61.1045C40.2585 61.2472 40.3299 61.4186 40.3299 61.6185C40.3299 61.8184 40.2585 61.9897 40.1157 62.1325C39.9729 62.2753 39.8016 62.3562 39.6017 62.3752C37.9168 62.5085 37.0744 63.3652 37.0744 64.9454V67.4869C37.0744 67.7058 36.9935 67.8962 36.8316 68.058C36.6698 68.2199 36.4794 68.3008 36.2605 68.3008H35.9035ZM46.11 62.7179C45.834 62.3181 45.4152 62.1182 44.8535 62.1182C44.2919 62.1182 43.8683 62.3181 43.5828 62.7179C43.3067 63.1082 43.1687 63.7317 43.1687 64.5884C43.1687 65.4451 43.3067 66.0734 43.5828 66.4731C43.8683 66.8634 44.2919 67.0586 44.8535 67.0586C45.4152 67.0586 45.834 66.8634 46.11 66.4731C46.3956 66.0734 46.5384 65.4451 46.5384 64.5884C46.5384 63.7317 46.3956 63.1082 46.11 62.7179ZM47.5093 67.4441C46.8811 68.1104 45.9958 68.4436 44.8535 68.4436C43.7113 68.4436 42.8212 68.1104 42.1835 67.4441C41.5552 66.7682 41.2411 65.8163 41.2411 64.5884C41.2411 63.3605 41.5552 62.4133 42.1835 61.747C42.8212 61.0711 43.7113 60.7332 44.8535 60.7332C45.9958 60.7332 46.8811 61.0711 47.5093 61.747C48.1471 62.4133 48.466 63.3605 48.466 64.5884C48.466 65.8163 48.1471 66.7682 47.5093 67.4441ZM52.4956 65.3023C51.4961 65.0834 50.7822 64.7835 50.3539 64.4028C49.935 64.022 49.7256 63.527 49.7256 62.9178C49.7256 62.2325 49.9779 61.6994 50.4824 61.3186C50.9964 60.9284 51.7531 60.7332 52.7526 60.7332C53.3809 60.7332 54.0044 60.7903 54.6231 60.9046C54.8325 60.9426 54.9991 61.0474 55.1228 61.2187C55.2561 61.3805 55.3227 61.5709 55.3227 61.7898C55.3227 61.9707 55.2513 62.1182 55.1086 62.2325C54.9658 62.3372 54.804 62.3657 54.6231 62.3181C54.09 62.1849 53.5284 62.1182 52.9382 62.1182C52.0815 62.1182 51.6532 62.3562 51.6532 62.8322C51.6532 63.0606 51.7341 63.251 51.8959 63.4033C52.0577 63.5556 52.3338 63.6746 52.7241 63.7602C53.8187 63.9792 54.566 64.2743 54.9658 64.6455C55.3751 65.0167 55.5797 65.5593 55.5797 66.2732C55.5797 66.9586 55.3227 67.4917 54.8087 67.8724C54.2947 68.2532 53.5475 68.4436 52.567 68.4436C51.9292 68.4436 51.2772 68.3674 50.6109 68.2151C50.4014 68.1675 50.2301 68.058 50.0968 67.8867C49.9636 67.7058 49.8969 67.5012 49.8969 67.2727C49.8969 67.0919 49.9683 66.9539 50.1111 66.8587C50.2634 66.7635 50.4252 66.7397 50.5966 66.7873C51.2153 66.9586 51.8007 67.0443 52.3528 67.0443C53.2191 67.0443 53.6522 66.7873 53.6522 66.2732C53.6522 66.0258 53.5665 65.8306 53.3952 65.6878C53.2333 65.545 52.9335 65.4165 52.4956 65.3023ZM59.7464 65.3023C58.7469 65.0834 58.033 64.7835 57.6046 64.4028C57.1858 64.022 56.9764 63.527 56.9764 62.9178C56.9764 62.2325 57.2286 61.6994 57.7331 61.3186C58.2471 60.9284 59.0039 60.7332 60.0034 60.7332C60.6316 60.7332 61.2551 60.7903 61.8738 60.9046C62.0833 60.9426 62.2498 61.0474 62.3736 61.2187C62.5069 61.3805 62.5735 61.5709 62.5735 61.7898C62.5735 61.9707 62.5021 62.1182 62.3593 62.2325C62.2165 62.3372 62.0547 62.3657 61.8738 62.3181C61.3408 62.1849 60.7792 62.1182 60.189 62.1182C59.3323 62.1182 58.9039 62.3562 58.9039 62.8322C58.9039 63.0606 58.9848 63.251 59.1467 63.4033C59.3085 63.5556 59.5845 63.6746 59.9748 63.7602C61.0695 63.9792 61.8167 64.2743 62.2165 64.6455C62.6258 65.0167 62.8305 65.5593 62.8305 66.2732C62.8305 66.9586 62.5735 67.4917 62.0595 67.8724C61.5454 68.2532 60.7982 68.4436 59.8178 68.4436C59.18 68.4436 58.5279 68.3674 57.8616 68.2151C57.6522 68.1675 57.4809 68.058 57.3476 67.8867C57.2143 67.7058 57.1477 67.5012 57.1477 67.2727C57.1477 67.0919 57.2191 66.9539 57.3619 66.8587C57.5142 66.7635 57.676 66.7397 57.8473 66.7873C58.4661 66.9586 59.0515 67.0443 59.6036 67.0443C60.4698 67.0443 60.9029 66.7873 60.9029 66.2732C60.9029 66.0258 60.8172 65.8306 60.6459 65.6878C60.4841 65.545 60.1842 65.4165 59.7464 65.3023ZM70.7516 59.5053V62.9464C70.7516 63.013 70.7896 63.0558 70.8658 63.0749C71.2275 63.1225 71.5797 63.1463 71.9224 63.1463C72.6934 63.1463 73.2788 62.9797 73.6786 62.6465C74.0879 62.3039 74.2926 61.8184 74.2926 61.1901C74.2926 59.9241 73.5025 59.2911 71.9224 59.2911C71.5797 59.2911 71.2275 59.3149 70.8658 59.3625C70.7896 59.3815 70.7516 59.4291 70.7516 59.5053ZM69.5807 68.3008C69.3618 68.3008 69.1714 68.2199 69.0096 68.058C68.8573 67.8962 68.7811 67.7058 68.7811 67.4869V58.7628C68.7811 58.5344 68.8573 58.3297 69.0096 58.1488C69.1619 57.968 69.3523 57.868 69.5807 57.849C70.3898 57.7728 71.1704 57.7348 71.9224 57.7348C73.3502 57.7348 74.4211 58.0203 75.135 58.5915C75.8489 59.1531 76.2059 59.9717 76.2059 61.0474C76.2059 62.2372 75.8585 63.1368 75.1636 63.746C74.4782 64.3552 73.4597 64.6598 72.108 64.6598C71.7939 64.6598 71.3798 64.6408 70.8658 64.6027C70.7896 64.6027 70.7516 64.6408 70.7516 64.7169V67.4869C70.7516 67.7058 70.6706 67.8962 70.5088 68.058C70.347 68.2199 70.1566 68.3008 69.9377 68.3008H69.5807ZM78.8464 68.3008C78.6275 68.3008 78.4371 68.2199 78.2753 68.058C78.1134 67.8962 78.0325 67.7058 78.0325 67.4869V58.4058C78.0325 58.1869 78.1134 57.9965 78.2753 57.8347C78.4371 57.6729 78.6275 57.592 78.8464 57.592H79.2176C79.4366 57.592 79.627 57.6729 79.7888 57.8347C79.9506 57.9965 80.0315 58.1869 80.0315 58.4058V67.4869C80.0315 67.7058 79.9506 67.8962 79.7888 68.058C79.627 68.2199 79.4366 68.3008 79.2176 68.3008H78.8464ZM85.9269 64.7312C84.5657 64.7312 83.8851 65.15 83.8851 65.9877C83.8851 66.2923 83.9708 66.5398 84.1421 66.7302C84.323 66.9205 84.5514 67.0157 84.8275 67.0157C85.3701 67.0157 85.8079 66.8491 86.1411 66.516C86.4743 66.1733 86.6409 65.7069 86.6409 65.1167V64.8597C86.6409 64.774 86.598 64.7312 86.5123 64.7312H85.9269ZM84.3135 68.4436C83.6662 68.4436 83.1284 68.2341 82.7 67.8153C82.2812 67.387 82.0718 66.8349 82.0718 66.159C82.0718 65.3309 82.3859 64.6883 83.0141 64.2314C83.6519 63.7745 84.6228 63.5461 85.9269 63.5461H86.5123C86.598 63.5461 86.6409 63.5032 86.6409 63.4176V63.3033C86.6409 62.8655 86.5361 62.5609 86.3267 62.3895C86.1173 62.2087 85.7461 62.1182 85.213 62.1182C84.6609 62.1182 83.9851 62.2182 83.1855 62.4181C83.0141 62.4657 82.8571 62.4371 82.7143 62.3324C82.5715 62.2182 82.5001 62.0706 82.5001 61.8898C82.5001 61.6708 82.5667 61.4757 82.7 61.3044C82.8333 61.1235 83.0046 61.014 83.214 60.976C83.9375 60.8141 84.6181 60.7332 85.2558 60.7332C86.4743 60.7332 87.3262 60.9522 87.8117 61.39C88.2971 61.8279 88.5399 62.5942 88.5399 63.6889V67.4869C88.5399 67.7058 88.459 67.8962 88.2971 68.058C88.1448 68.2199 87.9592 68.3008 87.7403 68.3008H87.5832C87.3548 68.3008 87.1596 68.2246 86.9978 68.0723C86.836 67.9105 86.7503 67.7154 86.7408 67.4869V67.287C86.7408 67.2775 86.736 67.2727 86.7265 67.2727C86.7075 67.2727 86.698 67.2775 86.698 67.287C86.1173 68.058 85.3225 68.4436 84.3135 68.4436ZM90.3286 62.5466C90.1382 62.5466 89.9764 62.48 89.8431 62.3467C89.7099 62.2039 89.6432 62.0373 89.6432 61.8469C89.6432 61.6566 89.7099 61.4947 89.8431 61.3615C89.9764 61.2282 90.1382 61.1616 90.3286 61.1616H91.0139C91.0996 61.1616 91.1425 61.1187 91.1425 61.0331V59.2626C91.1425 59.0436 91.2186 58.8532 91.3709 58.6914C91.5327 58.5296 91.7231 58.4487 91.942 58.4487H92.2276C92.4465 58.4487 92.6369 58.5296 92.7987 58.6914C92.9606 58.8532 93.0415 59.0436 93.0415 59.2626V61.0331C93.0415 61.1187 93.0843 61.1616 93.17 61.1616H94.7977C94.9881 61.1616 95.1499 61.2282 95.2832 61.3615C95.426 61.4947 95.4974 61.6566 95.4974 61.8469C95.4974 62.0373 95.426 62.2039 95.2832 62.3467C95.1499 62.48 94.9881 62.5466 94.7977 62.5466H93.17C93.0843 62.5466 93.0415 62.5847 93.0415 62.6608V65.545C93.0415 66.1638 93.1081 66.5636 93.2414 66.7444C93.3746 66.9253 93.6507 67.0157 94.0695 67.0157C94.298 67.0157 94.4693 67.0062 94.5835 66.9872C94.7739 66.9681 94.9405 67.011 95.0833 67.1157C95.2261 67.2204 95.2975 67.3632 95.2975 67.544C95.2975 67.7534 95.2261 67.9438 95.0833 68.1152C94.95 68.277 94.7834 68.3674 94.5835 68.3865C94.1647 68.4245 93.8506 68.4436 93.6412 68.4436C92.7178 68.4436 92.0705 68.2484 91.6993 67.8582C91.3281 67.4584 91.1425 66.7492 91.1425 65.7307V62.6608C91.1425 62.5847 91.0996 62.5466 91.0139 62.5466H90.3286ZM97.7344 62.5466C97.544 62.5466 97.3822 62.48 97.2489 62.3467C97.1157 62.2039 97.049 62.0373 97.049 61.8469C97.049 61.6566 97.1157 61.4947 97.2489 61.3615C97.3822 61.2282 97.544 61.1616 97.7344 61.1616H98.4911C98.5768 61.1616 98.6196 61.1187 98.6196 61.0331V60.6904C98.6196 59.6623 98.8433 58.9151 99.2907 58.4487C99.7381 57.9727 100.447 57.7348 101.418 57.7348C101.742 57.7348 102.023 57.7538 102.261 57.7919C102.461 57.8204 102.622 57.9204 102.746 58.0917C102.879 58.2535 102.946 58.4392 102.946 58.6486C102.946 58.8199 102.875 58.9579 102.732 59.0627C102.589 59.1578 102.432 59.1912 102.261 59.1626C102.07 59.1436 101.932 59.134 101.847 59.134C101.361 59.134 101.028 59.2388 100.847 59.4482C100.676 59.6481 100.59 60.0431 100.59 60.6333V61.0331C100.59 61.1187 100.633 61.1616 100.719 61.1616H102.118C102.308 61.1616 102.47 61.2282 102.603 61.3615C102.737 61.4947 102.803 61.6566 102.803 61.8469C102.803 62.0373 102.737 62.2039 102.603 62.3467C102.47 62.48 102.308 62.5466 102.118 62.5466H100.719C100.633 62.5466 100.59 62.5847 100.59 62.6608V67.4869C100.59 67.7058 100.509 67.8962 100.347 68.058C100.186 68.2199 99.9951 68.3008 99.7762 68.3008H99.4192C99.2003 68.3008 99.0099 68.2199 98.8481 68.058C98.6958 67.8962 98.6196 67.7058 98.6196 67.4869V62.6608C98.6196 62.5847 98.5768 62.5466 98.4911 62.5466H97.7344ZM108.648 62.7179C108.372 62.3181 107.953 62.1182 107.391 62.1182C106.83 62.1182 106.406 62.3181 106.12 62.7179C105.844 63.1082 105.706 63.7317 105.706 64.5884C105.706 65.4451 105.844 66.0734 106.12 66.4731C106.406 66.8634 106.83 67.0586 107.391 67.0586C107.953 67.0586 108.372 66.8634 108.648 66.4731C108.933 66.0734 109.076 65.4451 109.076 64.5884C109.076 63.7317 108.933 63.1082 108.648 62.7179ZM110.047 67.4441C109.419 68.1104 108.534 68.4436 107.391 68.4436C106.249 68.4436 105.359 68.1104 104.721 67.4441C104.093 66.7682 103.779 65.8163 103.779 64.5884C103.779 63.3605 104.093 62.4133 104.721 61.747C105.359 61.0711 106.249 60.7332 107.391 60.7332C108.534 60.7332 109.419 61.0711 110.047 61.747C110.685 62.4133 111.004 63.3605 111.004 64.5884C111.004 65.8163 110.685 66.7682 110.047 67.4441ZM113.291 68.3008C113.072 68.3008 112.882 68.2199 112.72 68.058C112.558 67.8962 112.478 67.7058 112.478 67.4869V61.6899C112.478 61.4709 112.558 61.2806 112.72 61.1187C112.882 60.9569 113.072 60.876 113.291 60.876H113.577C113.796 60.876 113.986 60.9569 114.148 61.1187C114.31 61.2806 114.391 61.4709 114.391 61.6899V62.2896C114.391 62.2991 114.396 62.3039 114.405 62.3039C114.424 62.3039 114.434 62.2991 114.434 62.2896C114.71 61.9088 115.071 61.5995 115.519 61.3615C115.966 61.114 116.456 60.9617 116.989 60.9046C117.189 60.8855 117.361 60.9522 117.504 61.1045C117.646 61.2472 117.718 61.4186 117.718 61.6185C117.718 61.8184 117.646 61.9897 117.504 62.1325C117.361 62.2753 117.189 62.3562 116.989 62.3752C115.305 62.5085 114.462 63.3652 114.462 64.9454V67.4869C114.462 67.7058 114.381 67.8962 114.219 68.058C114.058 68.2199 113.867 68.3008 113.648 68.3008H113.291ZM120.207 68.3008C119.988 68.3008 119.798 68.2199 119.636 68.058C119.484 67.8962 119.408 67.7058 119.408 67.4869V61.6899C119.408 61.4709 119.484 61.2806 119.636 61.1187C119.798 60.9569 119.988 60.876 120.207 60.876H120.407C120.626 60.876 120.812 60.9522 120.964 61.1045C121.126 61.2568 121.211 61.4424 121.221 61.6613V61.7613C121.221 61.7708 121.226 61.7756 121.235 61.7756C121.254 61.7756 121.264 61.7708 121.264 61.7613C121.825 61.0759 122.458 60.7332 123.163 60.7332C123.591 60.7332 123.934 60.8141 124.191 60.976C124.457 61.1378 124.691 61.4234 124.89 61.8327C124.89 61.8422 124.9 61.8469 124.919 61.8469C124.929 61.8469 124.938 61.8422 124.948 61.8327C125.547 61.0997 126.223 60.7332 126.975 60.7332C127.765 60.7332 128.332 60.9474 128.674 61.3758C129.026 61.8041 129.203 62.5418 129.203 63.5889V67.4869C129.203 67.7058 129.122 67.8962 128.96 68.058C128.808 68.2199 128.622 68.3008 128.403 68.3008H128.16C127.941 68.3008 127.751 68.2199 127.589 68.058C127.427 67.8962 127.346 67.7058 127.346 67.4869V63.8745C127.346 63.1796 127.28 62.7227 127.146 62.5037C127.013 62.2848 126.756 62.1753 126.375 62.1753C126.128 62.1753 125.88 62.2896 125.633 62.518C125.385 62.7465 125.262 62.9749 125.262 63.2034V67.4869C125.262 67.7058 125.181 67.8962 125.019 68.058C124.857 68.2199 124.667 68.3008 124.448 68.3008H124.205C123.986 68.3008 123.796 68.2199 123.634 68.058C123.482 67.8962 123.406 67.7058 123.406 67.4869V63.8745C123.406 63.1891 123.334 62.737 123.191 62.518C123.058 62.2896 122.801 62.1753 122.42 62.1753C122.173 62.1753 121.925 62.2896 121.678 62.518C121.43 62.7465 121.307 62.9749 121.307 63.2034V67.4869C121.307 67.7058 121.226 67.8962 121.064 68.058C120.902 68.2199 120.712 68.3008 120.493 68.3008H120.207ZM137.291 59.5338V66.6445C137.291 66.7111 137.33 66.754 137.406 66.773C137.71 66.8206 137.996 66.8444 138.262 66.8444C139.376 66.8444 140.195 66.5445 140.718 65.9448C141.242 65.3356 141.504 64.3361 141.504 62.9464C141.504 61.6994 141.237 60.7856 140.704 60.2049C140.171 59.6243 139.357 59.3339 138.262 59.3339C137.996 59.3339 137.71 59.3577 137.406 59.4053C137.33 59.4244 137.291 59.4672 137.291 59.5338ZM136.121 68.3436C135.883 68.3151 135.688 68.2151 135.535 68.0438C135.383 67.8629 135.307 67.6535 135.307 67.4155V58.7628C135.307 58.5248 135.383 58.3202 135.535 58.1488C135.688 57.968 135.883 57.8633 136.121 57.8347C136.73 57.7681 137.41 57.7348 138.162 57.7348C139.857 57.7348 141.151 58.1774 142.046 59.0627C142.95 59.9479 143.403 61.2425 143.403 62.9464C143.403 64.774 142.95 66.1495 142.046 67.0728C141.151 67.9867 139.857 68.4436 138.162 68.4436C137.41 68.4436 136.73 68.4102 136.121 68.3436ZM147.896 62.0611C147.41 62.0611 147.034 62.1991 146.768 62.4752C146.511 62.7417 146.349 63.1748 146.282 63.7745C146.282 63.8507 146.32 63.8888 146.397 63.8888H149.195C149.271 63.8888 149.309 63.8507 149.309 63.7745C149.271 62.6323 148.8 62.0611 147.896 62.0611ZM148.253 68.4436C147.006 68.4436 146.044 68.1199 145.369 67.4726C144.702 66.8158 144.369 65.8544 144.369 64.5884C144.369 63.3319 144.669 62.3752 145.269 61.7184C145.868 61.0616 146.735 60.7332 147.867 60.7332C149.981 60.7332 151.066 61.9326 151.123 64.3314C151.132 64.5598 151.051 64.7502 150.88 64.9025C150.709 65.0548 150.509 65.131 150.28 65.131H146.382C146.297 65.131 146.263 65.1738 146.282 65.2595C146.349 65.8972 146.558 66.3637 146.911 66.6588C147.272 66.9443 147.796 67.0871 148.481 67.0871C148.91 67.0871 149.386 67.0157 149.909 66.8729C150.08 66.8253 150.238 66.8539 150.38 66.9586C150.533 67.0633 150.609 67.2061 150.609 67.387C150.609 67.6059 150.542 67.801 150.409 67.9724C150.285 68.1342 150.119 68.2341 149.909 68.2722C149.376 68.3865 148.824 68.4436 148.253 68.4436ZM153.911 67.5297L152.012 61.647C151.945 61.4567 151.969 61.2806 152.083 61.1187C152.207 60.9569 152.369 60.876 152.568 60.876H152.997C153.235 60.876 153.449 60.9522 153.639 61.1045C153.83 61.2472 153.953 61.4329 154.011 61.6613L155.438 67.1871C155.438 67.1966 155.443 67.2013 155.453 67.2013C155.462 67.2013 155.467 67.1966 155.467 67.1871L156.895 61.6613C156.952 61.4329 157.076 61.2472 157.266 61.1045C157.456 60.9522 157.671 60.876 157.909 60.876H158.28C158.48 60.876 158.637 60.9569 158.751 61.1187C158.875 61.2806 158.903 61.4567 158.837 61.647L156.938 67.5297C156.871 67.7582 156.738 67.9438 156.538 68.0866C156.347 68.2294 156.129 68.3008 155.881 68.3008H154.967C154.729 68.3008 154.51 68.2294 154.31 68.0866C154.12 67.9438 153.987 67.7582 153.911 67.5297ZM162.983 62.0611C162.498 62.0611 162.122 62.1991 161.855 62.4752C161.598 62.7417 161.436 63.1748 161.37 63.7745C161.37 63.8507 161.408 63.8888 161.484 63.8888H164.282C164.358 63.8888 164.397 63.8507 164.397 63.7745C164.358 62.6323 163.887 62.0611 162.983 62.0611ZM163.34 68.4436C162.093 68.4436 161.132 68.1199 160.456 67.4726C159.789 66.8158 159.456 65.8544 159.456 64.5884C159.456 63.3319 159.756 62.3752 160.356 61.7184C160.955 61.0616 161.822 60.7332 162.954 60.7332C165.068 60.7332 166.153 61.9326 166.21 64.3314C166.219 64.5598 166.139 64.7502 165.967 64.9025C165.796 65.0548 165.596 65.131 165.368 65.131H161.47C161.384 65.131 161.351 65.1738 161.37 65.2595C161.436 65.8972 161.646 66.3637 161.998 66.6588C162.36 66.9443 162.883 67.0871 163.568 67.0871C163.997 67.0871 164.473 67.0157 164.996 66.8729C165.168 66.8253 165.325 66.8539 165.467 66.9586C165.62 67.0633 165.696 67.2061 165.696 67.387C165.696 67.6059 165.629 67.801 165.496 67.9724C165.372 68.1342 165.206 68.2341 164.996 68.2722C164.463 68.3865 163.911 68.4436 163.34 68.4436ZM168.993 68.3008C168.774 68.3008 168.583 68.2199 168.422 68.058C168.26 67.8962 168.179 67.7058 168.179 67.4869V58.4058C168.179 58.1869 168.26 57.9965 168.422 57.8347C168.583 57.6729 168.774 57.592 168.993 57.592H169.364C169.583 57.592 169.773 57.6729 169.935 57.8347C170.097 57.9965 170.178 58.1869 170.178 58.4058V67.4869C170.178 67.7058 170.097 67.8962 169.935 68.058C169.773 68.2199 169.583 68.3008 169.364 68.3008H168.993ZM176.944 62.7179C176.668 62.3181 176.249 62.1182 175.688 62.1182C175.126 62.1182 174.703 62.3181 174.417 62.7179C174.141 63.1082 174.003 63.7317 174.003 64.5884C174.003 65.4451 174.141 66.0734 174.417 66.4731C174.703 66.8634 175.126 67.0586 175.688 67.0586C176.249 67.0586 176.668 66.8634 176.944 66.4731C177.23 66.0734 177.373 65.4451 177.373 64.5884C177.373 63.7317 177.23 63.1082 176.944 62.7179ZM178.344 67.4441C177.715 68.1104 176.83 68.4436 175.688 68.4436C174.546 68.4436 173.655 68.1104 173.018 67.4441C172.389 66.7682 172.075 65.8163 172.075 64.5884C172.075 63.3605 172.389 62.4133 173.018 61.747C173.655 61.0711 174.546 60.7332 175.688 60.7332C176.83 60.7332 177.715 61.0711 178.344 61.747C178.981 62.4133 179.3 63.3605 179.3 64.5884C179.3 65.8163 178.981 66.7682 178.344 67.4441ZM182.659 63.6175V65.5593C182.659 65.9401 182.821 66.278 183.144 66.5731C183.477 66.8682 183.863 67.0157 184.301 67.0157C184.805 67.0157 185.205 66.8111 185.5 66.4018C185.795 65.9924 185.943 65.388 185.943 64.5884C185.943 62.9702 185.395 62.1611 184.301 62.1611C183.863 62.1611 183.477 62.3086 183.144 62.6037C182.821 62.8988 182.659 63.2367 182.659 63.6175ZM181.588 71.442C181.369 71.442 181.179 71.3611 181.017 71.1993C180.855 71.0375 180.774 70.8471 180.774 70.6282V61.6899C180.774 61.4709 180.855 61.2806 181.017 61.1187C181.179 60.9569 181.369 60.876 181.588 60.876H181.759C181.988 60.876 182.183 60.9569 182.345 61.1187C182.506 61.271 182.592 61.4614 182.602 61.6899V61.7898C182.602 61.7993 182.606 61.8041 182.616 61.8041C182.625 61.8041 182.635 61.7993 182.644 61.7898C182.987 61.4091 183.33 61.1378 183.673 60.976C184.015 60.8141 184.415 60.7332 184.872 60.7332C185.767 60.7332 186.481 61.0711 187.014 61.747C187.547 62.4133 187.813 63.3605 187.813 64.5884C187.813 65.7783 187.532 66.7206 186.971 67.4155C186.419 68.1009 185.719 68.4436 184.872 68.4436C184.044 68.4436 183.325 68.1437 182.716 67.544C182.706 67.5345 182.697 67.5297 182.687 67.5297C182.678 67.5297 182.673 67.5345 182.673 67.544V70.6282C182.673 70.8471 182.592 71.0375 182.43 71.1993C182.278 71.3611 182.092 71.442 181.873 71.442H181.588ZM190.149 68.3008C189.93 68.3008 189.74 68.2199 189.578 68.058C189.426 67.8962 189.349 67.7058 189.349 67.4869V61.6899C189.349 61.4709 189.426 61.2806 189.578 61.1187C189.74 60.9569 189.93 60.876 190.149 60.876H190.349C190.568 60.876 190.753 60.9522 190.906 61.1045C191.068 61.2568 191.153 61.4424 191.163 61.6613V61.7613C191.163 61.7708 191.168 61.7756 191.177 61.7756C191.196 61.7756 191.206 61.7708 191.206 61.7613C191.767 61.0759 192.4 60.7332 193.105 60.7332C193.533 60.7332 193.876 60.8141 194.133 60.976C194.399 61.1378 194.632 61.4234 194.832 61.8327C194.832 61.8422 194.842 61.8469 194.861 61.8469C194.87 61.8469 194.88 61.8422 194.889 61.8327C195.489 61.0997 196.165 60.7332 196.917 60.7332C197.707 60.7332 198.273 60.9474 198.616 61.3758C198.968 61.8041 199.144 62.5418 199.144 63.5889V67.4869C199.144 67.7058 199.063 67.8962 198.902 68.058C198.749 68.2199 198.564 68.3008 198.345 68.3008H198.102C197.883 68.3008 197.693 68.2199 197.531 68.058C197.369 67.8962 197.288 67.7058 197.288 67.4869V63.8745C197.288 63.1796 197.222 62.7227 197.088 62.5037C196.955 62.2848 196.698 62.1753 196.317 62.1753C196.07 62.1753 195.822 62.2896 195.575 62.518C195.327 62.7465 195.204 62.9749 195.204 63.2034V67.4869C195.204 67.7058 195.123 67.8962 194.961 68.058C194.799 68.2199 194.609 68.3008 194.39 68.3008H194.147C193.928 68.3008 193.738 68.2199 193.576 68.058C193.424 67.8962 193.347 67.7058 193.347 67.4869V63.8745C193.347 63.1891 193.276 62.737 193.133 62.518C193 62.2896 192.743 62.1753 192.362 62.1753C192.115 62.1753 191.867 62.2896 191.62 62.518C191.372 62.7465 191.248 62.9749 191.248 63.2034V67.4869C191.248 67.7058 191.168 67.8962 191.006 68.058C190.844 68.2199 190.654 68.3008 190.435 68.3008H190.149ZM204.075 62.0611C203.59 62.0611 203.214 62.1991 202.947 62.4752C202.69 62.7417 202.528 63.1748 202.462 63.7745C202.462 63.8507 202.5 63.8888 202.576 63.8888H205.375C205.451 63.8888 205.489 63.8507 205.489 63.7745C205.451 62.6323 204.98 62.0611 204.075 62.0611ZM204.432 68.4436C203.185 68.4436 202.224 68.1199 201.548 67.4726C200.882 66.8158 200.548 65.8544 200.548 64.5884C200.548 63.3319 200.848 62.3752 201.448 61.7184C202.048 61.0616 202.914 60.7332 204.047 60.7332C206.16 60.7332 207.245 61.9326 207.302 64.3314C207.312 64.5598 207.231 64.7502 207.059 64.9025C206.888 65.0548 206.688 65.131 206.46 65.131H202.562C202.476 65.131 202.443 65.1738 202.462 65.2595C202.528 65.8972 202.738 66.3637 203.09 66.6588C203.452 66.9443 203.975 67.0871 204.661 67.0871C205.089 67.0871 205.565 67.0157 206.089 66.8729C206.26 66.8253 206.417 66.8539 206.56 66.9586C206.712 67.0633 206.788 67.2061 206.788 67.387C206.788 67.6059 206.722 67.801 206.588 67.9724C206.465 68.1342 206.298 68.2341 206.089 68.2722C205.555 68.3865 205.003 68.4436 204.432 68.4436ZM209.657 68.3008C209.438 68.3008 209.247 68.2199 209.086 68.058C208.924 67.8962 208.843 67.7058 208.843 67.4869V61.6899C208.843 61.4709 208.924 61.2806 209.086 61.1187C209.247 60.9569 209.438 60.876 209.657 60.876H209.842C210.071 60.876 210.261 60.9569 210.413 61.1187C210.575 61.271 210.661 61.4614 210.67 61.6899V61.7898C210.67 61.7993 210.675 61.8041 210.685 61.8041C210.694 61.8041 210.704 61.7993 210.713 61.7898C211.361 61.0854 212.117 60.7332 212.984 60.7332C213.85 60.7332 214.478 60.9807 214.868 61.4757C215.268 61.9612 215.468 62.775 215.468 63.9173V67.4869C215.468 67.7058 215.387 67.8962 215.225 68.058C215.063 68.2199 214.873 68.3008 214.654 68.3008H214.411C214.192 68.3008 214.002 68.2199 213.84 68.058C213.688 67.8962 213.612 67.7058 213.612 67.4869V64.0601C213.612 63.3462 213.517 62.8607 213.326 62.6037C213.145 62.3372 212.817 62.2039 212.341 62.2039C211.951 62.2039 211.589 62.3705 211.256 62.7036C210.923 63.0368 210.756 63.3938 210.756 63.7745V67.4869C210.756 67.7058 210.675 67.8962 210.513 68.058C210.352 68.2199 210.161 68.3008 209.942 68.3008H209.657ZM217.412 62.5466C217.222 62.5466 217.06 62.48 216.926 62.3467C216.793 62.2039 216.727 62.0373 216.727 61.8469C216.727 61.6566 216.793 61.4947 216.926 61.3615C217.06 61.2282 217.222 61.1616 217.412 61.1616H218.097C218.183 61.1616 218.226 61.1187 218.226 61.0331V59.2626C218.226 59.0436 218.302 58.8532 218.454 58.6914C218.616 58.5296 218.806 58.4487 219.025 58.4487H219.311C219.53 58.4487 219.72 58.5296 219.882 58.6914C220.044 58.8532 220.125 59.0436 220.125 59.2626V61.0331C220.125 61.1187 220.168 61.1616 220.253 61.1616H221.881C222.071 61.1616 222.233 61.2282 222.367 61.3615C222.509 61.4947 222.581 61.6566 222.581 61.8469C222.581 62.0373 222.509 62.2039 222.367 62.3467C222.233 62.48 222.071 62.5466 221.881 62.5466H220.253C220.168 62.5466 220.125 62.5847 220.125 62.6608V65.545C220.125 66.1638 220.191 66.5636 220.325 66.7444C220.458 66.9253 220.734 67.0157 221.153 67.0157C221.381 67.0157 221.553 67.0062 221.667 66.9872C221.857 66.9681 222.024 67.011 222.167 67.1157C222.309 67.2204 222.381 67.3632 222.381 67.544C222.381 67.7534 222.309 67.9438 222.167 68.1152C222.033 68.277 221.867 68.3674 221.667 68.3865C221.248 68.4245 220.934 68.4436 220.725 68.4436C219.801 68.4436 219.154 68.2484 218.783 67.8582C218.411 67.4584 218.226 66.7492 218.226 65.7307V62.6608C218.226 62.5847 218.183 62.5466 218.097 62.5466H217.412Z" fill="#9AE6B4"/>
</svg>
