<svg width="53" height="15" viewBox="0 0 53 15" fill="none" xmlns="http://www.w3.org/2000/svg">
<rect x="0.0844727" y="0.0341797" width="52.3899" height="14.9685" rx="7.48427" fill="#193342"/>
<g clip-path="url(#clip0_1343_3211)">
<path d="M11.0179 5.4769L10.4355 4.89453V9.08338L10.4426 9.27985C10.4426 9.37106 10.4566 9.47631 10.4917 9.58156L15.0945 11.2024L16.2382 10.6972L11.0179 5.4769Z" fill="#00C4B3"/>
<path d="M16.2388 10.6977L15.0951 11.2028L10.5063 9.58203C10.5976 9.91882 10.787 10.2907 10.9975 10.5082L12.492 11.9957L15.8319 12.0027L16.2388 10.6977Z" fill="#22D3C5"/>
<path d="M8.6675 7.59607C8.52015 7.75043 8.59733 8.0802 8.82888 8.32578L9.8603 9.36422L10.5058 9.59577C10.4848 9.49052 10.4567 9.38527 10.4567 9.29406L10.4497 9.0976L10.4357 4.90173M16.2383 10.6974L16.7435 9.54665L15.1297 4.94383C15.0245 4.92278 14.9192 4.90173 14.828 4.89471L14.6245 4.8877L10.4427 4.89471" fill="#0075C9"/>
<path d="M16.2379 10.6979L17.4798 10.2909V6.87387L16.0484 5.43549C15.8379 5.225 15.4661 5.02853 15.1223 4.94434L16.7431 9.54716" fill="#00A8E1"/>
<path d="M14.898 4.30583L13.8596 3.2744C13.621 3.03584 13.2983 2.96568 13.1299 3.11302L10.4355 4.89521H14.6104L14.8138 4.90223C14.9051 4.90223 15.0103 4.91626 15.1156 4.95135L14.898 4.30583Z" fill="#00C4B3"/>
</g>
<path d="M27.0492 5.46368V9.56356C27.0492 9.60198 27.0711 9.62668 27.115 9.63766C27.2907 9.6651 27.4553 9.67882 27.609 9.67882C28.2511 9.67882 28.7232 9.50593 29.025 9.16016C29.3269 8.8089 29.4778 8.23261 29.4778 7.43129C29.4778 6.7123 29.3241 6.18541 29.0168 5.85062C28.7094 5.51582 28.2402 5.34842 27.609 5.34842C27.4553 5.34842 27.2907 5.36214 27.115 5.38959C27.0711 5.40056 27.0492 5.42526 27.0492 5.46368ZM26.3741 10.5433C26.2369 10.5268 26.1244 10.4692 26.0366 10.3704C25.9487 10.2661 25.9048 10.1453 25.9048 10.0081V5.01911C25.9048 4.8819 25.9487 4.7639 26.0366 4.66511C26.1244 4.56083 26.2369 4.50045 26.3741 4.48399C26.7254 4.44557 27.1178 4.42636 27.5514 4.42636C28.5283 4.42636 29.2747 4.68157 29.7907 5.192C30.3121 5.70243 30.5728 6.44886 30.5728 7.43129C30.5728 8.48508 30.3121 9.27816 29.7907 9.81054C29.2747 10.3374 28.5283 10.6009 27.5514 10.6009C27.1178 10.6009 26.7254 10.5817 26.3741 10.5433ZM33.4352 8.46038C32.6503 8.46038 32.2579 8.70187 32.2579 9.18486C32.2579 9.36049 32.3073 9.50319 32.4061 9.61296C32.5104 9.72273 32.6421 9.77761 32.8013 9.77761C33.1141 9.77761 33.3666 9.68156 33.5587 9.48947C33.7508 9.29188 33.8468 9.02295 33.8468 8.68266V8.53447C33.8468 8.48508 33.8221 8.46038 33.7727 8.46038H33.4352ZM32.5049 10.6009C32.1317 10.6009 31.8216 10.4801 31.5746 10.2386C31.3331 9.99166 31.2123 9.67333 31.2123 9.28365C31.2123 8.80615 31.3935 8.43568 31.7557 8.17224C32.1234 7.90879 32.6833 7.77707 33.4352 7.77707H33.7727C33.8221 7.77707 33.8468 7.75237 33.8468 7.70297V7.63711C33.8468 7.38464 33.7864 7.20901 33.6657 7.11022C33.5449 7.00594 33.3309 6.9538 33.0235 6.9538C32.7052 6.9538 32.3155 7.01143 31.8545 7.12668C31.7557 7.15413 31.6651 7.13766 31.5828 7.07729C31.5005 7.01143 31.4593 6.92636 31.4593 6.82207C31.4593 6.69584 31.4977 6.58333 31.5746 6.48453C31.6514 6.38025 31.7502 6.31714 31.871 6.29518C32.2881 6.20188 32.6805 6.15523 33.0482 6.15523C33.7508 6.15523 34.242 6.28146 34.5219 6.53393C34.8018 6.7864 34.9418 7.22822 34.9418 7.85939V10.0493C34.9418 10.1755 34.8951 10.2853 34.8018 10.3786C34.714 10.4719 34.607 10.5186 34.4807 10.5186H34.3902C34.2584 10.5186 34.1459 10.4746 34.0526 10.3868C33.9593 10.2935 33.9099 10.181 33.9044 10.0493V9.93403C33.9044 9.92854 33.9017 9.9258 33.8962 9.9258C33.8852 9.9258 33.8797 9.92854 33.8797 9.93403C33.5449 10.3786 33.0867 10.6009 32.5049 10.6009ZM36.5022 10.5186C36.376 10.5186 36.2662 10.4719 36.1729 10.3786C36.0796 10.2853 36.033 10.1755 36.033 10.0493V6.70682C36.033 6.58058 36.0796 6.47081 36.1729 6.37751C36.2662 6.2842 36.376 6.23755 36.5022 6.23755H36.6669C36.7931 6.23755 36.9029 6.2842 36.9962 6.37751C37.0895 6.47081 37.1362 6.58058 37.1362 6.70682V7.05259C37.1362 7.05808 37.1389 7.06082 37.1444 7.06082C37.1554 7.06082 37.1609 7.05808 37.1609 7.05259C37.32 6.83305 37.5286 6.65468 37.7865 6.51746C38.0445 6.37476 38.3272 6.28695 38.6345 6.25402C38.7498 6.24304 38.8486 6.28146 38.9309 6.36928C39.0132 6.4516 39.0544 6.5504 39.0544 6.66565C39.0544 6.78091 39.0132 6.8797 38.9309 6.96203C38.8486 7.04436 38.7498 7.09101 38.6345 7.10199C37.663 7.17882 37.1773 7.67279 37.1773 8.58387V10.0493C37.1773 10.1755 37.1307 10.2853 37.0374 10.3786C36.9441 10.4719 36.8343 10.5186 36.7081 10.5186H36.5022ZM40.2181 7.20078C40.1083 7.20078 40.015 7.16236 39.9382 7.08552C39.8613 7.00319 39.8229 6.90715 39.8229 6.79738C39.8229 6.68761 39.8613 6.5943 39.9382 6.51746C40.015 6.44063 40.1083 6.40221 40.2181 6.40221H40.6132C40.6626 6.40221 40.6873 6.37751 40.6873 6.32811V5.30726C40.6873 5.18102 40.7312 5.07125 40.8191 4.97795C40.9124 4.88465 41.0221 4.83799 41.1484 4.83799H41.313C41.4393 4.83799 41.549 4.88465 41.6423 4.97795C41.7356 5.07125 41.7823 5.18102 41.7823 5.30726V6.32811C41.7823 6.37751 41.807 6.40221 41.8564 6.40221H42.7949C42.9047 6.40221 42.998 6.44063 43.0748 6.51746C43.1571 6.5943 43.1983 6.68761 43.1983 6.79738C43.1983 6.90715 43.1571 7.00319 43.0748 7.08552C42.998 7.16236 42.9047 7.20078 42.7949 7.20078H41.8564C41.807 7.20078 41.7823 7.22273 41.7823 7.26664V8.92964C41.7823 9.28639 41.8207 9.51691 41.8975 9.62119C41.9744 9.72547 42.1335 9.77761 42.375 9.77761C42.5068 9.77761 42.6056 9.77212 42.6714 9.76115C42.7812 9.75017 42.8772 9.77487 42.9596 9.83524C43.0419 9.89561 43.0831 9.97794 43.0831 10.0822C43.0831 10.203 43.0419 10.3127 42.9596 10.4115C42.8827 10.5048 42.7867 10.557 42.6714 10.568C42.4299 10.5899 42.2488 10.6009 42.1281 10.6009C41.5957 10.6009 41.2225 10.4884 41.0084 10.2633C40.7944 10.0328 40.6873 9.62394 40.6873 9.03667V7.26664C40.6873 7.22273 40.6626 7.20078 40.6132 7.20078H40.2181Z" fill="#0EACFF"/>
<defs>
<clipPath id="clip0_1343_3211">
<rect width="8.98112" height="8.98112" fill="white" transform="translate(8.54688 3.02832)"/>
</clipPath>
</defs>
</svg>
