<svg width="138" height="80" viewBox="0 0 138 80" fill="none" xmlns="http://www.w3.org/2000/svg">
<rect x="0.883301" y="0.00488281" width="137" height="80" rx="10" fill="#241F16"/>
<path d="M69.3844 10.2695C69.3844 9.99912 69.4918 9.7398 69.683 9.54861C69.8742 9.35741 70.1335 9.25 70.4039 9.25C72.1444 9.25 73.8678 9.59281 75.4758 10.2589C77.0838 10.9249 78.5448 11.9012 79.7756 13.1319C81.0063 14.3626 81.9825 15.8237 82.6486 17.4317C83.3146 19.0396 83.6574 20.7631 83.6574 22.5036C83.6574 22.774 83.55 23.0333 83.3588 23.2245C83.1676 23.4157 82.9083 23.5231 82.6379 23.5231H70.4039C70.1335 23.5231 69.8742 23.4157 69.683 23.2245C69.4918 23.0333 69.3844 22.774 69.3844 22.5036V10.2695ZM67.3453 14.3924C67.3454 14.2508 67.3159 14.1107 67.2587 13.9811C67.2016 13.8515 67.1181 13.7352 67.0136 13.6397C66.909 13.5442 66.7857 13.4715 66.6515 13.4262C66.5173 13.381 66.3751 13.3642 66.2341 13.377C63.9187 13.5881 61.7114 14.4546 59.8707 15.875C58.03 17.2954 56.6322 19.211 55.841 21.3972C55.0498 23.5835 54.898 25.9499 55.4033 28.2193C55.9086 30.4888 57.0501 32.5673 58.6941 34.2113C60.3381 35.8553 62.4166 36.9968 64.6861 37.5021C66.9555 38.0074 69.3219 37.8556 71.5082 37.0644C73.6944 36.2732 75.61 34.8754 77.0304 33.0347C78.4508 31.194 79.3173 28.9867 79.5284 26.6713C79.5409 26.5306 79.5239 26.3888 79.4787 26.255C79.4334 26.1212 79.3609 25.9982 79.2656 25.8939C79.1703 25.7896 79.0544 25.7063 78.9252 25.6492C78.796 25.592 78.6563 25.5624 78.5151 25.5621H67.3453V14.3924Z" fill="#F5AA1A"/>
<path d="M28.2873 59.0407V66.1513C28.2873 66.218 28.3254 66.2608 28.4016 66.2798C28.7062 66.3274 28.9917 66.3512 29.2583 66.3512C30.372 66.3512 31.1906 66.0514 31.7141 65.4517C32.2377 64.8425 32.4995 63.843 32.4995 62.4532C32.4995 61.2062 32.2329 60.2924 31.6999 59.7118C31.1668 59.1311 30.3529 58.8408 29.2583 58.8408C28.9917 58.8408 28.7062 58.8646 28.4016 58.9122C28.3254 58.9312 28.2873 58.974 28.2873 59.0407ZM27.1165 67.8505C26.8785 67.8219 26.6834 67.7219 26.5311 67.5506C26.3788 67.3697 26.3026 67.1603 26.3026 66.9224V58.2696C26.3026 58.0317 26.3788 57.827 26.5311 57.6557C26.6834 57.4748 26.8785 57.3701 27.1165 57.3415C27.7257 57.2749 28.4063 57.2416 29.1583 57.2416C30.8527 57.2416 32.1473 57.6842 33.042 58.5695C33.9463 59.4548 34.3985 60.7493 34.3985 62.4532C34.3985 64.2809 33.9463 65.6563 33.042 66.5797C32.1473 67.4935 30.8527 67.9504 29.1583 67.9504C28.4063 67.9504 27.7257 67.9171 27.1165 67.8505ZM39.3629 64.238C38.0017 64.238 37.3211 64.6568 37.3211 65.4945C37.3211 65.7991 37.4068 66.0466 37.5781 66.237C37.759 66.4274 37.9874 66.5226 38.2635 66.5226C38.806 66.5226 39.2439 66.356 39.5771 66.0228C39.9102 65.6801 40.0768 65.2137 40.0768 64.6235V64.3665C40.0768 64.2809 40.034 64.238 39.9483 64.238H39.3629ZM37.7494 67.9504C37.1022 67.9504 36.5643 67.741 36.136 67.3222C35.7172 66.8938 35.5077 66.3417 35.5077 65.6659C35.5077 64.8377 35.8219 64.1952 36.4501 63.7383C37.0879 63.2814 38.0588 63.0529 39.3629 63.0529H39.9483C40.034 63.0529 40.0768 63.0101 40.0768 62.9244V62.8102C40.0768 62.3723 39.9721 62.0677 39.7627 61.8964C39.5533 61.7155 39.182 61.6251 38.649 61.6251C38.0969 61.6251 37.421 61.725 36.6215 61.9249C36.4501 61.9725 36.293 61.944 36.1503 61.8392C36.0075 61.725 35.9361 61.5775 35.9361 61.3966C35.9361 61.1777 36.0027 60.9825 36.136 60.8112C36.2692 60.6303 36.4406 60.5209 36.65 60.4828C37.3734 60.321 38.0541 60.2401 38.6918 60.2401C39.9102 60.2401 40.7622 60.459 41.2477 60.8969C41.7331 61.3347 41.9759 62.101 41.9759 63.1957V66.9937C41.9759 67.2127 41.8949 67.4031 41.7331 67.5649C41.5808 67.7267 41.3952 67.8076 41.1763 67.8076H41.0192C40.7907 67.8076 40.5956 67.7315 40.4338 67.5792C40.272 67.4173 40.1863 67.2222 40.1768 66.9937V66.7939C40.1768 66.7843 40.172 66.7796 40.1625 66.7796C40.1435 66.7796 40.1339 66.7843 40.1339 66.7939C39.5533 67.5649 38.7585 67.9504 37.7494 67.9504ZM43.7646 62.0534C43.5742 62.0534 43.4124 61.9868 43.2791 61.8535C43.1458 61.7107 43.0792 61.5442 43.0792 61.3538C43.0792 61.1634 43.1458 61.0016 43.2791 60.8683C43.4124 60.735 43.5742 60.6684 43.7646 60.6684H44.4499C44.5356 60.6684 44.5784 60.6256 44.5784 60.5399V58.7694C44.5784 58.5505 44.6546 58.3601 44.8069 58.1983C44.9687 58.0364 45.1591 57.9555 45.378 57.9555H45.6636C45.8825 57.9555 46.0729 58.0364 46.2347 58.1983C46.3965 58.3601 46.4775 58.5505 46.4775 58.7694V60.5399C46.4775 60.6256 46.5203 60.6684 46.606 60.6684H48.2337C48.4241 60.6684 48.5859 60.735 48.7192 60.8683C48.8619 61.0016 48.9333 61.1634 48.9333 61.3538C48.9333 61.5442 48.8619 61.7107 48.7192 61.8535C48.5859 61.9868 48.4241 62.0534 48.2337 62.0534H46.606C46.5203 62.0534 46.4775 62.0915 46.4775 62.1676V65.0519C46.4775 65.6706 46.5441 66.0704 46.6774 66.2513C46.8106 66.4321 47.0867 66.5226 47.5055 66.5226C47.734 66.5226 47.9053 66.513 48.0195 66.494C48.2099 66.475 48.3765 66.5178 48.5193 66.6225C48.662 66.7272 48.7334 66.87 48.7334 67.0509C48.7334 67.2603 48.662 67.4507 48.5193 67.622C48.386 67.7838 48.2194 67.8742 48.0195 67.8933C47.6007 67.9314 47.2866 67.9504 47.0771 67.9504C46.1538 67.9504 45.5065 67.7553 45.1353 67.365C44.764 66.9652 44.5784 66.256 44.5784 65.2375V62.1676C44.5784 62.0915 44.5356 62.0534 44.4499 62.0534H43.7646ZM54.2688 64.238C52.9076 64.238 52.227 64.6568 52.227 65.4945C52.227 65.7991 52.3126 66.0466 52.484 66.237C52.6648 66.4274 52.8933 66.5226 53.1693 66.5226C53.7119 66.5226 54.1498 66.356 54.483 66.0228C54.8161 65.6801 54.9827 65.2137 54.9827 64.6235V64.3665C54.9827 64.2809 54.9399 64.238 54.8542 64.238H54.2688ZM52.6553 67.9504C52.008 67.9504 51.4702 67.741 51.0419 67.3222C50.623 66.8938 50.4136 66.3417 50.4136 65.6659C50.4136 64.8377 50.7277 64.1952 51.356 63.7383C51.9937 63.2814 52.9647 63.0529 54.2688 63.0529H54.8542C54.9399 63.0529 54.9827 63.0101 54.9827 62.9244V62.8102C54.9827 62.3723 54.878 62.0677 54.6686 61.8964C54.4592 61.7155 54.0879 61.6251 53.5549 61.6251C53.0028 61.6251 52.3269 61.725 51.5273 61.9249C51.356 61.9725 51.1989 61.944 51.0561 61.8392C50.9134 61.725 50.842 61.5775 50.842 61.3966C50.842 61.1777 50.9086 60.9825 51.0419 60.8112C51.1751 60.6303 51.3465 60.5209 51.5559 60.4828C52.2793 60.321 52.9599 60.2401 53.5977 60.2401C54.8161 60.2401 55.6681 60.459 56.1535 60.8969C56.639 61.3347 56.8817 62.101 56.8817 63.1957V66.9937C56.8817 67.2127 56.8008 67.4031 56.639 67.5649C56.4867 67.7267 56.3011 67.8076 56.0821 67.8076H55.9251C55.6966 67.8076 55.5015 67.7315 55.3397 67.5792C55.1778 67.4173 55.0922 67.2222 55.0826 66.9937V66.7939C55.0826 66.7843 55.0779 66.7796 55.0684 66.7796C55.0493 66.7796 55.0398 66.7843 55.0398 66.7939C54.4592 67.5649 53.6643 67.9504 52.6553 67.9504ZM65.8589 63.4099C64.7167 63.0291 63.8885 62.5674 63.3745 62.0249C62.87 61.4823 62.6177 60.8255 62.6177 60.0544C62.6177 59.1882 62.9081 58.5029 63.4887 57.9984C64.0694 57.4939 64.8832 57.2416 65.9303 57.2416C66.8156 57.2416 67.5866 57.3415 68.2434 57.5414C68.4719 57.6081 68.6527 57.7461 68.786 57.9555C68.9288 58.1554 69.0002 58.3791 69.0002 58.6266V58.7551C69.0002 58.936 68.9193 59.0788 68.7575 59.1835C68.5956 59.2787 68.429 59.2929 68.2577 59.2263C67.5438 58.9502 66.8156 58.8122 66.0731 58.8122C65.5972 58.8122 65.2354 58.9217 64.988 59.1406C64.7405 59.3596 64.6167 59.6642 64.6167 60.0544C64.6167 60.7398 65.0641 61.23 65.9589 61.5251C67.2439 61.9344 68.134 62.4009 68.6289 62.9244C69.1334 63.4479 69.3857 64.1238 69.3857 64.9519C69.3857 66.9509 68.153 67.9504 65.6876 67.9504C64.9166 67.9504 64.2169 67.8314 63.5887 67.5934C63.3602 67.5078 63.1794 67.3602 63.0461 67.1508C62.9223 66.9414 62.8605 66.7082 62.8605 66.4512V66.2798C62.8605 66.099 62.9366 65.9705 63.0889 65.8943C63.2412 65.8086 63.3983 65.8039 63.5601 65.88C64.1884 66.1942 64.8499 66.3512 65.5448 66.3512C66.7537 66.3512 67.3582 65.8943 67.3582 64.9805C67.3582 64.6093 67.2439 64.3046 67.0155 64.0667C66.787 63.8192 66.4015 63.6002 65.8589 63.4099ZM74.3265 67.9504C73.1461 67.9504 72.2371 67.6268 71.5993 66.9795C70.9615 66.3227 70.6426 65.3613 70.6426 64.0952C70.6426 62.8483 70.9473 61.8964 71.5565 61.2396C72.1752 60.5732 73.0509 60.2401 74.1837 60.2401C74.6882 60.2401 75.1737 60.2734 75.6401 60.34C75.859 60.3686 76.0399 60.4685 76.1827 60.6399C76.3255 60.8112 76.3968 61.0111 76.3968 61.2396C76.3968 61.4299 76.3207 61.5822 76.1684 61.6965C76.0256 61.8107 75.859 61.8488 75.6686 61.8107C75.2974 61.7345 74.8833 61.6965 74.4264 61.6965C73.8267 61.6965 73.3793 61.8868 73.0843 62.2676C72.7892 62.6484 72.6416 63.2576 72.6416 64.0952C72.6416 64.9519 72.7987 65.5659 73.1128 65.9371C73.4269 66.3084 73.9124 66.494 74.5692 66.494C75.0356 66.494 75.4402 66.4512 75.7829 66.3655C75.9637 66.3179 76.1256 66.3512 76.2683 66.4654C76.4206 66.5797 76.4968 66.7272 76.4968 66.9081C76.4968 67.1365 76.4254 67.3364 76.2826 67.5078C76.1494 67.6791 75.9733 67.7838 75.7543 67.8219C75.2688 67.9076 74.7929 67.9504 74.3265 67.9504ZM79.6354 67.8076C79.4164 67.8076 79.226 67.7267 79.0642 67.5649C78.9024 67.4031 78.8215 67.2127 78.8215 66.9937V61.1967C78.8215 60.9778 78.9024 60.7874 79.0642 60.6256C79.226 60.4638 79.4164 60.3828 79.6354 60.3828H80.0066C80.2255 60.3828 80.4159 60.4638 80.5777 60.6256C80.7396 60.7874 80.8205 60.9778 80.8205 61.1967V66.9937C80.8205 67.2127 80.7396 67.4031 80.5777 67.5649C80.4159 67.7267 80.2255 67.8076 80.0066 67.8076H79.6354ZM79.6354 58.8122C79.4164 58.8122 79.226 58.7313 79.0642 58.5695C78.9024 58.4077 78.8215 58.2173 78.8215 57.9984V57.9127C78.8215 57.6937 78.9024 57.5034 79.0642 57.3415C79.226 57.1797 79.4164 57.0988 79.6354 57.0988H80.0066C80.2255 57.0988 80.4159 57.1797 80.5777 57.3415C80.7396 57.5034 80.8205 57.6937 80.8205 57.9127V57.9984C80.8205 58.2173 80.7396 58.4077 80.5777 58.5695C80.4159 58.7313 80.2255 58.8122 80.0066 58.8122H79.6354ZM86.2447 61.568C85.7592 61.568 85.3832 61.706 85.1167 61.982C84.8597 62.2486 84.6979 62.6817 84.6312 63.2814C84.6312 63.3575 84.6693 63.3956 84.7455 63.3956H87.544C87.6202 63.3956 87.6583 63.3575 87.6583 63.2814C87.6202 62.1391 87.149 61.568 86.2447 61.568ZM86.6017 67.9504C85.3547 67.9504 84.3933 67.6268 83.7174 66.9795C83.0511 66.3227 82.7179 65.3613 82.7179 64.0952C82.7179 62.8387 83.0178 61.8821 83.6175 61.2253C84.2172 60.5685 85.0834 60.2401 86.2161 60.2401C88.3294 60.2401 89.4145 61.4394 89.4716 63.8382C89.4811 64.0667 89.4002 64.2571 89.2289 64.4094C89.0575 64.5617 88.8577 64.6378 88.6292 64.6378H84.7312C84.6455 64.6378 84.6122 64.6806 84.6312 64.7663C84.6979 65.4041 84.9073 65.8705 85.2595 66.1656C85.6212 66.4512 86.1448 66.594 86.8301 66.594C87.2585 66.594 87.7344 66.5226 88.258 66.3798C88.4293 66.3322 88.5864 66.3607 88.7291 66.4654C88.8814 66.5702 88.9576 66.7129 88.9576 66.8938C88.9576 67.1127 88.891 67.3079 88.7577 67.4792C88.634 67.641 88.4674 67.741 88.258 67.7791C87.7249 67.8933 87.1728 67.9504 86.6017 67.9504ZM91.8261 67.8076C91.6072 67.8076 91.4168 67.7267 91.255 67.5649C91.0931 67.4031 91.0122 67.2127 91.0122 66.9937V61.1967C91.0122 60.9778 91.0931 60.7874 91.255 60.6256C91.4168 60.4638 91.6072 60.3828 91.8261 60.3828H92.0117C92.2402 60.3828 92.4306 60.4638 92.5829 60.6256C92.7447 60.7779 92.8303 60.9683 92.8399 61.1967V61.2967C92.8399 61.3062 92.8446 61.3109 92.8541 61.3109C92.8637 61.3109 92.8732 61.3062 92.8827 61.2967C93.53 60.5923 94.2867 60.2401 95.153 60.2401C96.0192 60.2401 96.6474 60.4876 97.0377 60.9825C97.4375 61.468 97.6374 62.2819 97.6374 63.4241V66.9937C97.6374 67.2127 97.5565 67.4031 97.3947 67.5649C97.2329 67.7267 97.0425 67.8076 96.8235 67.8076H96.5808C96.3619 67.8076 96.1715 67.7267 96.0097 67.5649C95.8574 67.4031 95.7812 67.2127 95.7812 66.9937V63.5669C95.7812 62.853 95.686 62.3675 95.4957 62.1105C95.3148 61.844 94.9864 61.7107 94.5104 61.7107C94.1202 61.7107 93.7584 61.8773 93.4253 62.2105C93.0921 62.5436 92.9255 62.9006 92.9255 63.2814V66.9937C92.9255 67.2127 92.8446 67.4031 92.6828 67.5649C92.521 67.7267 92.3306 67.8076 92.1117 67.8076H91.8261ZM102.716 67.9504C101.536 67.9504 100.627 67.6268 99.9888 66.9795C99.351 66.3227 99.0321 65.3613 99.0321 64.0952C99.0321 62.8483 99.3367 61.8964 99.9459 61.2396C100.565 60.5732 101.44 60.2401 102.573 60.2401C103.078 60.2401 103.563 60.2734 104.03 60.34C104.249 60.3686 104.429 60.4685 104.572 60.6399C104.715 60.8112 104.786 61.0111 104.786 61.2396C104.786 61.4299 104.71 61.5822 104.558 61.6965C104.415 61.8107 104.249 61.8488 104.058 61.8107C103.687 61.7345 103.273 61.6965 102.816 61.6965C102.216 61.6965 101.769 61.8868 101.474 62.2676C101.179 62.6484 101.031 63.2576 101.031 64.0952C101.031 64.9519 101.188 65.5659 101.502 65.9371C101.816 66.3084 102.302 66.494 102.959 66.494C103.425 66.494 103.83 66.4512 104.172 66.3655C104.353 66.3179 104.515 66.3512 104.658 66.4654C104.81 66.5797 104.886 66.7272 104.886 66.9081C104.886 67.1365 104.815 67.3364 104.672 67.5078C104.539 67.6791 104.363 67.7838 104.144 67.8219C103.658 67.9076 103.182 67.9504 102.716 67.9504ZM109.81 61.568C109.324 61.568 108.948 61.706 108.682 61.982C108.425 62.2486 108.263 62.6817 108.196 63.2814C108.196 63.3575 108.234 63.3956 108.31 63.3956H111.109C111.185 63.3956 111.223 63.3575 111.223 63.2814C111.185 62.1391 110.714 61.568 109.81 61.568ZM110.167 67.9504C108.92 67.9504 107.958 67.6268 107.282 66.9795C106.616 66.3227 106.283 65.3613 106.283 64.0952C106.283 62.8387 106.583 61.8821 107.182 61.2253C107.782 60.5685 108.648 60.2401 109.781 60.2401C111.894 60.2401 112.979 61.4394 113.037 63.8382C113.046 64.0667 112.965 64.2571 112.794 64.4094C112.622 64.5617 112.423 64.6378 112.194 64.6378H108.296C108.21 64.6378 108.177 64.6806 108.196 64.7663C108.263 65.4041 108.472 65.8705 108.824 66.1656C109.186 66.4512 109.71 66.594 110.395 66.594C110.823 66.594 111.299 66.5226 111.823 66.3798C111.994 66.3322 112.151 66.3607 112.294 66.4654C112.446 66.5702 112.523 66.7129 112.523 66.8938C112.523 67.1127 112.456 67.3079 112.323 67.4792C112.199 67.641 112.032 67.741 111.823 67.7791C111.29 67.8933 110.738 67.9504 110.167 67.9504Z" fill="#F5AA1A"/>
</svg>
