<svg width="80" height="80" viewBox="0 0 80 80" fill="none" xmlns="http://www.w3.org/2000/svg">
<rect x="0.883301" y="0.00488281" width="79" height="80" rx="10" fill="#193342"/>
<path d="M51.5989 26.5825C53.2851 26.5825 54.6574 25.2102 54.6574 23.524C54.6574 21.8377 53.2851 20.4655 51.5989 20.4655C50.9684 20.4674 50.3539 20.6644 49.8399 21.0295C49.3258 21.3945 48.9374 21.9098 48.7279 22.5045H42.8454L50.2878 15.0621C50.6874 15.2528 51.1278 15.368 51.5989 15.368C53.2851 15.368 54.6574 13.9957 54.6574 12.3095C54.6574 10.6232 53.2851 9.25098 51.5989 9.25098C49.9126 9.25098 48.5403 10.6232 48.5403 12.3095C48.5403 12.7805 48.6566 13.2209 48.8462 13.6195L40.3843 22.0824V15.368C40.3843 14.2445 41.2988 13.329 42.4233 13.329H44.4623V11.29H42.4233C41.1999 11.29 40.1132 11.8436 39.3648 12.6989C38.9856 12.2588 38.5163 11.9053 37.9887 11.6622C37.461 11.4191 36.8873 11.2922 36.3063 11.29H35.2868C30.2281 11.29 26.1113 15.4057 26.1113 20.4655V26.5825C26.1113 31.6423 30.2281 35.758 35.2868 35.758H36.3063C37.5297 35.758 38.6165 35.2054 39.3648 34.3491C40.1132 35.2054 41.1999 35.758 42.4233 35.758H44.4623V33.719H42.4233C41.2988 33.719 40.3843 32.8045 40.3843 31.68V24.9656L48.8462 33.4284C48.6556 33.8271 48.5403 34.2675 48.5403 34.7385C48.5403 36.4258 49.9126 37.797 51.5989 37.797C53.2851 37.797 54.6574 36.4258 54.6574 34.7385C54.6574 33.0512 53.2851 31.68 51.5989 31.68C51.1446 31.6824 50.6968 31.7873 50.2888 31.9869L42.8454 24.5445H48.7279C48.9376 25.139 49.3261 25.6541 49.8401 26.0189C50.3541 26.3838 50.9685 26.5807 51.5989 26.5825ZM51.5989 22.5045C51.8692 22.5045 52.1286 22.6119 52.3197 22.8031C52.5109 22.9943 52.6184 23.2536 52.6184 23.524C52.6184 23.7944 52.5109 24.0537 52.3197 24.2449C52.1286 24.4361 51.8692 24.5435 51.5989 24.5435C51.3285 24.5435 51.0691 24.4361 50.878 24.2449C50.6868 24.0537 50.5794 23.7944 50.5794 23.524C50.5794 23.2536 50.6868 22.9943 50.878 22.8031C51.0691 22.6119 51.3285 22.5045 51.5989 22.5045ZM51.5989 11.29C51.8614 11.3017 52.1092 11.4143 52.2908 11.6042C52.4724 11.7941 52.5738 12.0467 52.5738 12.3095C52.5738 12.5722 52.4724 12.8249 52.2908 13.0148C52.1092 13.2047 51.8614 13.3172 51.5989 13.329C51.3285 13.329 51.0691 13.2216 50.878 13.0304C50.6868 12.8392 50.5794 12.5799 50.5794 12.3095C50.5794 12.0391 50.6868 11.7798 50.878 11.5886C51.0691 11.3974 51.3285 11.29 51.5989 11.29ZM38.3453 19.446H36.3063V21.485H38.3453V25.563H36.3063C34.6201 25.563 33.2478 26.9352 33.2478 28.6215V30.6605H35.2868V28.6215C35.2868 28.3511 35.3942 28.0918 35.5854 27.9006C35.7766 27.7094 36.0359 27.602 36.3063 27.602H38.3453V31.68C38.3453 32.8045 37.4308 33.719 36.3063 33.719H35.2868C31.6982 33.719 28.7294 31.055 28.2319 27.602H30.1893V25.563H28.1503V21.485H31.2088C32.8951 21.485 34.2673 20.1127 34.2673 18.4265V16.3875H32.2283V18.4265C32.2283 18.6969 32.1209 18.9562 31.9297 19.1474C31.7385 19.3386 31.4792 19.446 31.2088 19.446H28.2319C28.7294 15.9929 31.6982 13.329 35.2868 13.329H36.3063C37.4308 13.329 38.3453 14.2445 38.3453 15.368V19.446ZM52.6184 34.7385C52.6066 35.001 52.4941 35.2489 52.3042 35.4305C52.1143 35.6121 51.8616 35.7134 51.5989 35.7134C51.3361 35.7134 51.0835 35.6121 50.8935 35.4305C50.7036 35.2489 50.5911 35.001 50.5794 34.7385C50.5794 34.1768 51.0371 33.719 51.5989 33.719C52.1606 33.719 52.6184 34.1768 52.6184 34.7385Z" fill="#0EACFF"/>
<path d="M34.3698 59.0397V66.1503C34.3698 66.217 34.4079 66.2598 34.484 66.2789C34.7886 66.3264 35.0742 66.3502 35.3407 66.3502C36.4545 66.3502 37.2731 66.0504 37.7966 65.4507C38.3202 64.8415 38.5819 63.842 38.5819 62.4522C38.5819 61.2053 38.3154 60.2914 37.7823 59.7108C37.2493 59.1301 36.4354 58.8398 35.3407 58.8398C35.0742 58.8398 34.7886 58.8636 34.484 58.9112C34.4079 58.9302 34.3698 58.9731 34.3698 59.0397ZM33.199 67.8495C32.961 67.8209 32.7659 67.721 32.6136 67.5496C32.4613 67.3688 32.3851 67.1594 32.3851 66.9214V58.2687C32.3851 58.0307 32.4613 57.826 32.6136 57.6547C32.7659 57.4738 32.961 57.3691 33.199 57.3406C33.8082 57.2739 34.4888 57.2406 35.2408 57.2406C36.9352 57.2406 38.2297 57.6833 39.1245 58.5685C40.0288 59.4538 40.481 60.7483 40.481 62.4522C40.481 64.2799 40.0288 65.6554 39.1245 66.5787C38.2297 67.4925 36.9352 67.9494 35.2408 67.9494C34.4888 67.9494 33.8082 67.9161 33.199 67.8495ZM42.8896 67.8066C42.6706 67.8066 42.4802 67.7257 42.3184 67.5639C42.1661 67.4021 42.09 67.2117 42.09 66.9928V58.1973C42.09 57.9783 42.1661 57.788 42.3184 57.6261C42.4802 57.4643 42.6706 57.3834 42.8896 57.3834H43.3465C43.5654 57.3834 43.7558 57.4643 43.9176 57.6261C44.0794 57.788 44.1603 57.9783 44.1603 58.1973V66.0218C44.1603 66.1075 44.1984 66.1503 44.2746 66.1503H47.9441C48.163 66.1503 48.3487 66.2313 48.501 66.3931C48.6628 66.5454 48.7437 66.731 48.7437 66.9499V66.9928C48.7437 67.2117 48.6628 67.4021 48.501 67.5639C48.3487 67.7257 48.163 67.8066 47.9441 67.8066H42.8896Z" fill="#0EACFF"/>
</svg>
