<svg width="129" height="81" viewBox="0 0 129 81" fill="none" xmlns="http://www.w3.org/2000/svg">
<rect x="0.883301" y="0.194336" width="127.334" height="80" rx="10" fill="#2F291E"/>
<g clip-path="url(#clip0_1355_2644)">
<path d="M44.3975 22.773C44.3975 17.7284 48.4911 13.6348 53.5357 13.6348C55.9604 13.6348 58.2843 14.5983 59.9973 16.3114L64.5507 20.8584L69.0977 16.3114C70.8171 14.5983 73.141 13.6348 75.5657 13.6348C80.6103 13.6348 84.7039 17.7284 84.7039 22.773V24.6435C84.7039 29.6944 80.6103 33.788 75.5657 33.788C73.141 33.788 70.8171 32.8244 69.104 31.1114L64.5507 26.5643L60.0036 31.1114C58.2843 32.8244 55.9604 33.788 53.5357 33.788C48.4911 33.788 44.3975 29.6944 44.3975 24.6498V22.7793V22.773ZM61.6977 23.7114L57.1507 19.1643C56.1934 18.207 54.8897 17.6654 53.5357 17.6654C50.7142 17.6654 48.4281 19.9515 48.4281 22.773V24.6435C48.4281 27.4649 50.7142 29.751 53.5357 29.751C54.8897 29.751 56.1934 29.2157 57.1507 28.2521L61.6977 23.7114ZM67.3973 23.7114L71.9444 28.2584C72.9017 29.2157 74.2053 29.7573 75.5594 29.7573C78.3808 29.7573 80.6669 27.4712 80.6669 24.6498V22.7793C80.6669 19.9578 78.3808 17.6717 75.5594 17.6717C74.2053 17.6717 72.9017 18.207 71.9444 19.1706L67.4036 23.7114H67.3973Z" fill="#FCD28D"/>
</g>
<path d="M41.9368 59.0397V66.1503C41.9368 66.217 41.9748 66.2598 42.051 66.2789C42.3556 66.3264 42.6412 66.3502 42.9077 66.3502C44.0214 66.3502 44.84 66.0504 45.3636 65.4507C45.8871 64.8415 46.1489 63.842 46.1489 62.4522C46.1489 61.2053 45.8824 60.2914 45.3493 59.7108C44.8162 59.1301 44.0024 58.8398 42.9077 58.8398C42.6412 58.8398 42.3556 58.8636 42.051 58.9112C41.9748 58.9302 41.9368 58.9731 41.9368 59.0397ZM40.7659 67.8495C40.528 67.8209 40.3328 67.721 40.1805 67.5496C40.0282 67.3688 39.9521 67.1594 39.9521 66.9214V58.2687C39.9521 58.0307 40.0282 57.826 40.1805 57.6547C40.3328 57.4738 40.528 57.3691 40.7659 57.3406C41.3751 57.2739 42.0557 57.2406 42.8077 57.2406C44.5021 57.2406 45.7967 57.6833 46.6915 58.5685C47.5958 59.4538 48.0479 60.7483 48.0479 62.4522C48.0479 64.2799 47.5958 65.6554 46.6915 66.5787C45.7967 67.4925 44.5021 67.9494 42.8077 67.9494C42.0557 67.9494 41.3751 67.9161 40.7659 67.8495ZM52.5412 61.567C52.0557 61.567 51.6797 61.705 51.4132 61.9811C51.1561 62.2476 50.9943 62.6807 50.9277 63.2804C50.9277 63.3565 50.9658 63.3946 51.0419 63.3946H53.8405C53.9166 63.3946 53.9547 63.3565 53.9547 63.2804C53.9166 62.1381 53.4455 61.567 52.5412 61.567ZM52.8981 67.9494C51.6511 67.9494 50.6897 67.6258 50.0139 66.9785C49.3475 66.3217 49.0144 65.3603 49.0144 64.0943C49.0144 62.8378 49.3142 61.8811 49.9139 61.2243C50.5136 60.5675 51.3798 60.2391 52.5126 60.2391C54.6258 60.2391 55.711 61.4385 55.7681 63.8372C55.7776 64.0657 55.6967 64.2561 55.5253 64.4084C55.354 64.5607 55.1541 64.6368 54.9256 64.6368H51.0276C50.942 64.6368 50.9087 64.6797 50.9277 64.7653C50.9943 65.4031 51.2037 65.8695 51.5559 66.1646C51.9177 66.4502 52.4412 66.593 53.1266 66.593C53.5549 66.593 54.0309 66.5216 54.5544 66.3788C54.7257 66.3312 54.8828 66.3598 55.0256 66.4645C55.1779 66.5692 55.254 66.712 55.254 66.8928C55.254 67.1118 55.1874 67.3069 55.0542 67.4782C54.9304 67.6401 54.7638 67.74 54.5544 67.7781C54.0213 67.8923 53.4692 67.9494 52.8981 67.9494ZM58.5559 67.0356L56.6569 61.1529C56.5903 60.9625 56.6141 60.7864 56.7283 60.6246C56.852 60.4628 57.0139 60.3819 57.2138 60.3819H57.6421C57.8801 60.3819 58.0943 60.458 58.2846 60.6103C58.475 60.7531 58.5988 60.9387 58.6559 61.1672L60.0837 66.6929C60.0837 66.7024 60.0885 66.7072 60.098 66.7072C60.1075 66.7072 60.1123 66.7024 60.1123 66.6929L61.5401 61.1672C61.5972 60.9387 61.721 60.7531 61.9114 60.6103C62.1017 60.458 62.3159 60.3819 62.5539 60.3819H62.9251C63.125 60.3819 63.2821 60.4628 63.3963 60.6246C63.5201 60.7864 63.5486 60.9625 63.482 61.1529L61.5829 67.0356C61.5163 67.2641 61.3831 67.4497 61.1832 67.5925C60.9928 67.7352 60.7738 67.8066 60.5263 67.8066H59.6125C59.3746 67.8066 59.1556 67.7352 58.9557 67.5925C58.7653 67.4497 58.6321 67.2641 58.5559 67.0356ZM71.7783 62.595C71.7783 60.1201 70.874 58.8826 69.0654 58.8826C67.2568 58.8826 66.3525 60.1201 66.3525 62.595C66.3525 65.0699 67.2568 66.3074 69.0654 66.3074C70.874 66.3074 71.7783 65.0699 71.7783 62.595ZM72.535 66.5359C71.6879 67.4782 70.5313 67.9494 69.0654 67.9494C67.5995 67.9494 66.4382 67.4782 65.5815 66.5359C64.7343 65.5935 64.3107 64.2799 64.3107 62.595C64.3107 60.9102 64.7343 59.5966 65.5815 58.6542C66.4382 57.7118 67.5995 57.2406 69.0654 57.2406C70.5313 57.2406 71.6879 57.7118 72.535 58.6542C73.3917 59.5966 73.8201 60.9102 73.8201 62.595C73.8201 64.2799 73.3917 65.5935 72.535 66.5359ZM77.1809 63.1233V65.0652C77.1809 65.4459 77.3427 65.7839 77.6663 66.079C77.9995 66.374 78.385 66.5216 78.8229 66.5216C79.3274 66.5216 79.7272 66.3169 80.0223 65.9076C80.3174 65.4983 80.4649 64.8938 80.4649 64.0943C80.4649 62.476 79.9176 61.6669 78.8229 61.6669C78.385 61.6669 77.9995 61.8145 77.6663 62.1096C77.3427 62.4046 77.1809 62.7426 77.1809 63.1233ZM76.11 70.9479C75.8911 70.9479 75.7007 70.867 75.5389 70.7052C75.377 70.5433 75.2961 70.353 75.2961 70.134V61.1957C75.2961 60.9768 75.377 60.7864 75.5389 60.6246C75.7007 60.4628 75.8911 60.3819 76.11 60.3819H76.2813C76.5098 60.3819 76.7049 60.4628 76.8668 60.6246C77.0286 60.7769 77.1142 60.9673 77.1238 61.1957V61.2957C77.1238 61.3052 77.1285 61.31 77.138 61.31C77.1476 61.31 77.1571 61.3052 77.1666 61.2957C77.5093 60.9149 77.852 60.6436 78.1946 60.4818C78.5373 60.32 78.9371 60.2391 79.394 60.2391C80.2888 60.2391 81.0027 60.577 81.5358 61.2529C82.0689 61.9192 82.3354 62.8663 82.3354 64.0943C82.3354 65.2841 82.0546 66.2265 81.493 66.9214C80.9409 67.6067 80.2412 67.9494 79.394 67.9494C78.5659 67.9494 77.8472 67.6496 77.238 67.0499C77.2285 67.0404 77.219 67.0356 77.2094 67.0356C77.1999 67.0356 77.1952 67.0404 77.1952 67.0499V70.134C77.1952 70.353 77.1142 70.5433 76.9524 70.7052C76.8001 70.867 76.6145 70.9479 76.3956 70.9479H76.11ZM86.4274 64.8082C85.4279 64.5892 84.714 64.2894 84.2856 63.9086C83.8668 63.5279 83.6574 63.0329 83.6574 62.4237C83.6574 61.7383 83.9096 61.2053 84.4141 60.8245C84.9281 60.4342 85.6849 60.2391 86.6844 60.2391C87.3126 60.2391 87.9361 60.2962 88.5549 60.4104C88.7643 60.4485 88.9309 60.5532 89.0546 60.7246C89.1879 60.8864 89.2545 61.0768 89.2545 61.2957C89.2545 61.4765 89.1831 61.6241 89.0403 61.7383C88.8975 61.843 88.7357 61.8716 88.5549 61.824C88.0218 61.6907 87.4602 61.6241 86.87 61.6241C86.0133 61.6241 85.5849 61.8621 85.5849 62.338C85.5849 62.5665 85.6659 62.7568 85.8277 62.9091C85.9895 63.0615 86.2656 63.1804 86.6558 63.2661C87.7505 63.485 88.4977 63.7801 88.8975 64.1514C89.3069 64.5226 89.5115 65.0652 89.5115 65.7791C89.5115 66.4645 89.2545 66.9975 88.7405 67.3783C88.2265 67.759 87.4792 67.9494 86.4988 67.9494C85.861 67.9494 85.2089 67.8733 84.5426 67.721C84.3332 67.6734 84.1619 67.5639 84.0286 67.3926C83.8953 67.2117 83.8287 67.0071 83.8287 66.7786C83.8287 66.5977 83.9001 66.4597 84.0429 66.3645C84.1952 66.2693 84.357 66.2455 84.5283 66.2931C85.1471 66.4645 85.7325 66.5501 86.2846 66.5501C87.1508 66.5501 87.5839 66.2931 87.5839 65.7791C87.5839 65.5316 87.4983 65.3365 87.3269 65.1937C87.1651 65.0509 86.8652 64.9224 86.4274 64.8082Z" fill="#FCD28D"/>
<defs>
<clipPath id="clip0_1355_2644">
<rect width="40.3064" height="32.2451" fill="white" transform="translate(44.3975 7.58203)"/>
</clipPath>
</defs>
</svg>
