<svg width="64" height="16" viewBox="0 0 64 16" fill="none" xmlns="http://www.w3.org/2000/svg">
<rect x="0.908691" y="0.845703" width="62.1194" height="14.9685" rx="7.48427" fill="#193342"/>
<path d="M18.5316 7.44385C18.3293 7.2818 17.8659 7.22104 17.5035 7.30206C17.4614 6.89694 17.2676 6.5425 16.9305 6.22854L16.7367 6.06649L16.6019 6.29943C16.4334 6.60327 16.3491 7.02865 16.3744 7.43376C16.3828 7.57551 16.4249 7.82871 16.5513 8.05153C16.4334 8.13255 16.189 8.23383 15.8688 8.23383H9.77635L9.75951 8.31485C9.7005 8.71993 9.7005 9.98589 10.3915 10.9581C10.9139 11.6974 11.6892 12.0722 12.7088 12.0722C14.9165 12.0722 16.5513 10.8467 17.3182 8.62878C17.6215 8.63891 18.2704 8.62878 18.599 7.86918C18.6074 7.84893 18.6243 7.80842 18.6833 7.65654L18.717 7.57551L18.5316 7.44385ZM14.6469 4.58789H13.72V5.60065H14.6469V4.58789ZM14.6469 5.8032H13.72V6.81596H14.6469V5.8032ZM13.5514 5.8032H12.6246V6.81596H13.5514V5.8032ZM12.456 5.8032H11.5291V6.81596H12.456V5.8032ZM11.3605 7.01852H10.4336V8.03127H11.3605L11.3605 7.01852ZM12.456 7.01852H11.5291V8.03127H12.456V7.01852ZM13.5514 7.01852H12.6246V8.03127H13.5514V7.01852ZM14.6469 7.01852H13.72V8.03127H14.6469V7.01852ZM15.7424 7.01852H14.8154V8.03127H15.7424V7.01852Z" fill="#0EACFF"/>
<path d="M28.3042 6.2752V10.3751C28.3042 10.4135 28.3262 10.4382 28.3701 10.4492C28.5457 10.4766 28.7104 10.4903 28.864 10.4903C29.5062 10.4903 29.9782 10.3175 30.2801 9.97168C30.5819 9.62042 30.7329 9.04413 30.7329 8.24282C30.7329 7.52383 30.5792 6.99694 30.2718 6.66214C29.9645 6.32734 29.4952 6.15995 28.864 6.15995C28.7104 6.15995 28.5457 6.17367 28.3701 6.20111C28.3262 6.21209 28.3042 6.23678 28.3042 6.2752ZM27.6291 11.3548C27.4919 11.3383 27.3794 11.2807 27.2916 11.1819C27.2038 11.0776 27.1599 10.9569 27.1599 10.8197V5.83064C27.1599 5.69343 27.2038 5.57542 27.2916 5.47663C27.3794 5.37235 27.4919 5.31198 27.6291 5.29551C27.9804 5.25709 28.3728 5.23788 28.8064 5.23788C29.7834 5.23788 30.5298 5.4931 31.0457 6.00352C31.5671 6.51395 31.8278 7.26038 31.8278 8.24282C31.8278 9.2966 31.5671 10.0897 31.0457 10.6221C30.5298 11.149 29.7834 11.4124 28.8064 11.4124C28.3728 11.4124 27.9804 11.3932 27.6291 11.3548ZM35.1924 8.11109C35.0332 7.88058 34.7918 7.76532 34.4679 7.76532C34.1441 7.76532 33.8999 7.88058 33.7352 8.11109C33.5761 8.33612 33.4965 8.69562 33.4965 9.18958C33.4965 9.68354 33.5761 10.0458 33.7352 10.2763C33.8999 10.5013 34.1441 10.6138 34.4679 10.6138C34.7918 10.6138 35.0332 10.5013 35.1924 10.2763C35.3571 10.0458 35.4394 9.68354 35.4394 9.18958C35.4394 8.69562 35.3571 8.33612 35.1924 8.11109ZM35.9992 10.8361C35.637 11.2203 35.1266 11.4124 34.4679 11.4124C33.8093 11.4124 33.2961 11.2203 32.9284 10.8361C32.5662 10.4464 32.3851 9.89759 32.3851 9.18958C32.3851 8.48157 32.5662 7.93546 32.9284 7.55127C33.2961 7.16159 33.8093 6.96675 34.4679 6.96675C35.1266 6.96675 35.637 7.16159 35.9992 7.55127C36.3669 7.93546 36.5508 8.48157 36.5508 9.18958C36.5508 9.89759 36.3669 10.4464 35.9992 10.8361ZM39.3169 11.4124C38.6363 11.4124 38.1121 11.2258 37.7444 10.8526C37.3767 10.4739 37.1928 9.91954 37.1928 9.18958C37.1928 8.47059 37.3685 7.92174 37.7197 7.54304C38.0765 7.15885 38.5814 6.96675 39.2345 6.96675C39.5254 6.96675 39.8053 6.98596 40.0743 7.02438C40.2005 7.04084 40.3048 7.09847 40.3871 7.19726C40.4694 7.29606 40.5106 7.41131 40.5106 7.54304C40.5106 7.65281 40.4667 7.74062 40.3789 7.80648C40.2966 7.87235 40.2005 7.8943 40.0907 7.87235C39.8767 7.82844 39.6379 7.80648 39.3745 7.80648C39.0287 7.80648 38.7708 7.91625 38.6006 8.13579C38.4305 8.35533 38.3454 8.70659 38.3454 9.18958C38.3454 9.68354 38.436 10.0375 38.6171 10.2516C38.7982 10.4656 39.0781 10.5727 39.4568 10.5727C39.7258 10.5727 39.959 10.548 40.1566 10.4986C40.2609 10.4711 40.3542 10.4903 40.4365 10.5562C40.5243 10.6221 40.5682 10.7071 40.5682 10.8114C40.5682 10.9431 40.5271 11.0584 40.4447 11.1572C40.3679 11.256 40.2664 11.3164 40.1401 11.3383C39.8602 11.3877 39.5858 11.4124 39.3169 11.4124ZM42.1721 11.3301C42.0458 11.3301 41.9361 11.2834 41.8428 11.1901C41.7495 11.0968 41.7028 10.987 41.7028 10.8608V5.62482C41.7028 5.49859 41.7495 5.38882 41.8428 5.29551C41.9361 5.20221 42.0458 5.15556 42.1721 5.15556H42.3367C42.463 5.15556 42.5727 5.20221 42.666 5.29551C42.7593 5.38882 42.806 5.49859 42.806 5.62482V8.79441C42.806 8.7999 42.8087 8.80264 42.8142 8.80264H42.8224L44.0738 7.39485C44.2769 7.16433 44.5349 7.04908 44.8477 7.04908H45.1935C45.2813 7.04908 45.3417 7.09024 45.3746 7.17257C45.413 7.25489 45.402 7.32899 45.3417 7.39485L43.8351 9.05785C43.8076 9.09078 43.8076 9.12646 43.8351 9.16488L45.3581 10.9761C45.4185 11.0474 45.4267 11.1243 45.3828 11.2066C45.3444 11.2889 45.2813 11.3301 45.1935 11.3301H44.8477C44.5349 11.3301 44.2796 11.2093 44.0821 10.9678L42.8224 9.44479C42.8224 9.4393 42.8197 9.43656 42.8142 9.43656C42.8087 9.43656 42.806 9.4393 42.806 9.44479V10.8608C42.806 10.987 42.7593 11.0968 42.666 11.1901C42.5727 11.2834 42.463 11.3301 42.3367 11.3301H42.1721ZM47.7163 7.73239C47.4364 7.73239 47.2196 7.81197 47.0659 7.97114C46.9177 8.12482 46.8244 8.37454 46.786 8.72031C46.786 8.76422 46.8079 8.78618 46.8518 8.78618H48.4654C48.5094 8.78618 48.5313 8.76422 48.5313 8.72031C48.5094 8.0617 48.2377 7.73239 47.7163 7.73239ZM47.9221 11.4124C47.2031 11.4124 46.6488 11.2258 46.2591 10.8526C45.8749 10.4739 45.6828 9.91954 45.6828 9.18958C45.6828 8.4651 45.8557 7.91351 46.2015 7.53481C46.5472 7.1561 47.0467 6.96675 47.6998 6.96675C48.9182 6.96675 49.5439 7.6583 49.5769 9.04139C49.5824 9.17311 49.5357 9.28288 49.4369 9.3707C49.3381 9.45851 49.2229 9.50242 49.0911 9.50242H46.8436C46.7942 9.50242 46.775 9.52712 46.786 9.57651C46.8244 9.94424 46.9451 10.2132 47.1482 10.3833C47.3568 10.548 47.6586 10.6303 48.0538 10.6303C48.3008 10.6303 48.5752 10.5891 48.8771 10.5068C48.9759 10.4794 49.0664 10.4958 49.1488 10.5562C49.2366 10.6166 49.2805 10.6989 49.2805 10.8032C49.2805 10.9294 49.2421 11.0419 49.1652 11.1407C49.0939 11.234 48.9978 11.2917 48.8771 11.3136C48.5697 11.3795 48.2514 11.4124 47.9221 11.4124ZM50.9344 11.3301C50.8082 11.3301 50.6984 11.2834 50.6051 11.1901C50.5118 11.0968 50.4652 10.987 50.4652 10.8608V7.51834C50.4652 7.39211 50.5118 7.28234 50.6051 7.18903C50.6984 7.09573 50.8082 7.04908 50.9344 7.04908H51.0991C51.2253 7.04908 51.3351 7.09573 51.4284 7.18903C51.5217 7.28234 51.5683 7.39211 51.5683 7.51834V7.86411C51.5683 7.8696 51.5711 7.87235 51.5766 7.87235C51.5875 7.87235 51.593 7.8696 51.593 7.86411C51.7522 7.64457 51.9608 7.4662 52.2187 7.32899C52.4767 7.18629 52.7593 7.09847 53.0667 7.06554C53.1819 7.05456 53.2807 7.09298 53.3631 7.1808C53.4454 7.26313 53.4866 7.36192 53.4866 7.47718C53.4866 7.59243 53.4454 7.69123 53.3631 7.77355C53.2807 7.85588 53.1819 7.90253 53.0667 7.91351C52.0952 7.99035 51.6095 8.48431 51.6095 9.39539V10.8608C51.6095 10.987 51.5628 11.0968 51.4695 11.1901C51.3762 11.2834 51.2665 11.3301 51.1402 11.3301H50.9344Z" fill="#0EACFF"/>
</svg>
