<svg width="70" height="16" viewBox="0 0 70 16" fill="none" xmlns="http://www.w3.org/2000/svg">
<rect x="0.75293" y="0.939453" width="68.6682" height="14.9685" rx="7.48427" fill="#19271F"/>
<g clip-path="url(#clip0_1343_3229)">
<path d="M15.8451 3.93359C13.3658 3.93359 11.3545 5.94487 11.3545 8.42416C11.3545 10.9034 13.3658 12.9147 15.8451 12.9147C18.3243 12.9147 20.3356 10.9034 20.3356 8.42416C20.3356 5.94487 18.3243 3.93359 15.8451 3.93359ZM15.6111 12.0238V9.20709H14.0453L16.2951 4.82451V7.64122H17.8024L15.6111 12.0238Z" fill="#21A157"/>
</g>
<path d="M29.1195 11.4238C28.9933 11.4238 28.8835 11.3772 28.7902 11.2839C28.7024 11.1906 28.6585 11.0808 28.6585 10.9546V5.88322C28.6585 5.75699 28.7024 5.64722 28.7902 5.55392C28.8835 5.46061 28.9933 5.41396 29.1195 5.41396H31.8363C31.9626 5.41396 32.0723 5.46061 32.1656 5.55392C32.259 5.64722 32.3056 5.75699 32.3056 5.88322C32.3056 6.00946 32.259 6.11923 32.1656 6.21253C32.0723 6.30035 31.9626 6.34425 31.8363 6.34425H29.877C29.8331 6.34425 29.8111 6.36895 29.8111 6.41835V7.85907C29.8111 7.90298 29.8331 7.92493 29.877 7.92493H31.6964C31.8171 7.92493 31.9214 7.96884 32.0092 8.05666C32.097 8.13898 32.1409 8.24326 32.1409 8.3695C32.1409 8.49573 32.097 8.60276 32.0092 8.69057C31.9214 8.7729 31.8171 8.81406 31.6964 8.81406H29.877C29.8331 8.81406 29.8111 8.83602 29.8111 8.87993V10.9546C29.8111 11.0808 29.7644 11.1906 29.6711 11.2839C29.5778 11.3772 29.4681 11.4238 29.3418 11.4238H29.1195ZM35.1678 9.36565C34.383 9.36565 33.9905 9.60715 33.9905 10.0901C33.9905 10.2658 34.0399 10.4085 34.1387 10.5182C34.243 10.628 34.3747 10.6829 34.5339 10.6829C34.8467 10.6829 35.0992 10.5868 35.2913 10.3947C35.4834 10.1972 35.5795 9.92822 35.5795 9.58794V9.43975C35.5795 9.39035 35.5548 9.36565 35.5054 9.36565H35.1678ZM34.2375 11.5062C33.8643 11.5062 33.5542 11.3854 33.3072 11.1439C33.0657 10.8969 32.945 10.5786 32.945 10.1889C32.945 9.71143 33.1261 9.34096 33.4883 9.07751C33.8561 8.81406 34.4159 8.68234 35.1678 8.68234H35.5054C35.5548 8.68234 35.5795 8.65764 35.5795 8.60825V8.54238C35.5795 8.28992 35.5191 8.11428 35.3983 8.01549C35.2776 7.91121 35.0635 7.85907 34.7562 7.85907C34.4378 7.85907 34.0482 7.9167 33.5871 8.03196C33.4883 8.0594 33.3978 8.04293 33.3155 7.98256C33.2331 7.9167 33.192 7.83163 33.192 7.72735C33.192 7.60111 33.2304 7.4886 33.3072 7.38981C33.3841 7.28553 33.4829 7.22241 33.6036 7.20046C34.0207 7.10715 34.4132 7.0605 34.7809 7.0605C35.4834 7.0605 35.9746 7.18673 36.2545 7.4392C36.5344 7.69167 36.6744 8.13349 36.6744 8.76467V10.9546C36.6744 11.0808 36.6277 11.1906 36.5344 11.2839C36.4466 11.3772 36.3396 11.4238 36.2134 11.4238H36.1228C35.9911 11.4238 35.8786 11.3799 35.7853 11.2921C35.692 11.1988 35.6426 11.0863 35.6371 10.9546V10.8393C35.6371 10.8338 35.6343 10.8311 35.6288 10.8311C35.6179 10.8311 35.6124 10.8338 35.6124 10.8393C35.2776 11.2839 34.8193 11.5062 34.2375 11.5062ZM39.1589 9.69496C38.5826 9.56873 38.1709 9.39584 37.924 9.1763C37.6825 8.95676 37.5617 8.67136 37.5617 8.3201C37.5617 7.92493 37.7072 7.61758 37.9981 7.39804C38.2944 7.17301 38.7308 7.0605 39.3071 7.0605C39.6693 7.0605 40.0288 7.09343 40.3855 7.15929C40.5063 7.18125 40.6023 7.24162 40.6737 7.34041C40.7505 7.43371 40.7889 7.54348 40.7889 7.66972C40.7889 7.774 40.7478 7.85907 40.6655 7.92493C40.5831 7.98531 40.4898 8.00177 40.3855 7.97433C40.0782 7.89749 39.7544 7.85907 39.4141 7.85907C38.9201 7.85907 38.6731 7.99628 38.6731 8.27071C38.6731 8.40243 38.7198 8.5122 38.8131 8.60001C38.9064 8.68783 39.0656 8.75643 39.2906 8.80583C39.9218 8.93207 40.3526 9.10221 40.5831 9.31626C40.8191 9.53031 40.9371 9.84315 40.9371 10.2548C40.9371 10.65 40.7889 10.9573 40.4926 11.1768C40.1962 11.3964 39.7653 11.5062 39.2 11.5062C38.8323 11.5062 38.4563 11.4622 38.0722 11.3744C37.9514 11.347 37.8526 11.2839 37.7758 11.1851C37.6989 11.0808 37.6605 10.9628 37.6605 10.8311C37.6605 10.7268 37.7017 10.6472 37.784 10.5923C37.8718 10.5374 37.9651 10.5237 38.0639 10.5512C38.4207 10.65 38.7582 10.6994 39.0765 10.6994C39.576 10.6994 39.8257 10.5512 39.8257 10.2548C39.8257 10.1121 39.7763 9.99957 39.6775 9.91724C39.5842 9.83492 39.4113 9.76082 39.1589 9.69496ZM41.9748 8.10605C41.8651 8.10605 41.7718 8.06763 41.6949 7.99079C41.6181 7.90847 41.5797 7.81242 41.5797 7.70265C41.5797 7.59288 41.6181 7.49958 41.6949 7.42274C41.7718 7.3459 41.8651 7.30748 41.9748 7.30748H42.37C42.4194 7.30748 42.4441 7.28278 42.4441 7.23339V6.21253C42.4441 6.0863 42.488 5.97653 42.5758 5.88322C42.6691 5.78992 42.7789 5.74327 42.9051 5.74327H43.0698C43.196 5.74327 43.3058 5.78992 43.3991 5.88322C43.4924 5.97653 43.5391 6.0863 43.5391 6.21253V7.23339C43.5391 7.28278 43.5637 7.30748 43.6131 7.30748H44.5517C44.6614 7.30748 44.7547 7.3459 44.8316 7.42274C44.9139 7.49958 44.9551 7.59288 44.9551 7.70265C44.9551 7.81242 44.9139 7.90847 44.8316 7.99079C44.7547 8.06763 44.6614 8.10605 44.5517 8.10605H43.6131C43.5637 8.10605 43.5391 8.12801 43.5391 8.17191V9.83492C43.5391 10.1917 43.5775 10.4222 43.6543 10.5265C43.7311 10.6307 43.8903 10.6829 44.1318 10.6829C44.2635 10.6829 44.3623 10.6774 44.4282 10.6664C44.538 10.6554 44.634 10.6801 44.7163 10.7405C44.7987 10.8009 44.8398 10.8832 44.8398 10.9875C44.8398 11.1082 44.7987 11.218 44.7163 11.3168C44.6395 11.4101 44.5434 11.4622 44.4282 11.4732C44.1867 11.4952 44.0056 11.5062 43.8848 11.5062C43.3524 11.5062 42.9792 11.3936 42.7652 11.1686C42.5511 10.9381 42.4441 10.5292 42.4441 9.94194V8.17191C42.4441 8.12801 42.4194 8.10605 42.37 8.10605H41.9748ZM48.2435 6.43481L47.519 9.01988C47.5136 9.03635 47.5163 9.05281 47.5273 9.06928C47.5383 9.08574 47.552 9.09398 47.5684 9.09398H48.9351C48.9515 9.09398 48.9653 9.08574 48.9762 9.06928C48.9872 9.05281 48.99 9.03635 48.9845 9.01988L48.26 6.43481C48.26 6.42933 48.2572 6.42658 48.2518 6.42658C48.2463 6.42658 48.2435 6.42933 48.2435 6.43481ZM46.1113 11.4238C45.996 11.4238 45.9054 11.3772 45.8396 11.2839C45.7737 11.1906 45.76 11.089 45.7984 10.9793L47.5026 5.85853C47.552 5.7268 47.6316 5.61978 47.7413 5.53745C47.8566 5.45512 47.9828 5.41396 48.12 5.41396H48.4164C48.5591 5.41396 48.6853 5.45512 48.7951 5.53745C48.9104 5.61978 48.99 5.7268 49.0339 5.85853L50.738 10.9793C50.7764 11.089 50.7627 11.1906 50.6969 11.2839C50.631 11.3772 50.5404 11.4238 50.4252 11.4238H50.1288C49.9971 11.4238 49.8736 11.3827 49.7583 11.3003C49.6486 11.2125 49.5745 11.1028 49.5361 10.971L49.2726 10.0407C49.2671 9.99683 49.2369 9.97487 49.1821 9.97487H47.3215C47.2721 9.97487 47.2419 9.99683 47.2309 10.0407L46.9675 10.971C46.9345 11.1028 46.8604 11.2125 46.7452 11.3003C46.6354 11.3827 46.5119 11.4238 46.3747 11.4238H46.1113ZM52.5601 8.7235V9.84315C52.5601 10.0627 52.6534 10.2575 52.84 10.4277C53.0321 10.5978 53.2544 10.6829 53.5069 10.6829C53.7977 10.6829 54.0283 10.5649 54.1984 10.3289C54.3685 10.0929 54.4536 9.74436 54.4536 9.28333C54.4536 8.35029 54.138 7.88377 53.5069 7.88377C53.2544 7.88377 53.0321 7.96884 52.84 8.13898C52.6534 8.30912 52.5601 8.50397 52.5601 8.7235ZM51.9426 13.235C51.8164 13.235 51.7066 13.1884 51.6133 13.0951C51.52 13.0018 51.4734 12.892 51.4734 12.7658V7.61209C51.4734 7.48586 51.52 7.37609 51.6133 7.28278C51.7066 7.18948 51.8164 7.14283 51.9426 7.14283H52.0414C52.1732 7.14283 52.2857 7.18948 52.379 7.28278C52.4723 7.3706 52.5217 7.48037 52.5272 7.61209V7.66972C52.5272 7.67521 52.5299 7.67795 52.5354 7.67795C52.5409 7.67795 52.5464 7.67521 52.5519 7.66972C52.7494 7.45018 52.947 7.29376 53.1446 7.20046C53.3422 7.10715 53.5727 7.0605 53.8362 7.0605C54.3521 7.0605 54.7637 7.25534 55.0711 7.64502C55.3784 8.02921 55.5321 8.57532 55.5321 9.28333C55.5321 9.96939 55.3702 10.5127 55.0464 10.9134C54.728 11.3086 54.3246 11.5062 53.8362 11.5062C53.3587 11.5062 52.9443 11.3333 52.593 10.9875C52.5875 10.982 52.582 10.9793 52.5766 10.9793C52.5711 10.9793 52.5683 10.982 52.5683 10.9875V12.7658C52.5683 12.892 52.5217 13.0018 52.4284 13.0951C52.3406 13.1884 52.2335 13.235 52.1073 13.235H51.9426ZM57.1341 11.4238C57.0078 11.4238 56.8981 11.3772 56.8048 11.2839C56.7115 11.1906 56.6648 11.0808 56.6648 10.9546V7.61209C56.6648 7.48586 56.7115 7.37609 56.8048 7.28278C56.8981 7.18948 57.0078 7.14283 57.1341 7.14283H57.3481C57.4743 7.14283 57.5841 7.18948 57.6774 7.28278C57.7707 7.37609 57.8174 7.48586 57.8174 7.61209V10.9546C57.8174 11.0808 57.7707 11.1906 57.6774 11.2839C57.5841 11.3772 57.4743 11.4238 57.3481 11.4238H57.1341ZM57.1341 6.23723C57.0078 6.23723 56.8981 6.19058 56.8048 6.09727C56.7115 6.00397 56.6648 5.8942 56.6648 5.76797V5.71857C56.6648 5.59234 56.7115 5.48257 56.8048 5.38926C56.8981 5.29596 57.0078 5.24931 57.1341 5.24931H57.3481C57.4743 5.24931 57.5841 5.29596 57.6774 5.38926C57.7707 5.48257 57.8174 5.59234 57.8174 5.71857V5.76797C57.8174 5.8942 57.7707 6.00397 57.6774 6.09727C57.5841 6.19058 57.4743 6.23723 57.3481 6.23723H57.1341Z" fill="#21A157"/>
<defs>
<clipPath id="clip0_1343_3229">
<rect width="8.98112" height="8.98112" fill="white" transform="translate(11.3545 3.93359)"/>
</clipPath>
</defs>
</svg>
