<svg width="63" height="16" viewBox="0 0 63 16" fill="none" xmlns="http://www.w3.org/2000/svg">
<rect x="0.078125" y="0.266602" width="62.1194" height="14.9685" rx="7.48427" fill="#271735"/>
<path fill-rule="evenodd" clip-rule="evenodd" d="M14.148 6.78394C14.0211 6.78394 13.8954 6.80895 13.7781 6.85752C13.6608 6.9061 13.5543 6.9773 13.4645 7.06705C13.3748 7.15681 13.3036 7.26337 13.255 7.38064C13.2064 7.49791 13.1814 7.6236 13.1814 7.75054C13.1814 7.87747 13.2064 8.00317 13.255 8.12044C13.3036 8.23771 13.3748 8.34427 13.4645 8.43402C13.5543 8.52378 13.6608 8.59498 13.7781 8.64355C13.8954 8.69213 14.0211 8.71713 14.148 8.71713H15.1146V6.78394H14.148ZM15.1146 6.22262H14.148C13.8916 6.22262 13.6457 6.12077 13.4644 5.93946C13.2831 5.75815 13.1812 5.51225 13.1812 5.25584C13.1812 4.99944 13.2831 4.75353 13.4644 4.57223C13.6457 4.39092 13.8916 4.28906 14.148 4.28906H15.1146V6.22262ZM15.6759 4.28906V6.22262H16.6425C16.8956 6.21764 17.1367 6.1136 17.3139 5.93283C17.4912 5.75207 17.5905 5.509 17.5905 5.25584C17.5905 5.00268 17.4912 4.75962 17.3139 4.57885C17.1367 4.39809 16.8956 4.29404 16.6425 4.28906H15.6759ZM16.6425 6.78357C16.3888 6.78354 16.1452 6.88327 15.9644 7.06123C15.7836 7.2392 15.6799 7.48113 15.6759 7.73482V7.76588C15.679 7.95636 15.7383 8.14167 15.8464 8.29854C15.9545 8.45542 16.1065 8.57686 16.2834 8.64761C16.4602 8.71837 16.6541 8.73528 16.8405 8.69623C17.027 8.65718 17.1977 8.5639 17.3314 8.42811C17.465 8.29233 17.5555 8.12009 17.5915 7.93303C17.6276 7.74597 17.6075 7.55243 17.5339 7.37673C17.4603 7.20102 17.3365 7.05097 17.1779 6.94544C17.0193 6.83991 16.833 6.7836 16.6425 6.78357ZM14.148 9.27845C13.9567 9.27838 13.7698 9.33503 13.6107 9.44123C13.4516 9.54744 13.3276 9.69843 13.2544 9.87512C13.1811 10.0518 13.1619 10.2462 13.1992 10.4338C13.2365 10.6214 13.3285 10.7938 13.4638 10.929C13.599 11.0643 13.7713 11.1564 13.9588 11.1938C14.1464 11.2311 14.3409 11.212 14.5176 11.1388C14.6943 11.0656 14.8453 10.9417 14.9516 10.7827C15.0579 10.6237 15.1146 10.4367 15.1146 10.2454V9.27845H14.148Z" fill="#7B42BC"/>
<path d="M28.5671 10.751C28.4409 10.751 28.3311 10.7043 28.2378 10.611C28.15 10.5177 28.1061 10.4079 28.1061 10.2817V5.21037C28.1061 5.08414 28.15 4.97437 28.2378 4.88106C28.3311 4.78776 28.4409 4.74111 28.5671 4.74111H31.2839C31.4101 4.74111 31.5199 4.78776 31.6132 4.88106C31.7065 4.97437 31.7532 5.08414 31.7532 5.21037C31.7532 5.33661 31.7065 5.44638 31.6132 5.53968C31.5199 5.6275 31.4101 5.6714 31.2839 5.6714H29.3245C29.2806 5.6714 29.2587 5.6961 29.2587 5.7455V7.18622C29.2587 7.23013 29.2806 7.25208 29.3245 7.25208H31.144C31.2647 7.25208 31.369 7.29599 31.4568 7.3838C31.5446 7.46613 31.5885 7.57041 31.5885 7.69665C31.5885 7.82288 31.5446 7.92991 31.4568 8.01772C31.369 8.10005 31.2647 8.14121 31.144 8.14121H29.3245C29.2806 8.14121 29.2587 8.16317 29.2587 8.20707V10.2817C29.2587 10.4079 29.212 10.5177 29.1187 10.611C29.0254 10.7043 28.9156 10.751 28.7894 10.751H28.5671ZM33.5639 10.751C33.4376 10.751 33.3279 10.7043 33.2345 10.611C33.1412 10.5177 33.0946 10.4079 33.0946 10.2817V6.93924C33.0946 6.813 33.1412 6.70323 33.2345 6.60993C33.3279 6.51663 33.4376 6.46997 33.5639 6.46997H33.7779C33.9041 6.46997 34.0139 6.51663 34.1072 6.60993C34.2005 6.70323 34.2472 6.813 34.2472 6.93924V10.2817C34.2472 10.4079 34.2005 10.5177 34.1072 10.611C34.0139 10.7043 33.9041 10.751 33.7779 10.751H33.5639ZM33.5639 5.56438C33.4376 5.56438 33.3279 5.51773 33.2345 5.42442C33.1412 5.33112 33.0946 5.22135 33.0946 5.09511V5.04572C33.0946 4.91948 33.1412 4.80971 33.2345 4.71641C33.3279 4.62311 33.4376 4.57645 33.5639 4.57645H33.7779C33.9041 4.57645 34.0139 4.62311 34.1072 4.71641C34.2005 4.80971 34.2472 4.91948 34.2472 5.04572V5.09511C34.2472 5.22135 34.2005 5.33112 34.1072 5.42442C34.0139 5.51773 33.9041 5.56438 33.7779 5.56438H33.5639ZM37.3747 7.21092C36.771 7.21092 36.4691 7.64999 36.4691 8.52815C36.4691 8.98369 36.5487 9.32398 36.7078 9.549C36.8725 9.77403 37.0948 9.88654 37.3747 9.88654C37.6217 9.88654 37.833 9.79873 38.0086 9.6231C38.1897 9.44747 38.2803 9.24165 38.2803 9.00564V8.11651C38.2803 7.86404 38.1897 7.64999 38.0086 7.47436C37.833 7.29873 37.6217 7.21092 37.3747 7.21092ZM37.0289 10.7098C36.5459 10.7098 36.1508 10.5177 35.8434 10.1335C35.5361 9.74384 35.3824 9.20872 35.3824 8.52815C35.3824 7.84758 35.5278 7.32069 35.8187 6.94747C36.1151 6.57426 36.5185 6.38765 37.0289 6.38765C37.2869 6.38765 37.5146 6.4343 37.7122 6.5276C37.9098 6.62091 38.1047 6.77733 38.2968 6.99687C38.3022 7.00236 38.3077 7.0051 38.3132 7.0051C38.3187 7.0051 38.3215 7.00236 38.3215 6.99687V6.93924C38.3269 6.80752 38.3763 6.69775 38.4696 6.60993C38.5629 6.51663 38.6755 6.46997 38.8072 6.46997H38.8977C39.024 6.46997 39.131 6.51663 39.2188 6.60993C39.3121 6.70323 39.3588 6.813 39.3588 6.93924V10.4217C39.3588 11.9036 38.6178 12.6445 37.1359 12.6445C36.8725 12.6445 36.5953 12.6225 36.3044 12.5786C36.1727 12.5567 36.0629 12.4908 35.9751 12.3811C35.8928 12.2768 35.8516 12.156 35.8516 12.0188C35.8516 11.909 35.8956 11.8212 35.9834 11.7554C36.0767 11.695 36.1782 11.6785 36.288 11.706C36.5514 11.7718 36.8258 11.8048 37.1112 11.8048C37.5174 11.8048 37.8138 11.6977 38.0004 11.4837C38.187 11.2751 38.2803 10.9294 38.2803 10.4464V10.1912C38.2803 10.1857 38.2775 10.1829 38.2721 10.1829C38.2666 10.1829 38.2611 10.1857 38.2556 10.1912C37.9263 10.5369 37.5174 10.7098 37.0289 10.7098ZM40.9544 10.751C40.8282 10.751 40.7184 10.7043 40.6251 10.611C40.5373 10.5177 40.4934 10.4079 40.4934 10.2817V6.93924C40.4934 6.813 40.5373 6.70323 40.6251 6.60993C40.7184 6.51663 40.8282 6.46997 40.9544 6.46997H41.0697C41.1959 6.46997 41.303 6.51388 41.3908 6.6017C41.4841 6.68951 41.5335 6.79654 41.539 6.92277V6.9804C41.539 6.98589 41.5417 6.98863 41.5472 6.98863C41.5582 6.98863 41.5637 6.98589 41.5637 6.9804C41.8875 6.58523 42.2525 6.38765 42.6586 6.38765C42.9056 6.38765 43.1032 6.4343 43.2514 6.5276C43.405 6.62091 43.5395 6.78556 43.6548 7.02157C43.6548 7.02705 43.6602 7.0298 43.6712 7.0298C43.6767 7.0298 43.6822 7.02705 43.6877 7.02157C44.0335 6.59895 44.4231 6.38765 44.8567 6.38765C45.3123 6.38765 45.6388 6.51114 45.8364 6.75812C46.0395 7.0051 46.141 7.43046 46.141 8.03419V10.2817C46.141 10.4079 46.0944 10.5177 46.0011 10.611C45.9133 10.7043 45.8062 10.751 45.68 10.751H45.54C45.4138 10.751 45.304 10.7043 45.2107 10.611C45.1174 10.5177 45.0708 10.4079 45.0708 10.2817V8.19884C45.0708 7.79818 45.0324 7.53474 44.9555 7.4085C44.8787 7.28227 44.7305 7.21915 44.511 7.21915C44.3683 7.21915 44.2256 7.28501 44.0829 7.41673C43.9402 7.54846 43.8688 7.68018 43.8688 7.8119V10.2817C43.8688 10.4079 43.8222 10.5177 43.7289 10.611C43.6355 10.7043 43.5258 10.751 43.3995 10.751H43.2596C43.1334 10.751 43.0236 10.7043 42.9303 10.611C42.8425 10.5177 42.7986 10.4079 42.7986 10.2817V8.19884C42.7986 7.80367 42.7574 7.54297 42.6751 7.41673C42.5982 7.28501 42.45 7.21915 42.2305 7.21915C42.0878 7.21915 41.9451 7.28501 41.8024 7.41673C41.6597 7.54846 41.5884 7.68018 41.5884 7.8119V10.2817C41.5884 10.4079 41.5417 10.5177 41.4484 10.611C41.3551 10.7043 41.2453 10.751 41.1191 10.751H40.9544ZM49.2558 8.6928C48.4709 8.6928 48.0785 8.9343 48.0785 9.41728C48.0785 9.59291 48.1279 9.73561 48.2267 9.84538C48.331 9.95515 48.4627 10.01 48.6218 10.01C48.9347 10.01 49.1872 9.91399 49.3792 9.72189C49.5713 9.5243 49.6674 9.25537 49.6674 8.91509V8.7669C49.6674 8.7175 49.6427 8.6928 49.5933 8.6928H49.2558ZM48.3255 10.8333C47.9522 10.8333 47.6422 10.7126 47.3952 10.4711C47.1537 10.2241 47.0329 9.90575 47.0329 9.51607C47.0329 9.03858 47.2141 8.6681 47.5763 8.40466C47.944 8.14121 48.5038 8.00949 49.2558 8.00949H49.5933C49.6427 8.00949 49.6674 7.98479 49.6674 7.93539V7.86953C49.6674 7.61706 49.607 7.44143 49.4863 7.34264C49.3655 7.23836 49.1515 7.18622 48.8441 7.18622C48.5258 7.18622 48.1361 7.24385 47.6751 7.35911C47.5763 7.38655 47.4857 7.37008 47.4034 7.30971C47.3211 7.24385 47.2799 7.15878 47.2799 7.0545C47.2799 6.92826 47.3183 6.81575 47.3952 6.71696C47.472 6.61267 47.5708 6.54956 47.6915 6.5276C48.1087 6.4343 48.5011 6.38765 48.8688 6.38765C49.5713 6.38765 50.0626 6.51388 50.3425 6.76635C50.6224 7.01882 50.7623 7.46064 50.7623 8.09182V10.2817C50.7623 10.4079 50.7157 10.5177 50.6224 10.611C50.5346 10.7043 50.4275 10.751 50.3013 10.751H50.2108C50.079 10.751 49.9665 10.7071 49.8732 10.6193C49.7799 10.5259 49.7305 10.4134 49.725 10.2817V10.1665C49.725 10.161 49.7223 10.1582 49.7168 10.1582C49.7058 10.1582 49.7003 10.161 49.7003 10.1665C49.3655 10.611 48.9072 10.8333 48.3255 10.8333Z" fill="#7B42BC"/>
</svg>
