<svg width="63" height="16" viewBox="0 0 63 16" fill="none" xmlns="http://www.w3.org/2000/svg">
<rect x="0.701172" y="0.845703" width="62.1194" height="14.9685" rx="7.48427" fill="#241F16"/>
<g clip-path="url(#clip0_1343_3251)">
<path d="M7.25391 11.086L8.35936 4.01243C8.36598 3.97016 8.38571 3.93103 8.41577 3.90058C8.44583 3.87013 8.4847 3.84989 8.52689 3.84273C8.56907 3.83556 8.61244 3.84183 8.65087 3.86065C8.6893 3.87947 8.72085 3.90988 8.74105 3.9476L9.88432 6.07991L10.34 5.21225C10.3573 5.17934 10.3833 5.15179 10.4151 5.13256C10.447 5.11334 10.4835 5.10318 10.5207 5.10318C10.5578 5.10318 10.5943 5.11334 10.6262 5.13256C10.658 5.15179 10.684 5.17934 10.7013 5.21225L13.7865 11.086H7.25391Z" fill="#FFA000"/>
<path d="M11.0729 8.33084L9.88376 6.0791L7.25391 11.0863L11.0729 8.33084Z" fill="#F57C00"/>
<path d="M13.7865 11.0871L12.9398 5.84777C12.9335 5.81083 12.9172 5.77633 12.8927 5.74804C12.8681 5.71975 12.8363 5.69876 12.8006 5.68737C12.7649 5.676 12.7268 5.67467 12.6904 5.6835C12.654 5.69234 12.6208 5.71101 12.5943 5.73747L7.25391 11.0871L10.2089 12.7442C10.3002 12.7952 10.4029 12.8219 10.5075 12.8219C10.612 12.8219 10.7148 12.7952 10.806 12.7442L13.7865 11.0871Z" fill="#FFCA28"/>
<path d="M12.9405 5.8467C12.9342 5.80976 12.9179 5.77526 12.8933 5.74697C12.8688 5.71868 12.8369 5.69769 12.8012 5.6863C12.7656 5.67492 12.7275 5.67358 12.6911 5.6824C12.6547 5.69122 12.6215 5.70988 12.595 5.73633L11.535 6.79912L10.7015 5.21226C10.6842 5.17935 10.6582 5.1518 10.6263 5.13258C10.5945 5.11335 10.558 5.10319 10.5208 5.10319C10.4836 5.10319 10.4471 5.11335 10.4153 5.13258C10.3834 5.1518 10.3575 5.17935 10.3401 5.21226L9.88448 6.07985L8.74121 3.94761C8.72098 3.90984 8.68938 3.87939 8.65088 3.86058C8.61239 3.84177 8.56895 3.83554 8.52672 3.84278C8.48452 3.85002 8.44566 3.87035 8.41564 3.90088C8.38562 3.93141 8.36596 3.97061 8.35944 4.01293L7.25456 11.0861H7.25098L7.25448 11.0901L7.2836 11.1044L12.5934 5.78846C12.6199 5.76186 12.6532 5.74308 12.6897 5.73417C12.7261 5.72526 12.7643 5.72658 12.8001 5.73797C12.8358 5.74936 12.8678 5.77039 12.8924 5.79874C12.9169 5.82709 12.9332 5.86168 12.9395 5.89869L13.779 11.0911L13.7871 11.086L12.9405 5.8467ZM7.26424 11.0764L8.35994 4.06296C8.36645 4.02062 8.38611 3.9814 8.41614 3.95085C8.44617 3.9203 8.48505 3.89997 8.52728 3.89274C8.56952 3.8855 8.61296 3.89174 8.65146 3.91057C8.68995 3.92939 8.72155 3.95985 8.74177 3.99764L9.8849 6.12995L10.3406 5.26229C10.3579 5.22938 10.3839 5.20182 10.4158 5.1826C10.4476 5.16338 10.4841 5.15322 10.5213 5.15322C10.5585 5.15322 10.595 5.16338 10.6268 5.1826C10.6587 5.20182 10.6846 5.22938 10.702 5.26229L11.5186 6.81539L7.2641 11.0764H7.26424Z" fill="white" fill-opacity="0.2"/>
<path opacity="0.2" d="M10.8062 12.6931C10.7149 12.744 10.6121 12.7707 10.5076 12.7707C10.4031 12.7707 10.3003 12.744 10.209 12.6931L7.26106 11.0407L7.25391 11.0861L10.2089 12.7427C10.3002 12.7936 10.4029 12.8204 10.5075 12.8204C10.612 12.8204 10.7148 12.7936 10.806 12.7427L13.7866 11.0861L13.7789 11.0391L10.806 12.6932L10.8062 12.6931Z" fill="#A52714"/>
</g>
<path d="M23.9925 11.3301C23.8662 11.3301 23.7565 11.2834 23.6632 11.1901C23.5754 11.0968 23.5314 10.987 23.5314 10.8608V5.78947C23.5314 5.66324 23.5754 5.55347 23.6632 5.46017C23.7565 5.36686 23.8662 5.32021 23.9925 5.32021H26.7093C26.8355 5.32021 26.9453 5.36686 27.0386 5.46017C27.1319 5.55347 27.1785 5.66324 27.1785 5.78947C27.1785 5.91571 27.1319 6.02548 27.0386 6.11878C26.9453 6.2066 26.8355 6.2505 26.7093 6.2505H24.7499C24.706 6.2505 24.684 6.2752 24.684 6.3246V7.76532C24.684 7.80923 24.706 7.83118 24.7499 7.83118H26.5693C26.6901 7.83118 26.7943 7.87509 26.8822 7.96291C26.97 8.04523 27.0139 8.14951 27.0139 8.27575C27.0139 8.40198 26.97 8.50901 26.8822 8.59682C26.7943 8.67915 26.6901 8.72031 26.5693 8.72031H24.7499C24.706 8.72031 24.684 8.74227 24.684 8.78618V10.8608C24.684 10.987 24.6374 11.0968 24.5441 11.1901C24.4508 11.2834 24.341 11.3301 24.2148 11.3301H23.9925ZM28.9892 11.3301C28.863 11.3301 28.7532 11.2834 28.6599 11.1901C28.5666 11.0968 28.5199 10.987 28.5199 10.8608V7.51834C28.5199 7.39211 28.5666 7.28234 28.6599 7.18903C28.7532 7.09573 28.863 7.04908 28.9892 7.04908H29.2033C29.3295 7.04908 29.4393 7.09573 29.5326 7.18903C29.6259 7.28234 29.6725 7.39211 29.6725 7.51834V10.8608C29.6725 10.987 29.6259 11.0968 29.5326 11.1901C29.4393 11.2834 29.3295 11.3301 29.2033 11.3301H28.9892ZM28.9892 6.14348C28.863 6.14348 28.7532 6.09683 28.6599 6.00352C28.5666 5.91022 28.5199 5.80045 28.5199 5.67422V5.62482C28.5199 5.49859 28.5666 5.38882 28.6599 5.29551C28.7532 5.20221 28.863 5.15556 28.9892 5.15556H29.2033C29.3295 5.15556 29.4393 5.20221 29.5326 5.29551C29.6259 5.38882 29.6725 5.49859 29.6725 5.62482V5.67422C29.6725 5.80045 29.6259 5.91022 29.5326 6.00352C29.4393 6.09683 29.3295 6.14348 29.2033 6.14348H28.9892ZM31.524 11.3301C31.3977 11.3301 31.288 11.2834 31.1947 11.1901C31.1014 11.0968 31.0547 10.987 31.0547 10.8608V7.51834C31.0547 7.39211 31.1014 7.28234 31.1947 7.18903C31.288 7.09573 31.3977 7.04908 31.524 7.04908H31.6886C31.8149 7.04908 31.9246 7.09573 32.0179 7.18903C32.1112 7.28234 32.1579 7.39211 32.1579 7.51834V7.86411C32.1579 7.8696 32.1606 7.87235 32.1661 7.87235C32.1771 7.87235 32.1826 7.8696 32.1826 7.86411C32.3418 7.64457 32.5503 7.4662 32.8083 7.32899C33.0662 7.18629 33.3489 7.09847 33.6562 7.06554C33.7715 7.05456 33.8703 7.09298 33.9526 7.1808C34.0349 7.26313 34.0761 7.36192 34.0761 7.47718C34.0761 7.59243 34.0349 7.69123 33.9526 7.77355C33.8703 7.85588 33.7715 7.90253 33.6562 7.91351C32.6848 7.99035 32.1991 8.48431 32.1991 9.39539V10.8608C32.1991 10.987 32.1524 11.0968 32.0591 11.1901C31.9658 11.2834 31.856 11.3301 31.7298 11.3301H31.524ZM36.635 7.73239C36.3551 7.73239 36.1383 7.81197 35.9846 7.97114C35.8364 8.12482 35.7431 8.37454 35.7047 8.72031C35.7047 8.76422 35.7267 8.78618 35.7706 8.78618H37.3842C37.4281 8.78618 37.45 8.76422 37.45 8.72031C37.4281 8.0617 37.1564 7.73239 36.635 7.73239ZM36.8408 11.4124C36.1218 11.4124 35.5675 11.2258 35.1778 10.8526C34.7936 10.4739 34.6015 9.91954 34.6015 9.18958C34.6015 8.4651 34.7744 7.91351 35.1202 7.53481C35.466 7.1561 35.9654 6.96675 36.6185 6.96675C37.837 6.96675 38.4627 7.6583 38.4956 9.04139C38.5011 9.17311 38.4544 9.28288 38.3556 9.3707C38.2568 9.45851 38.1416 9.50242 38.0099 9.50242H35.7623C35.7129 9.50242 35.6937 9.52712 35.7047 9.57651C35.7431 9.94424 35.8639 10.2132 36.0669 10.3833C36.2755 10.548 36.5774 10.6303 36.9725 10.6303C37.2195 10.6303 37.4939 10.5891 37.7958 10.5068C37.8946 10.4794 37.9852 10.4958 38.0675 10.5562C38.1553 10.6166 38.1992 10.6989 38.1992 10.8032C38.1992 10.9294 38.1608 11.0419 38.084 11.1407C38.0126 11.234 37.9166 11.2917 37.7958 11.3136C37.4885 11.3795 37.1701 11.4124 36.8408 11.4124ZM40.5118 8.62975V9.7494C40.5118 9.96894 40.6051 10.1638 40.7917 10.3339C40.9783 10.5041 41.2006 10.5891 41.4585 10.5891C41.7494 10.5891 41.9799 10.4739 42.1501 10.2434C42.3202 10.0074 42.4053 9.6561 42.4053 9.18958C42.4053 8.25654 42.0897 7.79002 41.4585 7.79002C41.2006 7.79002 40.9783 7.87509 40.7917 8.04523C40.6051 8.21537 40.5118 8.41022 40.5118 8.62975ZM39.8943 11.3301C39.7681 11.3301 39.6583 11.2834 39.565 11.1901C39.4717 11.0968 39.425 10.987 39.425 10.8608V5.62482C39.425 5.49859 39.4717 5.38882 39.565 5.29551C39.6583 5.20221 39.7681 5.15556 39.8943 5.15556H40.059C40.1852 5.15556 40.295 5.20221 40.3883 5.29551C40.4816 5.38882 40.5282 5.49859 40.5282 5.62482V7.47718C40.5282 7.48266 40.531 7.48541 40.5365 7.48541C40.542 7.48541 40.5474 7.48266 40.5529 7.47718C40.9097 7.13689 41.3213 6.96675 41.7878 6.96675C42.3037 6.96675 42.7154 7.16159 43.0227 7.55127C43.3356 7.93546 43.492 8.48157 43.492 9.18958C43.492 9.87564 43.3301 10.419 43.0063 10.8197C42.6825 11.2148 42.2763 11.4124 41.7878 11.4124C41.2884 11.4124 40.8575 11.2093 40.4953 10.8032C40.4898 10.7977 40.4843 10.795 40.4788 10.795C40.4733 10.795 40.4706 10.7977 40.4706 10.8032L40.4624 10.8608C40.4569 10.9925 40.4075 11.1051 40.3142 11.1984C40.2264 11.2862 40.1166 11.3301 39.9849 11.3301H39.8943ZM46.4016 9.2719C45.6168 9.2719 45.2243 9.5134 45.2243 9.99638C45.2243 10.172 45.2737 10.3147 45.3725 10.4245C45.4768 10.5343 45.6085 10.5891 45.7677 10.5891C46.0805 10.5891 46.333 10.4931 46.5251 10.301C46.7172 10.1034 46.8133 9.83447 46.8133 9.49419V9.346C46.8133 9.2966 46.7886 9.2719 46.7392 9.2719H46.4016ZM45.4713 11.4124C45.0981 11.4124 44.788 11.2917 44.541 11.0502C44.2995 10.8032 44.1788 10.4849 44.1788 10.0952C44.1788 9.61768 44.3599 9.24721 44.7221 8.98376C45.0899 8.72031 45.6497 8.58859 46.4016 8.58859H46.7392C46.7886 8.58859 46.8133 8.56389 46.8133 8.5145V8.44863C46.8133 8.19617 46.7529 8.02053 46.6321 7.92174C46.5114 7.81746 46.2973 7.76532 45.99 7.76532C45.6717 7.76532 45.282 7.82295 44.8209 7.93821C44.7221 7.96565 44.6316 7.94918 44.5493 7.88881C44.4669 7.82295 44.4258 7.73788 44.4258 7.6336C44.4258 7.50736 44.4642 7.39485 44.541 7.29606C44.6179 7.19178 44.7167 7.12866 44.8374 7.10671C45.2545 7.0134 45.647 6.96675 46.0147 6.96675C46.7172 6.96675 47.2084 7.09298 47.4883 7.34545C47.7682 7.59792 47.9082 8.03974 47.9082 8.67092V10.8608C47.9082 10.987 47.8615 11.0968 47.7682 11.1901C47.6804 11.2834 47.5734 11.3301 47.4472 11.3301H47.3566C47.2249 11.3301 47.1124 11.2862 47.0191 11.1984C46.9258 11.1051 46.8764 10.9925 46.8709 10.8608V10.7456C46.8709 10.7401 46.8681 10.7373 46.8626 10.7373C46.8517 10.7373 46.8462 10.7401 46.8462 10.7456C46.5114 11.1901 46.0531 11.4124 45.4713 11.4124ZM50.3927 9.60121C49.8164 9.47498 49.4047 9.30209 49.1578 9.08255C48.9163 8.86301 48.7955 8.57761 48.7955 8.22635C48.7955 7.83118 48.941 7.52383 49.2319 7.30429C49.5282 7.07926 49.9646 6.96675 50.5409 6.96675C50.9031 6.96675 51.2626 6.99968 51.6193 7.06554C51.7401 7.0875 51.8361 7.14787 51.9075 7.24666C51.9843 7.33996 52.0227 7.44973 52.0227 7.57597C52.0227 7.68025 51.9816 7.76532 51.8993 7.83118C51.8169 7.89156 51.7236 7.90802 51.6193 7.88058C51.312 7.80374 50.9882 7.76532 50.6479 7.76532C50.1539 7.76532 49.9069 7.90253 49.9069 8.17696C49.9069 8.30868 49.9536 8.41845 50.0469 8.50626C50.1402 8.59408 50.2994 8.66268 50.5244 8.71208C51.1556 8.83832 51.5864 9.00846 51.8169 9.22251C52.0529 9.43656 52.1709 9.7494 52.1709 10.161C52.1709 10.5562 52.0227 10.8636 51.7264 11.0831C51.43 11.3026 50.9991 11.4124 50.4338 11.4124C50.0661 11.4124 49.6901 11.3685 49.306 11.2807C49.1852 11.2532 49.0864 11.1901 49.0096 11.0913C48.9327 10.987 48.8943 10.869 48.8943 10.7373C48.8943 10.633 48.9355 10.5535 49.0178 10.4986C49.1056 10.4437 49.1989 10.43 49.2977 10.4574C49.6545 10.5562 49.992 10.6056 50.3103 10.6056C50.8098 10.6056 51.0595 10.4574 51.0595 10.161C51.0595 10.0183 51.0101 9.90582 50.9113 9.82349C50.818 9.74117 50.6451 9.66707 50.3927 9.60121ZM54.9254 7.73239C54.6455 7.73239 54.4287 7.81197 54.275 7.97114C54.1268 8.12482 54.0335 8.37454 53.9951 8.72031C53.9951 8.76422 54.0171 8.78618 54.061 8.78618H55.6746C55.7185 8.78618 55.7405 8.76422 55.7405 8.72031C55.7185 8.0617 55.4468 7.73239 54.9254 7.73239ZM55.1312 11.4124C54.4122 11.4124 53.8579 11.2258 53.4682 10.8526C53.084 10.4739 52.8919 9.91954 52.8919 9.18958C52.8919 8.4651 53.0648 7.91351 53.4106 7.53481C53.7564 7.1561 54.2558 6.96675 54.9089 6.96675C56.1274 6.96675 56.7531 7.6583 56.786 9.04139C56.7915 9.17311 56.7448 9.28288 56.646 9.3707C56.5473 9.45851 56.432 9.50242 56.3003 9.50242H54.0527C54.0034 9.50242 53.9841 9.52712 53.9951 9.57651C54.0335 9.94424 54.1543 10.2132 54.3574 10.3833C54.5659 10.548 54.8678 10.6303 55.263 10.6303C55.5099 10.6303 55.7844 10.5891 56.0862 10.5068C56.185 10.4794 56.2756 10.4958 56.3579 10.5562C56.4457 10.6166 56.4896 10.6989 56.4896 10.8032C56.4896 10.9294 56.4512 11.0419 56.3744 11.1407C56.303 11.234 56.207 11.2917 56.0862 11.3136C55.7789 11.3795 55.4605 11.4124 55.1312 11.4124Z" fill="#F5AA1A"/>
<defs>
<clipPath id="clip0_1343_3251">
<rect width="8.98112" height="8.98112" fill="white" transform="translate(6.02832 3.83984)"/>
</clipPath>
</defs>
</svg>
