<svg width="69" height="16" viewBox="0 0 69 16" fill="none" xmlns="http://www.w3.org/2000/svg">
<rect x="0.0581055" y="0.939453" width="68.6682" height="14.9685" rx="7.48427" fill="#1F2C24"/>
<g clip-path="url(#clip0_1343_3239)">
<path d="M17.241 12.5991C15.9855 11.8634 14.9132 10.0872 14.359 8.52925C14.1364 7.85342 14.0601 7.12885 13.7732 6.47912C13.473 6.00723 13.8246 5.49136 14.3415 5.34137C14.5716 5.29719 14.9763 5.08012 14.4878 5.23528C14.0499 5.55657 14.0076 4.94363 14.4566 4.9048C14.763 4.86411 14.8759 4.61322 14.7711 4.38738C14.4421 4.17286 15.5687 3.93709 15.0019 3.61699C14.4113 2.97989 15.8279 2.85722 15.4784 3.58081C15.3947 4.13722 16.4682 3.47884 16.2192 4.12134C16.4723 4.4299 17.1672 4.19157 17.1499 4.62447C17.5187 4.64982 17.6453 4.96009 17.9915 4.98395C18.3503 5.14596 19.0007 5.27364 19.1228 5.67797C18.7668 5.9598 17.9426 5.09584 17.903 5.87593C18.0532 8.62767 18.1955 9.57644 19.5243 11.018C20.4193 12.0307 21.6491 12.5083 22.6874 12.6783C22.911 12.5072 23.3059 11.8713 23.6547 12.1394C23.6713 12.4407 22.9623 12.7693 23.6214 12.736C24.0084 12.6193 24.2769 13.0353 24.5955 12.66C24.8892 13.0078 25.816 12.4378 25.607 13.1487C25.3246 13.331 24.9125 13.2208 24.6296 13.4716C24.163 13.2386 23.7916 13.6801 23.2751 13.6242C21.284 13.9727 18.6893 13.6584 17.241 12.5991ZM19.5813 13.4603C20.4493 13.581 21.3458 13.7667 22.2169 13.5973C21.8226 13.4193 21.415 13.6667 21.0222 13.47C20.5511 13.5714 20.0456 13.4442 19.5667 13.3816C19.0221 13.139 18.4343 12.9722 17.9243 12.6573C17.287 12.4245 18.2539 12.9558 18.426 12.9988C18.8244 13.2249 17.9879 12.8829 17.87 12.7889C17.5363 12.6017 17.4854 12.6454 17.8285 12.8354C18.3636 13.1669 19.0342 13.3917 19.5813 13.4603ZM17.0968 12.2769C17.5806 12.4561 17.0947 11.9366 16.873 11.9668C16.7747 11.7964 16.4977 11.6888 16.6931 11.5973C16.3416 11.7193 16.3249 11.1332 16.1597 11.2169C15.7878 11.0995 16.0149 10.6835 15.572 10.4281C15.5315 10.1589 15.1318 9.92544 15.0044 9.51942C14.948 9.31154 14.5528 8.71458 14.7956 9.27014C15.0024 9.80494 15.3661 10.263 15.6688 10.7205C15.9038 11.156 16.1814 11.6112 16.6094 11.883C16.7537 12.0214 16.893 12.2335 17.0968 12.2769ZM17.7198 11.4339C17.4551 11.2928 16.8789 11.2197 17.2855 11.5425C17.5466 11.648 18.2118 11.6992 17.7198 11.4339M18.1635 11.9948C18.732 12.1556 17.6855 11.6353 18.0232 11.9356L18.1635 11.9948ZM18.1683 11.6936C18.5813 11.7468 17.6769 11.4127 18.0777 11.6637L18.1683 11.6936ZM19.6037 12.5761C19.9892 12.3456 19.8621 13.1159 20.2578 12.6412C20.6481 12.3562 19.9208 12.9935 20.4018 12.692C20.7497 12.4593 21.2636 12.8023 21.5882 12.9142C21.8216 12.9028 22.0486 13.1161 22.2879 12.9863C22.7486 12.8622 21.387 12.8022 21.7439 12.5821C21.3224 12.7048 21.0109 12.4358 20.8035 12.1659C20.3307 12.0567 19.784 11.8149 19.548 11.3965C19.4518 11.2393 19.687 11.4186 19.4649 11.1618C19.18 10.9084 19.0377 10.6207 18.8465 10.3126C18.618 10.1907 18.5913 9.83195 18.5682 10.3006C18.5701 10.0048 18.2924 9.80576 18.2246 9.88851C18.2234 9.60364 18.5218 9.74645 18.3129 9.53567C18.2679 9.24044 18.1199 8.93279 18.0754 8.59946C18.0063 8.43878 18.0657 8.09464 17.8394 8.45838C17.757 8.84281 17.8121 7.98598 17.9402 8.26851C18.1085 7.98021 17.8798 8.01412 17.8705 8.05416C17.9801 7.81087 17.9399 7.46583 17.8419 7.59746C17.9003 7.33965 17.9342 6.64859 17.7545 6.77103C17.8634 6.50143 17.961 5.53734 17.4883 5.90491C17.2967 5.9076 16.9649 5.97447 16.8081 6.05244C17.2998 6.32352 16.7587 6.15035 16.5585 6.10727C16.5324 6.35806 16.3342 6.24958 16.0865 6.25204C16.4821 6.30099 15.8938 6.65666 15.6669 6.5185C15.3721 6.65937 15.9212 7.01102 15.6728 7.11972C15.7033 7.28363 15.2212 7.06055 15.2591 7.43907C14.973 7.31869 15.2197 7.88808 15.3629 7.69552C15.8495 7.82722 15.7055 8.1275 15.7178 8.41277C15.6386 8.57899 15.3264 8.02207 15.6483 8.04787C15.3943 7.63525 15.3674 7.89872 15.1563 8.09041C15.1072 8.10433 15.6947 8.36312 15.326 8.49112C15.6504 8.54117 15.6596 8.82502 15.7256 9.00464C15.9206 9.2077 15.8807 8.78041 16.1139 9.02442C15.9663 8.80703 15.332 8.41188 15.8427 8.53863C15.84 8.3198 15.7503 8.14336 15.9068 8.14764C16.0618 7.86705 15.7445 8.83947 16.0938 8.48287C16.1905 8.44065 16.2144 8.20193 16.3882 8.50541C16.6406 8.7537 16.4794 8.93363 16.1233 8.70627C16.187 8.92238 16.5996 8.99959 16.5221 9.33752C16.6043 9.6347 16.7192 9.52524 16.8195 9.50805C16.8981 9.79682 16.9428 9.58448 16.9465 9.44708C17.3065 9.52414 17.2222 9.73697 17.3349 9.88565C17.583 9.99764 16.9798 9.12661 17.4057 9.62375C17.8538 10.0283 17.5762 10.1678 17.1716 10.1324C17.5081 10.16 17.5152 10.4597 17.8266 10.4637C18.0972 10.6033 18.3106 11.1268 17.8101 10.906C17.5279 10.731 17.0253 10.5619 17.5269 10.8596C17.6457 10.9347 18.3583 11.2025 18.8052 11.4718C19.0526 11.641 19.2631 11.9616 19.3844 12.0134C19.1156 12.1418 18.5743 11.9109 18.9762 11.8401C18.7255 11.7945 18.4523 11.6659 18.6837 11.98C18.8827 12.162 19.4071 12.1325 19.5001 12.1517C19.4212 12.3256 19.2858 12.3394 19.5034 12.3529C19.2607 12.4822 19.5812 12.5022 19.6037 12.5761ZM19.0812 10.9828C18.9216 10.7312 18.9598 11.0204 19.1074 11.1748C19.3434 11.4555 19.1631 11.0157 19.0812 10.9828ZM18.2001 9.6811C18.2001 9.6811 18.2395 9.41564 18.1181 9.38629C17.9967 9.35691 18.0636 9.40579 18.1607 9.61594C18.1839 9.66606 18.1982 9.68344 18.198 9.68229M16.8716 8.67491C16.7511 8.40489 16.929 8.55151 16.9031 8.43635C16.8474 8.32058 16.3065 7.70579 16.5529 8.16993C16.7759 8.7236 16.4126 8.10042 16.3747 7.91177C16.3328 8.02761 16.4629 8.40704 16.5416 8.53636C16.7418 8.84473 16.6518 8.36749 16.8716 8.67491ZM15.7639 7.61018C15.4508 7.34683 15.8604 7.73998 15.7332 7.73503C15.4033 7.49406 15.5382 7.66477 15.7245 7.84996C15.9264 8.14996 16.0931 7.67019 15.7639 7.61018ZM15.9246 7.65546C16.5168 7.81817 15.2943 7.08394 15.8361 7.56607L15.9246 7.65546ZM17.5636 8.35547C17.3936 8.35891 17.6341 7.9853 17.4062 8.05902C17.3262 7.47834 17.1539 8.32738 17.3883 8.46795C17.4607 8.67594 17.5368 8.5912 17.5636 8.35545M16.1653 7.52939C16.9539 7.89336 15.5943 6.9274 15.9424 7.40761C15.9837 7.50016 16.0829 7.50785 16.1653 7.52939ZM16.2557 7.34074C16.8529 7.58763 16.2025 7.18009 15.9957 7.22434C16.0478 7.30066 16.1893 7.26728 16.2557 7.34074ZM16.3357 7.11727C16.5295 7.07854 16.3099 7.01637 16.1941 6.92431C15.9259 6.5215 16.2339 6.95682 16.1497 7.08048C16.2613 7.19017 16.6406 7.38628 16.3357 7.11727ZM17.7073 6.49231C17.6281 6.91075 17.5474 6.73625 17.6609 6.42425C17.6337 6.02384 17.3904 6.66945 17.4979 6.85897C17.6757 7.14218 17.8535 6.16298 17.7073 6.49231ZM17.9437 11.4744C18.2517 11.5534 18.2501 11.4265 17.9718 11.3888C17.8221 11.2495 17.3497 11.1018 17.7725 11.3715C17.8005 11.4424 17.889 11.4408 17.9437 11.4744ZM16.8503 10.7482C17.0199 10.8747 17.4893 11.1067 17.092 10.7963C17.226 10.6407 16.8356 10.5578 16.9651 10.4537C16.6357 10.2522 16.7052 10.2701 16.936 10.2764C16.5401 10.0995 16.9931 10.1127 16.9718 10.0221C16.8192 9.99191 16.2136 9.7529 16.5699 10.0417C16.2077 9.85705 16.4836 10.1105 16.3741 10.0837C16.0038 9.98271 16.7039 10.3657 16.3153 10.2706C16.5277 10.439 16.8871 10.7019 16.4051 10.4488C16.3416 10.5402 16.75 10.6788 16.8503 10.7482M20.698 13.0047C20.8605 12.8472 20.7047 13.2554 20.9672 12.9661C20.97 12.7591 20.9591 12.6368 20.6655 12.8883C20.5846 12.9332 20.5485 13.124 20.698 13.0047ZM18.0381 11.2968C18.2187 11.4574 18.8679 11.4146 18.2575 11.3166C18.1671 11.1829 17.6835 11.2151 18.0381 11.2968ZM15.062 9.29779C14.7995 8.92329 14.8988 8.75494 14.6457 8.44919C14.5978 8.21535 14.2115 7.68474 14.4459 8.24688C14.6606 8.57565 14.7244 9.0847 15.062 9.29779ZM22.8387 12.9939C23.094 12.9421 23.676 13.1239 23.77 12.9262C23.4599 12.9187 22.6971 12.7074 22.661 12.9766L22.8387 12.9939ZM14.1429 6.54089C14.0963 6.2741 14.0401 5.80579 14.4852 5.96404C13.891 6.08201 14.8965 6.70262 14.7695 6.21263C15.0194 6.22486 15.2583 6.06496 15.1272 6.30763C15.6195 6.25326 15.9608 5.82635 16.4363 5.88618C16.8067 5.83715 17.2117 5.79999 17.6109 5.65089C17.9391 5.62724 18.255 5.27387 18.0751 5.06445C17.6276 5.02659 17.1591 5.08258 16.6644 5.18092C16.1162 5.29487 15.6183 5.51138 15.0652 5.6043C14.5261 5.67671 15.1737 5.80383 15.0192 5.83215C14.7379 5.92975 15.3547 5.99559 14.9828 6.09847C14.7531 6.05481 14.514 5.97587 14.6121 5.7338C14.0957 5.80081 13.6419 6.01514 14.0499 6.54065L14.1429 6.54089ZM15.523 5.9664C15.9733 6.27419 15.4457 5.46109 15.3246 5.90716C15.3808 5.89331 15.4693 5.92615 15.523 5.9664ZM15.6512 5.76014C16.078 5.80308 15.5858 5.48916 15.5701 5.68625L15.6512 5.76014ZM16.3665 5.49875C16.9965 5.37884 16.1358 5.29859 15.9512 5.52038C16.0682 5.57371 16.1976 5.37163 16.3665 5.49875ZM17.447 5.28414C17.8453 5.22298 17.5097 5.04017 17.3931 5.34549C17.4354 5.44175 17.4557 5.31662 17.447 5.28414ZM15.3048 6.91103C15.5299 6.89559 15.6569 6.66274 15.2612 6.67612C14.648 6.61264 15.8023 6.88612 15.1826 6.80791C15.0993 6.86306 15.2999 6.92628 15.3048 6.91103ZM14.9896 5.13305C15.3913 4.99639 15.8985 4.88031 16.1245 5.2099C15.9545 4.96996 16.0524 4.73928 16.2348 5.07898C16.4926 5.42269 16.5851 4.99068 16.454 4.80737C16.5787 5.00469 17.0419 5.43436 16.5819 4.82238C16.8867 4.45572 15.9716 4.8704 15.7636 4.86621C15.6635 4.91112 14.7304 5.10416 14.9896 5.13305ZM15.225 4.68219C15.4541 4.50926 16.0174 4.78505 15.6559 4.51033C15.6206 4.47911 14.8644 4.71865 15.225 4.68219ZM16.0603 4.71667C16.3284 4.72352 15.9446 4.35646 16.2641 4.52278C16.2116 4.35134 15.8921 4.31925 15.7359 4.25077C15.6475 4.4075 15.9158 4.71877 16.0603 4.71667ZM15.0754 3.5414C14.7712 3.1442 15.6476 3.60813 15.3385 3.19228C15.0783 2.98511 14.8283 3.42547 15.0754 3.5414ZM18.98 5.64448C19.1195 5.39713 18.4039 5.31103 18.886 5.55682C18.9304 5.57165 18.9203 5.6616 18.98 5.64448Z" fill="#9AE6B4"/>
</g>
<path d="M34.713 11.4238C34.5868 11.4238 34.477 11.3772 34.3837 11.2839C34.2959 11.1906 34.252 11.0808 34.252 10.9546V5.88322C34.252 5.75699 34.2959 5.64722 34.3837 5.55392C34.477 5.46061 34.5868 5.41396 34.713 5.41396H37.4298C37.556 5.41396 37.6658 5.46061 37.7591 5.55392C37.8524 5.64722 37.899 5.75699 37.899 5.88322C37.899 6.00946 37.8524 6.11923 37.7591 6.21253C37.6658 6.30035 37.556 6.34425 37.4298 6.34425H35.4704C35.4265 6.34425 35.4045 6.36895 35.4045 6.41835V7.85907C35.4045 7.90298 35.4265 7.92493 35.4704 7.92493H37.2898C37.4106 7.92493 37.5149 7.96884 37.6027 8.05666C37.6905 8.13898 37.7344 8.24326 37.7344 8.3695C37.7344 8.49573 37.6905 8.60276 37.6027 8.69057C37.5149 8.7729 37.4106 8.81406 37.2898 8.81406H35.4704C35.4265 8.81406 35.4045 8.83602 35.4045 8.87993V10.9546C35.4045 11.0808 35.3579 11.1906 35.2646 11.2839C35.1713 11.3772 35.0615 11.4238 34.9353 11.4238H34.713ZM39.7097 11.4238C39.5835 11.4238 39.4737 11.3772 39.3804 11.2839C39.2871 11.1906 39.2405 11.0808 39.2405 10.9546V5.71857C39.2405 5.59234 39.2871 5.48257 39.3804 5.38926C39.4737 5.29596 39.5835 5.24931 39.7097 5.24931H39.9238C40.05 5.24931 40.1598 5.29596 40.2531 5.38926C40.3464 5.48257 40.393 5.59234 40.393 5.71857V10.9546C40.393 11.0808 40.3464 11.1906 40.2531 11.2839C40.1598 11.3772 40.05 11.4238 39.9238 11.4238H39.7097ZM43.7922 9.36565C43.0074 9.36565 42.615 9.60715 42.615 10.0901C42.615 10.2658 42.6644 10.4085 42.7632 10.5182C42.8674 10.628 42.9992 10.6829 43.1583 10.6829C43.4712 10.6829 43.7236 10.5868 43.9157 10.3947C44.1078 10.1972 44.2039 9.92822 44.2039 9.58794V9.43975C44.2039 9.39035 44.1792 9.36565 44.1298 9.36565H43.7922ZM42.8619 11.5062C42.4887 11.5062 42.1786 11.3854 41.9317 11.1439C41.6902 10.8969 41.5694 10.5786 41.5694 10.1889C41.5694 9.71143 41.7505 9.34096 42.1128 9.07751C42.4805 8.81406 43.0403 8.68234 43.7922 8.68234H44.1298C44.1792 8.68234 44.2039 8.65764 44.2039 8.60825V8.54238C44.2039 8.28992 44.1435 8.11428 44.0228 8.01549C43.902 7.91121 43.688 7.85907 43.3806 7.85907C43.0623 7.85907 42.6726 7.9167 42.2116 8.03196C42.1128 8.0594 42.0222 8.04293 41.9399 7.98256C41.8576 7.9167 41.8164 7.83163 41.8164 7.72735C41.8164 7.60111 41.8548 7.4886 41.9317 7.38981C42.0085 7.28553 42.1073 7.22241 42.228 7.20046C42.6452 7.10715 43.0376 7.0605 43.4053 7.0605C44.1078 7.0605 44.599 7.18673 44.879 7.4392C45.1589 7.69167 45.2988 8.13349 45.2988 8.76467V10.9546C45.2988 11.0808 45.2522 11.1906 45.1589 11.2839C45.0711 11.3772 44.964 11.4238 44.8378 11.4238H44.7472C44.6155 11.4238 44.503 11.3799 44.4097 11.2921C44.3164 11.1988 44.267 11.0863 44.2615 10.9546V10.8393C44.2615 10.8338 44.2588 10.8311 44.2533 10.8311C44.2423 10.8311 44.2368 10.8338 44.2368 10.8393C43.902 11.2839 43.4437 11.5062 42.8619 11.5062ZM47.7833 9.69496C47.207 9.56873 46.7954 9.39584 46.5484 9.1763C46.3069 8.95676 46.1862 8.67136 46.1862 8.3201C46.1862 7.92493 46.3316 7.61758 46.6225 7.39804C46.9189 7.17301 47.3552 7.0605 47.9315 7.0605C48.2937 7.0605 48.6532 7.09343 49.01 7.15929C49.1307 7.18125 49.2268 7.24162 49.2981 7.34041C49.375 7.43371 49.4134 7.54348 49.4134 7.66972C49.4134 7.774 49.3722 7.85907 49.2899 7.92493C49.2076 7.98531 49.1143 8.00177 49.01 7.97433C48.7026 7.89749 48.3788 7.85907 48.0385 7.85907C47.5445 7.85907 47.2976 7.99628 47.2976 8.27071C47.2976 8.40243 47.3442 8.5122 47.4375 8.60001C47.5308 8.68783 47.69 8.75643 47.915 8.80583C48.5462 8.93207 48.977 9.10221 49.2076 9.31626C49.4436 9.53031 49.5616 9.84315 49.5616 10.2548C49.5616 10.65 49.4134 10.9573 49.117 11.1768C48.8206 11.3964 48.3898 11.5062 47.8245 11.5062C47.4567 11.5062 47.0808 11.4622 46.6966 11.3744C46.5758 11.347 46.477 11.2839 46.4002 11.1851C46.3234 11.0808 46.2849 10.9628 46.2849 10.8311C46.2849 10.7268 46.3261 10.6472 46.4084 10.5923C46.4963 10.5374 46.5896 10.5237 46.6883 10.5512C47.0451 10.65 47.3826 10.6994 47.701 10.6994C48.2004 10.6994 48.4501 10.5512 48.4501 10.2548C48.4501 10.1121 48.4008 9.99957 48.302 9.91724C48.2087 9.83492 48.0358 9.76082 47.7833 9.69496ZM51.0811 11.4238C50.9549 11.4238 50.8451 11.3772 50.7518 11.2839C50.6585 11.1906 50.6119 11.0808 50.6119 10.9546V5.71857C50.6119 5.59234 50.6585 5.48257 50.7518 5.38926C50.8451 5.29596 50.9549 5.24931 51.0811 5.24931H51.2458C51.372 5.24931 51.4818 5.29596 51.5751 5.38926C51.6684 5.48257 51.7151 5.59234 51.7151 5.71857V8.88816C51.7151 8.89365 51.7178 8.89639 51.7233 8.89639H51.7315L52.9829 7.4886C53.186 7.25808 53.4439 7.14283 53.7568 7.14283H54.1025C54.1904 7.14283 54.2507 7.18399 54.2837 7.26632C54.3221 7.34864 54.3111 7.42274 54.2507 7.4886L52.7441 9.1516C52.7167 9.18453 52.7167 9.22021 52.7441 9.25863L54.2672 11.0698C54.3276 11.1412 54.3358 11.218 54.2919 11.3003C54.2535 11.3827 54.1904 11.4238 54.1025 11.4238H53.7568C53.4439 11.4238 53.1887 11.3031 52.9911 11.0616L51.7315 9.53854C51.7315 9.53305 51.7288 9.53031 51.7233 9.53031C51.7178 9.53031 51.7151 9.53305 51.7151 9.53854V10.9546C51.7151 11.0808 51.6684 11.1906 51.5751 11.2839C51.4818 11.3772 51.372 11.4238 51.2458 11.4238H51.0811Z" fill="#9AE6B4"/>
<defs>
<clipPath id="clip0_1343_3239">
<rect width="11.9748" height="11.9748" fill="white" transform="translate(13.6626 2.43652)"/>
</clipPath>
</defs>
</svg>
