<svg width="70" height="16" viewBox="0 0 70 16" fill="none" xmlns="http://www.w3.org/2000/svg">
<rect x="0.600586" y="0.939453" width="68.6682" height="14.9685" rx="7.48427" fill="#193342"/>
<g clip-path="url(#clip0_1343_3221)">
<path d="M16.9851 4.21481L19.5941 4.21191L15.217 8.58675L14.0762 9.72113L12.7783 8.42163L16.9851 4.21481ZM16.9609 8.121C16.9947 8.07628 17.057 8.09835 17.1043 8.0926L19.5919 8.09321L17.3247 10.3581L16.0201 9.06149L16.9609 8.121Z" fill="#44D1FD"/>
<path d="M14.7202 10.3613L16.0207 9.0625L17.3253 10.3592L17.3308 10.3649L16.021 11.6625L14.7202 10.3613Z" fill="#1FBCFD"/>
<path d="M16.0205 11.6628L17.3303 10.3652L19.5929 12.6301C18.7406 12.632 17.8886 12.6295 17.0367 12.6314C16.9881 12.6422 16.9581 12.5978 16.9271 12.5704L16.0205 11.6628Z" fill="#08589C"/>
</g>
<path d="M31.107 11.4238C30.9807 11.4238 30.871 11.3772 30.7777 11.2839C30.6898 11.1906 30.6459 11.0808 30.6459 10.9546V5.88322C30.6459 5.75699 30.6898 5.64722 30.7777 5.55392C30.871 5.46061 30.9807 5.41396 31.107 5.41396H33.8238C33.95 5.41396 34.0598 5.46061 34.1531 5.55392C34.2464 5.64722 34.293 5.75699 34.293 5.88322C34.293 6.00946 34.2464 6.11923 34.1531 6.21253C34.0598 6.30035 33.95 6.34425 33.8238 6.34425H31.8644C31.8205 6.34425 31.7985 6.36895 31.7985 6.41835V7.85907C31.7985 7.90298 31.8205 7.92493 31.8644 7.92493H33.6838C33.8045 7.92493 33.9088 7.96884 33.9966 8.05666C34.0845 8.13898 34.1284 8.24326 34.1284 8.3695C34.1284 8.49573 34.0845 8.60276 33.9966 8.69057C33.9088 8.7729 33.8045 8.81406 33.6838 8.81406H31.8644C31.8205 8.81406 31.7985 8.83602 31.7985 8.87993V10.9546C31.7985 11.0808 31.7519 11.1906 31.6586 11.2839C31.5653 11.3772 31.4555 11.4238 31.3293 11.4238H31.107ZM36.1037 11.4238C35.9775 11.4238 35.8677 11.3772 35.7744 11.2839C35.6811 11.1906 35.6344 11.0808 35.6344 10.9546V5.71857C35.6344 5.59234 35.6811 5.48257 35.7744 5.38926C35.8677 5.29596 35.9775 5.24931 36.1037 5.24931H36.3177C36.444 5.24931 36.5538 5.29596 36.6471 5.38926C36.7404 5.48257 36.787 5.59234 36.787 5.71857V10.9546C36.787 11.0808 36.7404 11.1906 36.6471 11.2839C36.5538 11.3772 36.444 11.4238 36.3177 11.4238H36.1037ZM39.5111 11.5062C39.0282 11.5062 38.6769 11.3744 38.4573 11.111C38.2378 10.8421 38.128 10.3893 38.128 9.75259V7.61209C38.128 7.48586 38.1747 7.37609 38.268 7.28278C38.3613 7.18948 38.4711 7.14283 38.5973 7.14283H38.729C38.8553 7.14283 38.965 7.18948 39.0583 7.28278C39.1516 7.37609 39.1983 7.48586 39.1983 7.61209V9.63733C39.1983 10.0215 39.2504 10.2877 39.3547 10.4359C39.459 10.5841 39.6346 10.6582 39.8816 10.6582C40.1066 10.6582 40.3152 10.5621 40.5073 10.37C40.7049 10.1779 40.8037 9.97213 40.8037 9.75259V7.61209C40.8037 7.48586 40.8503 7.37609 40.9436 7.28278C41.0369 7.18948 41.1467 7.14283 41.2729 7.14283H41.4376C41.5638 7.14283 41.6708 7.18948 41.7587 7.28278C41.852 7.37609 41.8986 7.48586 41.8986 7.61209V10.9546C41.8986 11.0808 41.852 11.1906 41.7587 11.2839C41.6708 11.3772 41.5638 11.4238 41.4376 11.4238H41.3306C41.1988 11.4238 41.0863 11.3799 40.993 11.2921C40.9052 11.1988 40.8586 11.0863 40.8531 10.9546L40.8448 10.8969C40.8448 10.8914 40.8421 10.8887 40.8366 10.8887C40.8311 10.8887 40.8256 10.8914 40.8201 10.8969C40.4469 11.3031 40.0106 11.5062 39.5111 11.5062ZM43.2226 8.10605C43.1128 8.10605 43.0195 8.06763 42.9427 7.99079C42.8659 7.90847 42.8274 7.81242 42.8274 7.70265C42.8274 7.59288 42.8659 7.49958 42.9427 7.42274C43.0195 7.3459 43.1128 7.30748 43.2226 7.30748H43.6178C43.6672 7.30748 43.6919 7.28278 43.6919 7.23339V6.21253C43.6919 6.0863 43.7358 5.97653 43.8236 5.88322C43.9169 5.78992 44.0267 5.74327 44.1529 5.74327H44.3175C44.4438 5.74327 44.5536 5.78992 44.6469 5.88322C44.7402 5.97653 44.7868 6.0863 44.7868 6.21253V7.23339C44.7868 7.28278 44.8115 7.30748 44.8609 7.30748H45.7994C45.9092 7.30748 46.0025 7.3459 46.0793 7.42274C46.1617 7.49958 46.2028 7.59288 46.2028 7.70265C46.2028 7.81242 46.1617 7.90847 46.0793 7.99079C46.0025 8.06763 45.9092 8.10605 45.7994 8.10605H44.8609C44.8115 8.10605 44.7868 8.12801 44.7868 8.17191V9.83492C44.7868 10.1917 44.8252 10.4222 44.9021 10.5265C44.9789 10.6307 45.1381 10.6829 45.3796 10.6829C45.5113 10.6829 45.6101 10.6774 45.6759 10.6664C45.7857 10.6554 45.8818 10.6801 45.9641 10.7405C46.0464 10.8009 46.0876 10.8832 46.0876 10.9875C46.0876 11.1082 46.0464 11.218 45.9641 11.3168C45.8873 11.4101 45.7912 11.4622 45.6759 11.4732C45.4345 11.4952 45.2533 11.5062 45.1326 11.5062C44.6002 11.5062 44.227 11.3936 44.0129 11.1686C43.7989 10.9381 43.6919 10.5292 43.6919 9.94194V8.17191C43.6919 8.12801 43.6672 8.10605 43.6178 8.10605H43.2226ZM47.3711 8.10605C47.2613 8.10605 47.168 8.06763 47.0912 7.99079C47.0144 7.90847 46.9759 7.81242 46.9759 7.70265C46.9759 7.59288 47.0144 7.49958 47.0912 7.42274C47.168 7.3459 47.2613 7.30748 47.3711 7.30748H47.7663C47.8157 7.30748 47.8404 7.28278 47.8404 7.23339V6.21253C47.8404 6.0863 47.8843 5.97653 47.9721 5.88322C48.0654 5.78992 48.1752 5.74327 48.3014 5.74327H48.4661C48.5923 5.74327 48.7021 5.78992 48.7954 5.88322C48.8887 5.97653 48.9353 6.0863 48.9353 6.21253V7.23339C48.9353 7.28278 48.96 7.30748 49.0094 7.30748H49.9479C50.0577 7.30748 50.151 7.3459 50.2279 7.42274C50.3102 7.49958 50.3513 7.59288 50.3513 7.70265C50.3513 7.81242 50.3102 7.90847 50.2279 7.99079C50.151 8.06763 50.0577 8.10605 49.9479 8.10605H49.0094C48.96 8.10605 48.9353 8.12801 48.9353 8.17191V9.83492C48.9353 10.1917 48.9737 10.4222 49.0506 10.5265C49.1274 10.6307 49.2866 10.6829 49.5281 10.6829C49.6598 10.6829 49.7586 10.6774 49.8245 10.6664C49.9342 10.6554 50.0303 10.6801 50.1126 10.7405C50.1949 10.8009 50.2361 10.8832 50.2361 10.9875C50.2361 11.1082 50.1949 11.218 50.1126 11.3168C50.0358 11.4101 49.9397 11.4622 49.8245 11.4732C49.583 11.4952 49.4018 11.5062 49.2811 11.5062C48.7487 11.5062 48.3755 11.3936 48.1614 11.1686C47.9474 10.9381 47.8404 10.5292 47.8404 9.94194V8.17191C47.8404 8.12801 47.8157 8.10605 47.7663 8.10605H47.3711ZM53.156 7.82614C52.8761 7.82614 52.6593 7.90572 52.5056 8.06489C52.3574 8.21857 52.2641 8.46829 52.2257 8.81406C52.2257 8.85797 52.2477 8.87993 52.2916 8.87993H53.9052C53.9491 8.87993 53.971 8.85797 53.971 8.81406C53.9491 8.15545 53.6774 7.82614 53.156 7.82614ZM53.3618 11.5062C52.6428 11.5062 52.0885 11.3195 51.6988 10.9463C51.3146 10.5676 51.1225 10.0133 51.1225 9.28333C51.1225 8.55885 51.2954 8.00726 51.6412 7.62856C51.9869 7.24985 52.4864 7.0605 53.1395 7.0605C54.358 7.0605 54.9836 7.75205 55.0166 9.13514C55.0221 9.26686 54.9754 9.37663 54.8766 9.46445C54.7778 9.55226 54.6626 9.59617 54.5309 9.59617H52.2833C52.2339 9.59617 52.2147 9.62087 52.2257 9.67026C52.2641 10.038 52.3849 10.3069 52.5879 10.4771C52.7965 10.6417 53.0984 10.724 53.4935 10.724C53.7405 10.724 54.0149 10.6829 54.3168 10.6006C54.4156 10.5731 54.5062 10.5896 54.5885 10.65C54.6763 10.7103 54.7202 10.7927 54.7202 10.8969C54.7202 11.0232 54.6818 11.1357 54.6049 11.2345C54.5336 11.3278 54.4375 11.3854 54.3168 11.4074C54.0094 11.4732 53.6911 11.5062 53.3618 11.5062ZM56.3741 11.4238C56.2479 11.4238 56.1381 11.3772 56.0448 11.2839C55.9515 11.1906 55.9049 11.0808 55.9049 10.9546V7.61209C55.9049 7.48586 55.9515 7.37609 56.0448 7.28278C56.1381 7.18948 56.2479 7.14283 56.3741 7.14283H56.5388C56.665 7.14283 56.7748 7.18948 56.8681 7.28278C56.9614 7.37609 57.0081 7.48586 57.0081 7.61209V7.95786C57.0081 7.96335 57.0108 7.9661 57.0163 7.9661C57.0273 7.9661 57.0328 7.96335 57.0328 7.95786C57.1919 7.73832 57.4005 7.55995 57.6584 7.42274C57.9164 7.28004 58.1991 7.19222 58.5064 7.15929C58.6217 7.14831 58.7205 7.18673 58.8028 7.27455C58.8851 7.35688 58.9263 7.45567 58.9263 7.57093C58.9263 7.68618 58.8851 7.78498 58.8028 7.8673C58.7205 7.94963 58.6217 7.99628 58.5064 8.00726C57.535 8.0841 57.0492 8.57806 57.0492 9.48914V10.9546C57.0492 11.0808 57.0026 11.1906 56.9093 11.2839C56.816 11.3772 56.7062 11.4238 56.58 11.4238H56.3741Z" fill="#0EACFF"/>
<defs>
<clipPath id="clip0_1343_3221">
<rect width="11.9748" height="11.9748" fill="white" transform="translate(10.2051 2.43652)"/>
</clipPath>
</defs>
</svg>
