<svg width="45" height="16" viewBox="0 0 45 16" fill="none" xmlns="http://www.w3.org/2000/svg">
<rect x="0.82666" y="0.266602" width="44.1572" height="14.9685" rx="7.48427" fill="#19271F"/>
<g clip-path="url(#clip0_1343_3281)">
<path d="M14.0777 6.08129L14.8909 5.26803L14.9451 4.92562C13.4632 3.57813 11.1076 3.73095 9.77161 5.24445C9.40058 5.66479 9.1253 6.18888 8.97852 6.73008L9.26975 6.68901L10.8962 6.42084L11.0217 6.29244C11.7452 5.49789 12.9684 5.39096 13.8038 6.06697L14.0777 6.08129Z" fill="#21A157"/>
<path d="M16.051 6.70824C15.8641 6.01988 15.4803 5.40105 14.9467 4.92773L13.8054 6.06909C14.0433 6.26345 14.2339 6.50928 14.3629 6.78806C14.4919 7.06684 14.5559 7.37127 14.5501 7.67839V7.88098C15.1111 7.88098 15.5659 8.33574 15.5659 8.89674C15.5659 9.45773 15.1111 9.90117 14.5501 9.90117H12.5157L12.3159 10.118V11.3364L12.5157 11.5276H14.5501C16.0093 11.539 17.2015 10.3767 17.2128 8.91746C17.2162 8.48199 17.112 8.05242 16.9093 7.66699C16.7066 7.28155 16.4117 6.9522 16.051 6.70824Z" fill="#21A157"/>
<path d="M10.4822 11.5263H12.5139V9.8999H10.4822C10.3384 9.89989 10.1963 9.86874 10.0657 9.80859L9.77746 9.89705L8.95854 10.7103L8.88721 10.987C9.34646 11.3338 9.90675 11.5288 10.4822 11.5263Z" fill="#21A157"/>
<path d="M10.4834 6.25104C9.0242 6.25974 7.84833 7.44974 7.85698 8.90894C7.8594 9.31106 7.95356 9.70732 8.13229 10.0675C8.31102 10.4278 8.56961 10.7424 8.88836 10.9876L10.0668 9.80916C9.55554 9.57817 9.32834 8.97644 9.55933 8.46522C9.79031 7.95399 10.392 7.72675 10.9032 7.95769C11.1285 8.05948 11.309 8.23993 11.4107 8.46522L12.5892 7.28677C12.3419 6.9634 12.0231 6.70163 11.6578 6.52195C11.2924 6.34226 10.8905 6.24952 10.4834 6.25099" fill="#21A157"/>
</g>
<path d="M25.9113 10.8333C25.0277 10.8333 24.3114 10.5589 23.7626 10.01C23.2192 9.4557 22.9476 8.70104 22.9476 7.74604C22.9476 6.78007 23.2192 6.02541 23.7626 5.48205C24.306 4.9332 25.0579 4.65878 26.0184 4.65878C26.4135 4.65878 26.773 4.68622 27.0968 4.74111C27.2286 4.76306 27.3383 4.82892 27.4262 4.93869C27.514 5.04297 27.5579 5.16372 27.5579 5.30093V5.33386C27.5579 5.44912 27.5112 5.54242 27.4179 5.61377C27.3246 5.68512 27.2203 5.70708 27.1051 5.67964C26.7813 5.60829 26.4602 5.57261 26.1418 5.57261C25.4777 5.57261 24.9728 5.75647 24.627 6.1242C24.2867 6.48644 24.1166 7.02705 24.1166 7.74604C24.1166 8.44308 24.284 8.98095 24.6188 9.35965C24.9591 9.73287 25.4174 9.91947 25.9937 9.91947C26.2297 9.91947 26.4629 9.88654 26.6934 9.82068C26.7373 9.80971 26.7593 9.77952 26.7593 9.73012V8.10005C26.7593 8.05065 26.7373 8.02595 26.6934 8.02595H25.6644C25.5436 8.02595 25.4393 7.98479 25.3515 7.90246C25.2692 7.81465 25.228 7.71037 25.228 7.58962C25.228 7.46339 25.2692 7.35911 25.3515 7.27678C25.4393 7.18896 25.5436 7.14506 25.6644 7.14506H27.3932C27.5195 7.14506 27.6292 7.19171 27.7225 7.28501C27.8158 7.37832 27.8625 7.48808 27.8625 7.61432V10.01C27.8625 10.1527 27.8213 10.2817 27.739 10.397C27.6567 10.5122 27.5496 10.5891 27.4179 10.6275C26.9514 10.7647 26.4492 10.8333 25.9113 10.8333ZM31.5761 10.8333C30.7089 10.8333 30.0201 10.5671 29.5097 10.0347C29.0047 9.49686 28.7523 8.73397 28.7523 7.74604C28.7523 6.7691 28.9965 6.01169 29.485 5.47382C29.9789 4.93046 30.6677 4.65878 31.5514 4.65878C31.9575 4.65878 32.2978 4.68348 32.5722 4.73288C32.704 4.75483 32.8137 4.82069 32.9015 4.93046C32.9894 5.04023 33.0333 5.16372 33.0333 5.30093V5.36679C33.0333 5.48205 32.9839 5.57261 32.8851 5.63847C32.7918 5.70433 32.6902 5.72354 32.5805 5.6961C32.3115 5.62475 32.0097 5.58908 31.6749 5.58908C31.1315 5.58908 30.7034 5.77568 30.3906 6.1489C30.0832 6.52212 29.9295 7.0545 29.9295 7.74604C29.9295 8.4321 30.0887 8.96448 30.407 9.34319C30.7308 9.7164 31.1617 9.90301 31.6996 9.90301C32.0618 9.90301 32.3719 9.87008 32.6299 9.80422C32.7396 9.77677 32.8412 9.79598 32.9345 9.86185C33.0333 9.92771 33.0827 10.0183 33.0827 10.1335V10.1912C33.0827 10.3284 33.0387 10.4519 32.9509 10.5616C32.8686 10.6659 32.7588 10.729 32.6216 10.751C32.3088 10.8059 31.9603 10.8333 31.5761 10.8333ZM35.4766 5.67964V7.66372C35.4766 7.70213 35.4986 7.72683 35.5425 7.73781C35.7511 7.76525 35.9541 7.77897 36.1517 7.77897C36.5963 7.77897 36.9338 7.68293 37.1643 7.49083C37.4003 7.29324 37.5183 7.01333 37.5183 6.65109C37.5183 5.92113 37.0628 5.55615 36.1517 5.55615C35.9541 5.55615 35.7511 5.56987 35.5425 5.59731C35.4986 5.60829 35.4766 5.63573 35.4766 5.67964ZM34.8016 10.751C34.6753 10.751 34.5655 10.7043 34.4722 10.611C34.3844 10.5177 34.3405 10.4079 34.3405 10.2817V5.25154C34.3405 5.11981 34.3844 5.00181 34.4722 4.89753C34.5601 4.79325 34.6698 4.73562 34.8016 4.72464C35.2681 4.68074 35.7181 4.65878 36.1517 4.65878C36.975 4.65878 37.5924 4.82344 38.0041 5.15274C38.4157 5.47656 38.6215 5.94857 38.6215 6.56877C38.6215 7.25483 38.4212 7.77348 38.0205 8.12475C37.6254 8.47601 37.0381 8.65164 36.2587 8.65164C36.0776 8.65164 35.8389 8.64066 35.5425 8.61871C35.4986 8.61871 35.4766 8.64066 35.4766 8.68457V10.2817C35.4766 10.4079 35.43 10.5177 35.3367 10.611C35.2434 10.7043 35.1336 10.751 35.0074 10.751H34.8016Z" fill="#21A157"/>
<defs>
<clipPath id="clip0_1343_3281">
<rect width="11.9748" height="11.9748" fill="white" transform="translate(6.54688 1.76367)"/>
</clipPath>
</defs>
</svg>
