<svg width="63" height="16" viewBox="0 0 63 16" fill="none" xmlns="http://www.w3.org/2000/svg">
<rect x="0.304688" y="0.845703" width="62.1194" height="14.9685" rx="7.48427" fill="#2E160A"/>
<g clip-path="url(#clip0_1343_3259)">
<path d="M25.4436 7.92969L21.5223 4.00831C21.4686 3.95459 21.4048 3.91198 21.3347 3.8829C21.2645 3.85383 21.1893 3.83887 21.1133 3.83887C21.0374 3.83887 20.9622 3.85383 20.892 3.8829C20.8219 3.91198 20.7581 3.95459 20.7044 4.00831L19.7934 4.91933L20.4788 5.6047C20.636 5.52935 20.8127 5.50465 20.9845 5.53401C21.1563 5.56337 21.3148 5.64533 21.4381 5.76859C21.5613 5.89186 21.6433 6.05034 21.6727 6.22217C21.702 6.394 21.6773 6.57071 21.602 6.7279L22.7246 7.85054C22.9038 7.76494 23.1076 7.74544 23.2998 7.79551C23.492 7.84559 23.6603 7.96199 23.775 8.12417C23.8897 8.28634 23.9433 8.48383 23.9265 8.68174C23.9096 8.87965 23.8233 9.06522 23.6829 9.20567C23.5424 9.34612 23.3569 9.43239 23.1589 9.44925C22.961 9.4661 22.7635 9.41244 22.6014 9.29776C22.4392 9.18308 22.3228 9.01476 22.2727 8.82256C22.2227 8.63035 22.2421 8.42663 22.3278 8.2474L21.2051 7.12476C21.1781 7.13726 21.1505 7.14868 21.1226 7.159V9.50027C21.3099 9.56647 21.4677 9.69675 21.5682 9.86806C21.6687 10.0394 21.7054 10.2407 21.6718 10.4365C21.6382 10.6322 21.5365 10.8098 21.3846 10.9378C21.2328 11.0659 21.0406 11.1361 20.8419 11.1361C20.6433 11.1361 20.4511 11.0659 20.2992 10.9378C20.1474 10.8098 20.0457 10.6322 20.0121 10.4365C19.9785 10.2407 20.0152 10.0394 20.1157 9.86806C20.2162 9.69675 20.374 9.56647 20.5613 9.50027V7.159C20.4499 7.11967 20.3481 7.05736 20.2624 6.97611C20.1767 6.89486 20.109 6.79648 20.0638 6.68738C20.0186 6.57827 19.9968 6.46088 20 6.34282C20.0031 6.22476 20.031 6.10868 20.0819 6.00212L19.3965 5.31674L16.8016 7.91173C16.7478 7.96543 16.7051 8.02921 16.6759 8.09943C16.6468 8.16965 16.6318 8.24492 16.6318 8.32093C16.6318 8.39695 16.6468 8.47222 16.6759 8.54243C16.7051 8.61265 16.7478 8.67643 16.8016 8.73013L20.7229 12.6515C20.7766 12.7052 20.8404 12.7478 20.9105 12.7769C20.9807 12.806 21.0559 12.821 21.1319 12.821C21.2078 12.821 21.283 12.806 21.3532 12.7769C21.4233 12.7478 21.4871 12.7052 21.5408 12.6515L25.4436 8.74866C25.4974 8.69496 25.5401 8.63117 25.5693 8.56096C25.5984 8.49074 25.6134 8.41547 25.6134 8.33946C25.6134 8.26344 25.5984 8.18817 25.5693 8.11795C25.5401 8.04774 25.4974 7.98339 25.4436 7.92969Z" fill="#F55306"/>
</g>
<path d="M36.393 11.4124C35.5093 11.4124 34.7931 11.138 34.2442 10.5891C33.7009 10.0348 33.4292 9.28014 33.4292 8.32514C33.4292 7.35917 33.7009 6.60451 34.2442 6.06115C34.7876 5.51231 35.5395 5.23788 36.5 5.23788C36.8952 5.23788 37.2547 5.26533 37.5785 5.32021C37.7102 5.34216 37.82 5.40803 37.9078 5.51779C37.9956 5.62208 38.0395 5.74282 38.0395 5.88003V5.91296C38.0395 6.02822 37.9929 6.12153 37.8996 6.19288C37.8063 6.26423 37.702 6.28618 37.5867 6.25874C37.2629 6.18739 36.9418 6.15171 36.6235 6.15171C35.9594 6.15171 35.4544 6.33558 35.1087 6.7033C34.7684 7.06554 34.5982 7.60616 34.5982 8.32514C34.5982 9.02218 34.7656 9.56005 35.1004 9.93875C35.4407 10.312 35.899 10.4986 36.4753 10.4986C36.7113 10.4986 36.9446 10.4656 37.1751 10.3998C37.219 10.3888 37.2409 10.3586 37.2409 10.3092V8.67915C37.2409 8.62975 37.219 8.60506 37.1751 8.60506H36.146C36.0252 8.60506 35.921 8.56389 35.8332 8.48157C35.7508 8.39375 35.7097 8.28947 35.7097 8.16872C35.7097 8.04249 35.7508 7.93821 35.8332 7.85588C35.921 7.76806 36.0252 7.72416 36.146 7.72416H37.8749C38.0011 7.72416 38.1109 7.77081 38.2042 7.86411C38.2975 7.95742 38.3441 8.06719 38.3441 8.19342V10.5891C38.3441 10.7318 38.303 10.8608 38.2206 10.9761C38.1383 11.0913 38.0313 11.1682 37.8996 11.2066C37.433 11.3438 36.9308 11.4124 36.393 11.4124ZM40.2383 11.3301C40.1121 11.3301 40.0023 11.2834 39.909 11.1901C39.8157 11.0968 39.769 10.987 39.769 10.8608V7.51834C39.769 7.39211 39.8157 7.28234 39.909 7.18903C40.0023 7.09573 40.1121 7.04908 40.2383 7.04908H40.4523C40.5786 7.04908 40.6883 7.09573 40.7816 7.18903C40.875 7.28234 40.9216 7.39211 40.9216 7.51834V10.8608C40.9216 10.987 40.875 11.0968 40.7816 11.1901C40.6883 11.2834 40.5786 11.3301 40.4523 11.3301H40.2383ZM40.2383 6.14348C40.1121 6.14348 40.0023 6.09683 39.909 6.00352C39.8157 5.91022 39.769 5.80045 39.769 5.67422V5.62482C39.769 5.49859 39.8157 5.38882 39.909 5.29551C40.0023 5.20221 40.1121 5.15556 40.2383 5.15556H40.4523C40.5786 5.15556 40.6883 5.20221 40.7816 5.29551C40.875 5.38882 40.9216 5.49859 40.9216 5.62482V5.67422C40.9216 5.80045 40.875 5.91022 40.7816 6.00352C40.6883 6.09683 40.5786 6.14348 40.4523 6.14348H40.2383ZM42.4931 8.0123C42.3834 8.0123 42.2901 7.97388 42.2132 7.89704C42.1364 7.81472 42.098 7.71867 42.098 7.6089C42.098 7.49913 42.1364 7.40583 42.2132 7.32899C42.2901 7.25215 42.3834 7.21373 42.4931 7.21373H42.8883C42.9377 7.21373 42.9624 7.18903 42.9624 7.13964V6.11878C42.9624 5.99255 43.0063 5.88278 43.0941 5.78947C43.1874 5.69617 43.2972 5.64952 43.4234 5.64952H43.5881C43.7143 5.64952 43.8241 5.69617 43.9174 5.78947C44.0107 5.88278 44.0574 5.99255 44.0574 6.11878V7.13964C44.0574 7.18903 44.0821 7.21373 44.1315 7.21373H45.07C45.1798 7.21373 45.2731 7.25215 45.3499 7.32899C45.4322 7.40583 45.4734 7.49913 45.4734 7.6089C45.4734 7.71867 45.4322 7.81472 45.3499 7.89704C45.2731 7.97388 45.1798 8.0123 45.07 8.0123H44.1315C44.0821 8.0123 44.0574 8.03426 44.0574 8.07816V9.74117C44.0574 10.0979 44.0958 10.3284 44.1726 10.4327C44.2495 10.537 44.4086 10.5891 44.6501 10.5891C44.7818 10.5891 44.8806 10.5836 44.9465 10.5727C45.0563 10.5617 45.1523 10.5864 45.2346 10.6468C45.317 10.7071 45.3581 10.7895 45.3581 10.8937C45.3581 11.0145 45.317 11.1243 45.2346 11.2231C45.1578 11.3164 45.0617 11.3685 44.9465 11.3795C44.705 11.4014 44.5239 11.4124 44.4031 11.4124C43.8708 11.4124 43.4975 11.2999 43.2835 11.0749C43.0694 10.8443 42.9624 10.4355 42.9624 9.84819V8.07816C42.9624 8.03426 42.9377 8.0123 42.8883 8.0123H42.4931Z" fill="#F55306"/>
<defs>
<clipPath id="clip0_1343_3259">
<rect width="8.98112" height="8.98112" fill="white" transform="translate(16.6318 3.83984)"/>
</clipPath>
</defs>
</svg>
