<svg width="60" height="15" viewBox="0 0 60 15" fill="none" xmlns="http://www.w3.org/2000/svg">
<rect x="0.474609" y="0.0341797" width="59.1257" height="14.9685" rx="7.48427" fill="#1F2C24"/>
<g clip-path="url(#clip0_1343_3207)">
<path d="M14.1687 6.08799C13.9138 6.15348 13.7033 6.18856 13.4881 6.26574C13.3174 6.31018 13.1443 6.35696 12.9455 6.40841L12.9315 6.41075C12.8332 6.43882 12.8239 6.44116 12.7327 6.33591C12.6227 6.21195 12.5432 6.13243 12.3912 6.05759C11.9304 5.83306 11.4861 5.89855 11.0721 6.16751C10.5763 6.48793 10.3213 6.96272 10.3283 7.5521C10.3354 8.13681 10.7353 8.61627 11.2919 8.69579C11.8065 8.76128 12.2228 8.58821 12.5502 8.21633C12.5994 8.15552 12.6438 8.09237 12.6929 8.02221C12.7116 7.99882 12.728 7.97309 12.7467 7.94503H11.3411C11.189 7.94503 11.1516 7.85147 11.2031 7.72752C11.2966 7.50065 11.472 7.12176 11.5749 6.93231C11.596 6.89021 11.6475 6.79666 11.7363 6.79666H14.1009C14.2061 6.48326 14.3769 6.16751 14.6061 5.86814C15.137 5.16883 15.7591 4.80397 16.6455 4.65195C17.3893 4.52097 18.0886 4.59348 18.7248 5.02382C19.3001 5.41675 19.6556 5.95 19.7515 6.64931C19.8755 7.63396 19.5901 8.43384 18.8932 9.11912C18.4324 9.60794 17.843 9.91433 17.1648 10.0523C17.0338 10.0757 16.9052 10.0874 16.7789 10.0991C16.711 10.1038 16.6455 10.1108 16.5801 10.1178C15.9182 10.1038 15.3124 9.91433 14.8025 9.47696C14.4447 9.1659 14.1968 8.78467 14.0752 8.34263C13.9886 8.51336 13.8881 8.67942 13.7477 8.83612C13.2425 9.52842 12.5573 9.95876 11.6919 10.0734C10.9762 10.1693 10.3143 10.0313 9.72961 9.59391C9.19167 9.18461 8.88529 8.64668 8.80577 7.97543C8.70987 7.18023 8.94376 6.44583 9.42322 5.84008C9.94244 5.16181 10.6277 4.73147 11.465 4.57944C12.1503 4.43444 12.8052 4.53501 13.3969 4.93729C13.7828 5.19222 14.0588 5.5407 14.2412 5.96403C14.2857 6.02952 14.2553 6.06694 14.1687 6.08799ZM5.94069 6.21897C5.91146 6.21897 5.90421 6.20493 5.91871 6.18155L6.0719 5.98508C6.0864 5.96403 6.12289 5.95 6.15212 5.95H8.75431C8.78238 5.95 8.78939 5.97105 8.77536 5.9921L8.6514 6.18155C8.63737 6.20493 8.59995 6.22598 8.5789 6.22598L5.94069 6.21897ZM4.84018 6.89021C4.81104 6.89021 4.80374 6.87384 4.81833 6.85279L4.97136 6.65633C4.98596 6.63528 5.0224 6.61891 5.05147 6.61891H8.37542C8.40349 6.61891 8.41752 6.6423 8.4105 6.66335L8.35203 6.83876C8.34502 6.86682 8.31695 6.8832 8.28655 6.8832L4.84018 6.89021ZM6.582 7.51702C6.5675 7.53807 6.57475 7.55912 6.60375 7.55912L8.19299 7.56614C8.21404 7.56614 8.24445 7.54509 8.24445 7.51702L8.25848 7.34161C8.25848 7.3112 8.24445 7.29015 8.21404 7.29015H6.75695C6.72771 7.29015 6.69871 7.3112 6.68398 7.33459L6.582 7.51702ZM18.3108 7.09603C18.3061 7.03522 18.3038 6.98377 18.2944 6.93231C18.1634 6.21195 17.4992 5.80265 16.8069 5.96403C16.1287 6.11606 15.6913 6.5464 15.5323 7.23168C15.4013 7.80002 15.6773 8.37537 16.2012 8.60926C16.6034 8.78467 17.0034 8.76362 17.3893 8.56482C17.9646 8.24674 18.278 7.80002 18.3155 7.17321C18.3131 7.14515 18.3131 7.11942 18.3108 7.09603Z" fill="#9AE6B4"/>
</g>
<path d="M30.6549 10.6009C29.7712 10.6009 29.055 10.3265 28.5061 9.77761C27.9628 9.22328 27.6911 8.46861 27.6911 7.51362C27.6911 6.54765 27.9628 5.79299 28.5061 5.24963C29.0495 4.70078 29.8014 4.42636 30.7619 4.42636C31.1571 4.42636 31.5166 4.4538 31.8404 4.50869C31.9721 4.53064 32.0819 4.5965 32.1697 4.70627C32.2575 4.81055 32.3014 4.9313 32.3014 5.06851V5.10144C32.3014 5.2167 32.2548 5.31 32.1615 5.38135C32.0682 5.4527 31.9639 5.47466 31.8486 5.44721C31.5248 5.37586 31.2037 5.34019 30.8854 5.34019C30.2213 5.34019 29.7164 5.52405 29.3706 5.89178C29.0303 6.25402 28.8602 6.79463 28.8602 7.51362C28.8602 8.21066 29.0275 8.74853 29.3623 9.12723C29.7026 9.50044 30.1609 9.68705 30.7372 9.68705C30.9732 9.68705 31.2065 9.65412 31.437 9.58826C31.4809 9.57728 31.5028 9.5471 31.5028 9.4977V7.86763C31.5028 7.81823 31.4809 7.79353 31.437 7.79353H30.4079C30.2872 7.79353 30.1829 7.75237 30.0951 7.67004C30.0127 7.58223 29.9716 7.47795 29.9716 7.3572C29.9716 7.23096 30.0127 7.12668 30.0951 7.04436C30.1829 6.95654 30.2872 6.91263 30.4079 6.91263H32.1368C32.263 6.91263 32.3728 6.95929 32.4661 7.05259C32.5594 7.14589 32.606 7.25566 32.606 7.3819V9.77761C32.606 9.92031 32.5649 10.0493 32.4825 10.1645C32.4002 10.2798 32.2932 10.3566 32.1615 10.3951C31.6949 10.5323 31.1927 10.6009 30.6549 10.6009ZM36.3032 7.29957C36.144 7.06905 35.9025 6.9538 35.5787 6.9538C35.2549 6.9538 35.0106 7.06905 34.846 7.29957C34.6868 7.5246 34.6072 7.88409 34.6072 8.37805C34.6072 8.87202 34.6868 9.23425 34.846 9.46477C35.0106 9.6898 35.2549 9.80231 35.5787 9.80231C35.9025 9.80231 36.144 9.6898 36.3032 9.46477C36.4678 9.23425 36.5501 8.87202 36.5501 8.37805C36.5501 7.88409 36.4678 7.5246 36.3032 7.29957ZM37.11 10.0246C36.7477 10.4088 36.2373 10.6009 35.5787 10.6009C34.9201 10.6009 34.4069 10.4088 34.0392 10.0246C33.6769 9.63491 33.4958 9.08607 33.4958 8.37805C33.4958 7.67004 33.6769 7.12394 34.0392 6.73975C34.4069 6.35007 34.9201 6.15523 35.5787 6.15523C36.2373 6.15523 36.7477 6.35007 37.11 6.73975C37.4777 7.12394 37.6615 7.67004 37.6615 8.37805C37.6615 9.08607 37.4777 9.63491 37.11 10.0246ZM39.2276 10.5186C39.1013 10.5186 38.9916 10.4719 38.8983 10.3786C38.8049 10.2853 38.7583 10.1755 38.7583 10.0493V4.8133C38.7583 4.68706 38.8049 4.57729 38.8983 4.48399C38.9916 4.39068 39.1013 4.34403 39.2276 4.34403H39.4416C39.5678 4.34403 39.6776 4.39068 39.7709 4.48399C39.8642 4.57729 39.9109 4.68706 39.9109 4.8133V10.0493C39.9109 10.1755 39.8642 10.2853 39.7709 10.3786C39.6776 10.4719 39.5678 10.5186 39.4416 10.5186H39.2276ZM43.3101 8.46038C42.5252 8.46038 42.1328 8.70187 42.1328 9.18486C42.1328 9.36049 42.1822 9.50319 42.281 9.61296C42.3853 9.72273 42.517 9.77761 42.6762 9.77761C42.989 9.77761 43.2415 9.68156 43.4336 9.48947C43.6257 9.29188 43.7217 9.02295 43.7217 8.68266V8.53447C43.7217 8.48508 43.697 8.46038 43.6476 8.46038H43.3101ZM42.3798 10.6009C42.0066 10.6009 41.6965 10.4801 41.4495 10.2386C41.208 9.99166 41.0872 9.67333 41.0872 9.28365C41.0872 8.80615 41.2684 8.43568 41.6306 8.17224C41.9983 7.90879 42.5582 7.77707 43.3101 7.77707H43.6476C43.697 7.77707 43.7217 7.75237 43.7217 7.70297V7.63711C43.7217 7.38464 43.6613 7.20901 43.5406 7.11022C43.4198 7.00594 43.2058 6.9538 42.8984 6.9538C42.5801 6.9538 42.1904 7.01143 41.7294 7.12668C41.6306 7.15413 41.54 7.13766 41.4577 7.07729C41.3754 7.01143 41.3342 6.92636 41.3342 6.82207C41.3342 6.69584 41.3726 6.58333 41.4495 6.48453C41.5263 6.38025 41.6251 6.31714 41.7459 6.29518C42.163 6.20188 42.5554 6.15523 42.9231 6.15523C43.6257 6.15523 44.1169 6.28146 44.3968 6.53393C44.6767 6.7864 44.8167 7.22822 44.8167 7.85939V10.0493C44.8167 10.1755 44.77 10.2853 44.6767 10.3786C44.5889 10.4719 44.4819 10.5186 44.3556 10.5186H44.2651C44.1333 10.5186 44.0208 10.4746 43.9275 10.3868C43.8342 10.2935 43.7848 10.181 43.7793 10.0493V9.93403C43.7793 9.92854 43.7766 9.9258 43.7711 9.9258C43.7601 9.9258 43.7546 9.92854 43.7546 9.93403C43.4198 10.3786 42.9616 10.6009 42.3798 10.6009ZM46.3771 10.5186C46.2509 10.5186 46.1411 10.4719 46.0478 10.3786C45.9545 10.2853 45.9079 10.1755 45.9079 10.0493V6.70682C45.9079 6.58058 45.9545 6.47081 46.0478 6.37751C46.1411 6.2842 46.2509 6.23755 46.3771 6.23755H46.4842C46.6159 6.23755 46.7257 6.2842 46.8135 6.37751C46.9068 6.46532 46.9562 6.57509 46.9617 6.70682V6.76445C46.9617 6.76993 46.9644 6.77268 46.9699 6.77268C46.9754 6.77268 46.9809 6.76993 46.9864 6.76445C47.3596 6.3583 47.7959 6.15523 48.2954 6.15523C48.7948 6.15523 49.157 6.29793 49.3821 6.58333C49.6126 6.86324 49.7278 7.3325 49.7278 7.99112V10.0493C49.7278 10.1755 49.6812 10.2853 49.5879 10.3786C49.4946 10.4719 49.3848 10.5186 49.2586 10.5186H49.1186C48.9924 10.5186 48.8826 10.4719 48.7893 10.3786C48.7015 10.2853 48.6576 10.1755 48.6576 10.0493V8.07344C48.6576 7.66181 48.6027 7.3819 48.4929 7.23371C48.3887 7.08003 48.1993 7.00319 47.9249 7.00319C47.6999 7.00319 47.4913 7.09924 47.2992 7.29134C47.1071 7.48343 47.0111 7.68925 47.0111 7.90879V10.0493C47.0111 10.1755 46.9644 10.2853 46.8711 10.3786C46.7778 10.4719 46.668 10.5186 46.5418 10.5186H46.3771ZM52.5655 6.9785C51.9618 6.9785 51.6599 7.41757 51.6599 8.29573C51.6599 8.75127 51.7395 9.09155 51.8986 9.31658C52.0633 9.54161 52.2856 9.65412 52.5655 9.65412C52.8125 9.65412 53.0238 9.56631 53.1994 9.39068C53.3805 9.21504 53.4711 9.00923 53.4711 8.77322V7.88409C53.4711 7.63162 53.3805 7.41757 53.1994 7.24194C53.0238 7.06631 52.8125 6.9785 52.5655 6.9785ZM52.2197 10.4774C51.7367 10.4774 51.3416 10.2853 51.0342 9.9011C50.7269 9.51142 50.5732 8.9763 50.5732 8.29573C50.5732 7.61516 50.7186 7.08826 51.0095 6.71505C51.3059 6.34183 51.7093 6.15523 52.2197 6.15523C52.4777 6.15523 52.7054 6.20188 52.903 6.29518C53.1006 6.38849 53.2955 6.54491 53.4876 6.76445C53.493 6.76993 53.4985 6.77268 53.504 6.77268C53.5095 6.77268 53.5122 6.76993 53.5122 6.76445V6.70682C53.5177 6.57509 53.5671 6.46532 53.6604 6.37751C53.7537 6.2842 53.8663 6.23755 53.998 6.23755H54.0885C54.2148 6.23755 54.3218 6.2842 54.4096 6.37751C54.5029 6.47081 54.5496 6.58058 54.5496 6.70682V10.1892C54.5496 11.6711 53.8086 12.4121 52.3267 12.4121C52.0633 12.4121 51.7861 12.3901 51.4952 12.3462C51.3635 12.3243 51.2537 12.2584 51.1659 12.1486C51.0836 12.0443 51.0424 11.9236 51.0424 11.7864C51.0424 11.6766 51.0863 11.5888 51.1742 11.5229C51.2675 11.4626 51.369 11.4461 51.4788 11.4735C51.7422 11.5394 52.0166 11.5723 52.302 11.5723C52.7082 11.5723 53.0046 11.4653 53.1912 11.2513C53.3778 11.0427 53.4711 10.6969 53.4711 10.2139V9.95873C53.4711 9.95324 53.4683 9.9505 53.4629 9.9505C53.4574 9.9505 53.4519 9.95324 53.4464 9.95873C53.1171 10.3045 52.7082 10.4774 52.2197 10.4774Z" fill="#9AE6B4"/>
<defs>
<clipPath id="clip0_1343_3207">
<rect width="14.9685" height="11.9748" fill="white" transform="translate(4.81104 1.53125)"/>
</clipPath>
</defs>
</svg>
