<svg width="20" height="21" viewBox="0 0 20 21" fill="none" xmlns="http://www.w3.org/2000/svg">
<rect x="0.175293" y="0.575195" width="19.4516" height="19.4516" rx="9.72579" fill="#193342"/>
<g clip-path="url(#clip0_1239_2270)">
<path d="M12.1971 5.97949H7.60433C6.48529 5.97949 5.57812 6.88666 5.57812 8.0057V12.5984C5.57812 13.7175 6.48529 14.6246 7.60433 14.6246H12.1971C13.3161 14.6246 14.2233 13.7175 14.2233 12.5984V8.0057C14.2233 6.88666 13.3161 5.97949 12.1971 5.97949Z" fill="white"/>
<path d="M12.1971 5.97949H7.60433C6.48529 5.97949 5.57812 6.88666 5.57812 8.0057V12.5984C5.57812 13.7175 6.48529 14.6246 7.60433 14.6246H12.1971C13.3161 14.6246 14.2233 13.7175 14.2233 12.5984V8.0057C14.2233 6.88666 13.3161 5.97949 12.1971 5.97949Z" fill="#0EACFF"/>
<path d="M11.8159 13.3297H12.8044C12.8402 13.3297 12.8745 13.3155 12.8999 13.2901C12.9252 13.2648 12.9394 13.2305 12.9394 13.1947L12.9399 11.1062C12.9399 10.0147 12.7047 9.17567 11.4291 9.17567C10.9442 9.15764 10.487 9.40761 10.2402 9.825C10.239 9.82703 10.2372 9.82861 10.235 9.8295C10.2328 9.83038 10.2304 9.83053 10.2281 9.82991C10.2258 9.82929 10.2238 9.82795 10.2224 9.82608C10.2209 9.82422 10.2201 9.82193 10.2201 9.81957V9.41152C10.2201 9.3757 10.2059 9.34134 10.1805 9.31601C10.1552 9.29067 10.1208 9.27644 10.085 9.27644H9.14699C9.11117 9.27644 9.07681 9.29067 9.05147 9.31601C9.02614 9.34134 9.01191 9.3757 9.01191 9.41152V13.1945C9.01191 13.2303 9.02614 13.2646 9.05147 13.29C9.07681 13.3153 9.11117 13.3295 9.14699 13.3295H10.1354C10.1712 13.3295 10.2056 13.3153 10.2309 13.29C10.2562 13.2646 10.2705 13.2303 10.2705 13.1945V11.3245C10.2705 10.7958 10.3708 10.2837 11.0263 10.2837C11.6725 10.2837 11.6808 10.8887 11.6808 11.3587V13.1946C11.6808 13.2304 11.6951 13.2648 11.7204 13.2901C11.7457 13.3155 11.7801 13.3297 11.8159 13.3297ZM6.86133 7.9921C6.86133 8.39275 7.19116 8.72241 7.59184 8.72241C7.99242 8.72238 8.32205 8.39251 8.32205 7.99193C8.32199 7.59135 7.99232 7.26172 7.59171 7.26172C7.19099 7.26172 6.86133 7.59145 6.86133 7.9921ZM7.09633 13.3297H8.08604C8.12186 13.3297 8.15622 13.3155 8.18155 13.2901C8.20688 13.2648 8.22112 13.2304 8.22112 13.1946V9.41152C8.22112 9.3757 8.20688 9.34134 8.18155 9.31601C8.15622 9.29067 8.12186 9.27644 8.08604 9.27644H7.09633C7.06051 9.27644 7.02615 9.29067 7.00082 9.31601C6.97549 9.34134 6.96125 9.3757 6.96125 9.41152V13.1946C6.96125 13.2304 6.97549 13.2648 7.00082 13.2901C7.02615 13.3155 7.06051 13.3297 7.09633 13.3297Z" fill="#193342"/>
</g>
<defs>
<clipPath id="clip0_1239_2270">
<rect width="8.64515" height="8.64515" fill="white" transform="translate(5.57861 5.97852)"/>
</clipPath>
</defs>
</svg>
