<svg width="80" height="80" viewBox="0 0 80 80" fill="none" xmlns="http://www.w3.org/2000/svg">
<rect x="0.883301" y="0.00488281" width="79" height="80" rx="10" fill="#271735"/>
<path d="M54.4265 23.5661C54.7098 23.5767 54.9923 23.53 55.2571 23.4289C55.5219 23.3278 55.7636 23.1743 55.9678 22.9777C56.1719 22.781 56.3343 22.5452 56.4452 22.2843C56.5561 22.0235 56.6133 21.7429 56.6133 21.4594C56.6133 21.176 56.5561 20.8954 56.4452 20.6346C56.3343 20.3737 56.1719 20.1379 55.9678 19.9412C55.7636 19.7446 55.5219 19.5911 55.2571 19.49C54.9923 19.3889 54.7098 19.3422 54.4265 19.3528C54.381 19.3528 54.3384 19.3616 54.2915 19.3645L53.5839 16.5752C53.8178 16.3996 54.0125 16.1771 54.1554 15.9218C54.2983 15.6666 54.3863 15.3843 54.4137 15.093C54.4411 14.8018 54.4074 14.508 54.3146 14.2306C54.2218 13.9532 54.0721 13.6982 53.875 13.482C53.678 13.2658 53.4379 13.0932 53.1702 12.9752C52.9025 12.8573 52.6131 12.7965 52.3206 12.797C52.0281 12.7974 51.7389 12.8589 51.4715 12.9777C51.2042 13.0964 50.9646 13.2697 50.7681 13.4865L43.5894 10.1496C43.6647 9.93636 43.7044 9.71216 43.7068 9.48601C43.7142 9.20459 43.6652 8.92452 43.5626 8.66235C43.4601 8.40017 43.306 8.1612 43.1096 7.95952C42.9132 7.75784 42.6784 7.59755 42.419 7.4881C42.1596 7.37865 41.8809 7.32227 41.5994 7.32227C41.3179 7.32227 41.0392 7.37865 40.7798 7.4881C40.5205 7.59755 40.2856 7.75784 40.0892 7.95952C39.8928 8.1612 39.7387 8.40017 39.6362 8.66235C39.5336 8.92452 39.4846 9.20459 39.492 9.48601C39.4941 9.5579 39.5015 9.62954 39.514 9.70035L34.9425 11.1023C34.6268 10.7101 34.1807 10.4444 33.6854 10.3536C33.1901 10.2629 32.6788 10.3532 32.2445 10.608C31.8103 10.8629 31.4821 11.2653 31.3198 11.742C31.1575 12.2186 31.172 12.7377 31.3605 13.2046L27.0591 17.045C26.7353 16.8449 26.3622 16.7387 25.9815 16.7382C25.4779 16.7358 24.9902 16.9143 24.6073 17.2414C24.2243 17.5684 23.9715 18.0221 23.895 18.5198C23.8185 19.0176 23.9234 19.5263 24.1905 19.9532C24.4576 20.3801 24.8692 20.6969 25.3503 20.8458L25.0655 23.5852C24.7444 23.6297 24.438 23.7478 24.1702 23.9304C23.9024 24.1129 23.6804 24.3549 23.5216 24.6374C23.3628 24.9199 23.2715 25.2354 23.2548 25.559C23.238 25.8827 23.2964 26.2059 23.4252 26.5033C23.5541 26.8006 23.7499 27.0642 23.9975 27.2734C24.2451 27.4825 24.5377 27.6316 24.8524 27.709C25.1671 27.7864 25.4955 27.7899 25.8118 27.7193C26.1282 27.6488 26.4239 27.5061 26.6759 27.3023L28.0941 27.9262L28.0897 27.9703C28.0918 28.4952 28.2899 29.0005 28.6453 29.3869C29.0007 29.7733 29.4876 30.013 30.0106 30.0589C30.5335 30.1049 31.0548 29.9538 31.4721 29.6353C31.8894 29.3168 32.1726 28.8538 32.2663 28.3373H33.887C34.0142 28.7953 34.2931 29.1966 34.6781 29.4755C35.063 29.7545 35.5313 29.8945 36.0061 29.8726C36.481 29.8508 36.9344 29.6684 37.2922 29.3554C37.65 29.0423 37.8909 28.6171 37.9755 28.1494L42.5368 28.2991C42.8703 28.5878 43.2879 28.7615 43.7279 28.7946C44.1678 28.8276 44.6066 28.7182 44.9796 28.4826C47.5541 29.888 49.7259 31.9294 51.2878 34.4121C51.1841 34.6619 51.1307 34.9298 51.1307 35.2004C51.1287 35.5607 51.2191 35.9154 51.3932 36.2309C51.5673 36.5463 51.8193 36.8118 52.1252 37.0021C52.4311 37.1924 52.7807 37.3011 53.1406 37.3179C53.5005 37.3347 53.8587 37.259 54.181 37.098C54.5032 36.937 54.7789 36.6961 54.9816 36.3982C55.1843 36.1004 55.3073 35.7556 55.3389 35.3967C55.3704 35.0378 55.3094 34.6768 55.1618 34.3482C55.0142 34.0196 54.7848 33.7343 54.4955 33.5195C53.7572 32.4468 53.2392 31.2383 52.9717 29.9639C53.3331 29.8491 53.6564 29.638 53.907 29.3534C54.1575 29.0687 54.3257 28.7212 54.3937 28.3481C54.4616 27.975 54.4266 27.5905 54.2924 27.2358C54.1583 26.8811 53.9301 26.5696 53.6323 26.3348L54.4265 23.5661ZM55.256 21.4594C55.2557 21.6231 55.2069 21.783 55.1158 21.9189C55.0247 22.0548 54.8954 22.1607 54.7442 22.2232C54.5929 22.2857 54.4266 22.302 54.2661 22.27C54.1056 22.238 53.9582 22.1592 53.8425 22.0434C53.7268 21.9277 53.648 21.7803 53.616 21.6199C53.584 21.4594 53.6003 21.293 53.6627 21.1418C53.7252 20.9906 53.8311 20.8612 53.9671 20.7701C54.103 20.6791 54.2629 20.6303 54.4265 20.63C54.6465 20.63 54.8575 20.7174 55.013 20.8729C55.1686 21.0285 55.256 21.2395 55.256 21.4594ZM53.5765 19.5334C53.2322 19.6865 52.9355 19.9296 52.7175 20.237C52.4994 20.5443 52.3682 20.9047 52.3375 21.2803H50.6918C50.6674 20.9936 50.5843 20.7149 50.4477 20.4616C50.3111 20.2083 50.1238 19.9858 49.8976 19.8079L51.9631 16.9701C52.2794 17.0337 52.6069 17.0135 52.913 16.9114L53.5765 19.5334ZM50.2382 27.706L45.9837 26.6167C45.9667 26.1419 45.788 25.6871 45.4773 25.3278L47.1949 23.0156C47.4589 23.2633 47.7844 23.4357 48.1375 23.515C48.4907 23.5942 48.8587 23.5774 49.2032 23.4663L51.0412 26.3055C50.8215 26.4744 50.6375 26.6851 50.4997 26.9255C50.3618 27.1658 50.273 27.4311 50.2382 27.706ZM34.8823 13.8153L40.8735 16.9511C40.7466 17.3234 40.7378 17.7259 40.8485 18.1035L37.0022 20.0809C36.8062 19.8533 36.5636 19.6703 36.2909 19.5445C36.0181 19.4186 35.7215 19.3527 35.4211 19.3513C35.4035 19.3523 35.3864 19.3543 35.3697 19.3572L33.9854 14.4099C34.3309 14.293 34.6401 14.0881 34.8823 13.8153ZM51.2496 16.7059L49.2428 19.46C48.9044 19.3426 48.5408 19.3177 48.1895 19.3879C47.8382 19.4581 47.5121 19.6208 47.2448 19.8593L44.9091 18.0976C44.9896 17.8463 45.0072 17.5792 44.9605 17.3195L50.4026 15.7634C50.5824 16.1557 50.878 16.4836 51.2496 16.703M48.6013 22.2845C48.4376 22.2842 48.2776 22.2354 48.1417 22.1442C48.0057 22.0531 47.8998 21.9237 47.8374 21.7723C47.7749 21.621 47.7587 21.4546 47.7909 21.2941C47.823 21.1336 47.9019 20.9862 48.0178 20.8705C48.1337 20.7549 48.2812 20.6762 48.4418 20.6443C48.6023 20.6125 48.7687 20.629 48.9199 20.6917C49.0712 20.7544 49.2004 20.8605 49.2913 20.9967C49.3822 21.1328 49.4307 21.2928 49.4307 21.4565C49.4303 21.6762 49.3428 21.8868 49.1873 22.0421C49.0318 22.1973 48.821 22.2845 48.6013 22.2845ZM42.8773 18.3942C42.7137 18.3939 42.5538 18.3451 42.4179 18.254C42.282 18.1629 42.1761 18.0336 42.1136 17.8823C42.0511 17.7311 42.0348 17.5648 42.0668 17.4043C42.0988 17.2438 42.1776 17.0964 42.2933 16.9807C42.4091 16.865 42.5565 16.7862 42.7169 16.7542C42.8774 16.7222 43.0438 16.7385 43.195 16.8009C43.3462 16.8634 43.4756 16.9693 43.5666 17.1053C43.6577 17.2412 43.7065 17.4011 43.7068 17.5647C43.7064 17.7844 43.6188 17.995 43.4633 18.1503C43.3078 18.3055 43.0971 18.3942 42.8773 18.3942ZM35.4196 20.6256C35.5833 20.6256 35.7434 20.6741 35.8795 20.765C36.0156 20.8559 36.1217 20.9852 36.1845 21.1364C36.2472 21.2876 36.2637 21.454 36.2318 21.6146C36.2 21.7751 36.1213 21.9227 36.0056 22.0385C35.89 22.1544 35.7426 22.2334 35.5821 22.2655C35.4216 22.2976 35.2551 22.2814 35.1038 22.2189C34.9525 22.1565 34.8231 22.0506 34.7319 21.9146C34.6408 21.7787 34.592 21.6187 34.5917 21.455C34.5917 21.2351 34.6791 21.0241 34.8346 20.8685C34.9902 20.713 35.2011 20.6256 35.4211 20.6256M37.5292 21.455C37.5286 21.1982 37.4798 20.9437 37.3854 20.7049L41.1553 18.767C41.3486 19.0456 41.6064 19.2733 41.9068 19.4305C42.2072 19.5878 42.5412 19.6699 42.8803 19.6699L42.9155 19.667L42.2784 25.04L36.5442 25.7652C36.4293 25.7285 36.3114 25.702 36.1918 25.686L35.7558 23.5279C36.2493 23.4489 36.6985 23.197 37.0234 22.8173C37.3482 22.4376 37.5275 21.9548 37.5292 21.455ZM35.9085 26.9397C36.0721 26.94 36.232 26.9887 36.368 27.0798C36.5039 27.1709 36.6098 27.3003 36.6723 27.4515C36.7348 27.6027 36.751 27.7691 36.719 27.9296C36.687 28.09 36.6082 28.2374 36.4925 28.3531C36.3768 28.4688 36.2294 28.5477 36.0689 28.5797C35.9085 28.6117 35.7421 28.5954 35.5909 28.5329C35.4396 28.4704 35.3103 28.3645 35.2192 28.2286C35.1281 28.0926 35.0793 27.9328 35.0791 27.7691C35.0791 27.5491 35.1664 27.3382 35.322 27.1826C35.4775 27.0271 35.6885 26.9397 35.9085 26.9397ZM37.4881 26.3892L41.9701 25.824C41.8444 26.0934 41.7786 26.3869 41.7774 26.6842C41.7761 26.9815 41.8394 27.2755 41.9628 27.546L37.9799 27.4168C37.9161 27.0348 37.7456 26.6785 37.4881 26.3892ZM43.673 19.5157C44.0442 19.3636 44.3645 19.1091 44.5964 18.7817L46.778 20.4259C46.6012 20.725 46.5043 21.0645 46.4966 21.4118C46.4889 21.7592 46.5706 22.1026 46.7339 22.4093L44.9091 24.8609C44.6295 24.699 44.3155 24.6053 43.9929 24.5875C43.6702 24.5696 43.3479 24.6281 43.052 24.7582L43.673 19.5157ZM52.3199 14.0722C52.4836 14.0722 52.6437 14.1208 52.7799 14.2117C52.916 14.3027 53.0221 14.432 53.0848 14.5833C53.1475 14.7346 53.1639 14.9011 53.1319 15.0617C53.1 15.2223 53.0211 15.3699 52.9053 15.4857C52.7895 15.6015 52.642 15.6803 52.4814 15.7123C52.3208 15.7442 52.1543 15.7278 52.003 15.6651C51.8517 15.6025 51.7224 15.4964 51.6314 15.3602C51.5404 15.224 51.4919 15.0639 51.4919 14.9002C51.4923 14.6805 51.5798 14.4699 51.7353 14.3146C51.8908 14.1594 52.1001 14.0722 52.3199 14.0722ZM50.3718 14.1104C50.2678 14.3607 50.2144 14.6291 50.2147 14.9002C50.2147 14.9516 50.2264 15 50.2294 15.0514L44.7506 16.6163C44.5763 16.2694 44.3092 15.9777 43.979 15.7734C43.6489 15.5692 43.2685 15.4605 42.8803 15.4595C42.8172 15.4595 42.7555 15.4742 42.6938 15.4786L41.929 11.5589C42.4459 11.4767 42.9134 11.2045 43.24 10.7955L50.3718 14.1104ZM41.5987 8.6551C41.7624 8.6551 41.9224 8.70362 42.0585 8.79454C42.1947 8.88545 42.3008 9.01468 42.3635 9.16589C42.4262 9.31709 42.4427 9.4835 42.4109 9.64407C42.379 9.80464 42.3003 9.95218 42.1847 10.068C42.069 10.1839 41.9216 10.2629 41.7611 10.295C41.6006 10.3271 41.4342 10.3109 41.2828 10.2485C41.1315 10.186 41.0021 10.0801 40.9109 9.94415C40.8198 9.80818 40.771 9.64824 40.7707 9.48455C40.7707 9.26482 40.8579 9.05407 41.0131 8.89856C41.1684 8.74305 41.3789 8.65549 41.5987 8.6551ZM39.7137 10.405C39.8543 10.6943 40.0592 10.9477 40.3125 11.1459C40.5659 11.3441 40.8612 11.4818 41.1759 11.5486L41.9804 15.6665C41.6765 15.8119 41.4117 16.0278 41.2082 16.2963L35.2699 13.1899C35.4577 12.7334 35.4698 12.2234 35.3037 11.7586L39.7137 10.405ZM33.313 11.5912C33.4767 11.5912 33.6367 11.6397 33.7728 11.7306C33.909 11.8216 34.0151 11.9508 34.0778 12.102C34.1405 12.2532 34.157 12.4196 34.1252 12.5802C34.0933 12.7407 34.0146 12.8883 33.899 13.0041C33.7833 13.12 33.6359 13.199 33.4754 13.2311C33.3149 13.2632 33.1485 13.247 32.9972 13.1846C32.8458 13.1221 32.7164 13.0162 32.6253 12.8803C32.5341 12.7443 32.4853 12.5843 32.485 12.4207C32.485 12.2009 32.5722 11.9902 32.7274 11.8347C32.8827 11.6791 33.0933 11.5916 33.313 11.5912ZM33.2543 14.5214L34.6489 19.5011C34.2458 19.6603 33.9014 19.9396 33.6624 20.3012L28.0853 18.8786L28.0897 18.8448C28.0873 18.3647 27.9193 17.9001 27.614 17.5295L31.7598 13.8314C31.9494 14.041 32.1794 14.2102 32.4359 14.3287C32.6925 14.4473 32.9703 14.5128 33.2528 14.5214M26.1973 25.6595C26.1973 25.8233 26.1488 25.9834 26.0578 26.1195C25.9668 26.2557 25.8375 26.3618 25.6862 26.4245C25.5349 26.4872 25.3684 26.5036 25.2078 26.4716C25.0472 26.4397 24.8997 26.3608 24.7839 26.245C24.6681 26.1292 24.5892 25.9817 24.5573 25.8211C24.5253 25.6605 24.5417 25.494 24.6044 25.3427C24.6671 25.1914 24.7732 25.0621 24.9094 24.9711C25.0455 24.8801 25.2056 24.8316 25.3694 24.8316C25.5888 24.8319 25.7992 24.9193 25.9544 25.0745C26.1096 25.2297 26.197 25.4401 26.1973 25.6595ZM25.801 23.5969L26.0784 20.9427C26.4857 20.9241 26.8788 20.7873 27.2096 20.549C27.5404 20.3107 27.7947 19.9813 27.9414 19.6009L33.3702 20.9853C33.3002 21.262 33.2932 21.551 33.3497 21.8309L26.9739 24.3119C26.6736 23.949 26.2599 23.6977 25.7995 23.5984M25.9786 18.0169C26.1423 18.0169 26.3023 18.0654 26.4385 18.1563C26.5746 18.2472 26.6807 18.3764 26.7434 18.5277C26.8061 18.6789 26.8226 18.8453 26.7908 19.0058C26.759 19.1664 26.6802 19.3139 26.5646 19.4298C26.4489 19.5457 26.3015 19.6246 26.141 19.6567C25.9805 19.6889 25.8141 19.6727 25.6628 19.6102C25.5114 19.5478 25.382 19.4419 25.2909 19.3059C25.1997 19.1699 25.1509 19.01 25.1506 18.8463C25.1506 18.6266 25.2378 18.4158 25.393 18.2603C25.5483 18.1048 25.7589 18.0173 25.9786 18.0169ZM27.178 26.7224C27.3388 26.4606 27.4375 26.1654 27.4666 25.8595C27.4956 25.5537 27.4541 25.2452 27.3454 24.9578L33.6081 22.5208C33.7496 22.7632 33.9382 22.9747 34.1629 23.1429C34.3876 23.3111 34.6437 23.4325 34.9161 23.5L32.1782 27.292C32.041 26.8846 31.782 26.5292 31.4362 26.2738C31.0904 26.0184 30.6744 25.8755 30.2447 25.8642C29.815 25.853 29.3922 25.9741 29.0335 26.2111C28.6748 26.4481 28.3976 26.7895 28.2394 27.1893L27.178 26.7224ZM30.1934 28.7997C30.0297 28.7994 29.8699 28.7506 29.7339 28.6596C29.598 28.5685 29.4921 28.4391 29.4296 28.2879C29.3671 28.1367 29.3509 27.9703 29.3828 27.8098C29.4148 27.6494 29.4937 27.502 29.6094 27.3863C29.7251 27.2705 29.8725 27.1917 30.033 27.1597C30.1934 27.1277 30.3598 27.144 30.511 27.2065C30.6623 27.269 30.7916 27.3749 30.8827 27.5108C30.9738 27.6467 31.0225 27.8066 31.0228 27.9703C31.0228 28.1902 30.9354 28.4012 30.7799 28.5568C30.6243 28.7123 30.4134 28.7997 30.1934 28.7997ZM35.195 23.9463L35.4578 25.7109C35.0164 25.8076 34.618 26.0441 34.3218 26.3853C34.0256 26.7265 33.8474 27.1541 33.8136 27.6047H32.786L35.195 23.9463ZM43.88 27.521C43.7164 27.5207 43.5565 27.472 43.4206 27.3809C43.2846 27.2898 43.1787 27.1605 43.1163 27.0092C43.0538 26.858 43.0375 26.6916 43.0695 26.5312C43.1015 26.3707 43.1803 26.2233 43.296 26.1076C43.4117 25.9919 43.5591 25.913 43.7196 25.8811C43.8801 25.8491 44.0464 25.8653 44.1977 25.9278C44.3489 25.9903 44.4782 26.0962 44.5693 26.2321C44.6604 26.3681 44.7092 26.5279 44.7095 26.6916C44.7095 26.9116 44.6221 27.1225 44.4665 27.2781C44.311 27.4336 44.1 27.521 43.88 27.521ZM53.2359 36.0284C53.0722 36.0284 52.9121 35.9798 52.7759 35.8888C52.6398 35.7979 52.5336 35.6686 52.471 35.5173C52.4083 35.366 52.3919 35.1995 52.4239 35.0389C52.4558 34.8783 52.5347 34.7307 52.6505 34.6149C52.7662 34.4991 52.9138 34.4203 53.0744 34.3883C53.235 34.3564 53.4015 34.3728 53.5528 34.4355C53.7041 34.4981 53.8334 34.6042 53.9244 34.7404C54.0153 34.8766 54.0639 35.0366 54.0639 35.2004C54.0635 35.4199 53.9762 35.6303 53.821 35.7854C53.6658 35.9406 53.4554 36.028 53.2359 36.0284ZM53.2359 33.0923C52.9561 33.0923 52.679 33.1483 52.4211 33.257C52.1632 33.3656 51.9296 33.5248 51.7341 33.725C50.1723 31.3303 48.0511 29.3517 45.5536 27.96C45.6762 27.8001 45.7747 27.623 45.8458 27.4344L50.2837 28.4958C50.3969 28.9371 50.6506 29.3296 51.0066 29.6141C51.3625 29.8985 51.8013 30.0594 52.2567 30.0725C52.438 31.148 52.8243 32.1787 53.3945 33.1084C53.3402 33.104 53.2902 33.0923 53.2359 33.0923ZM52.3169 28.8012C52.1532 28.8012 51.9932 28.7526 51.8571 28.6617C51.7209 28.5708 51.6148 28.4416 51.5521 28.2904C51.4894 28.1392 51.4729 27.9728 51.5047 27.8122C51.5366 27.6516 51.6153 27.5041 51.7309 27.3882C51.8466 27.2724 51.994 27.1934 52.1545 27.1613C52.315 27.1292 52.4814 27.1454 52.6328 27.2078C52.7841 27.2703 52.9135 27.3762 53.0047 27.5121C53.0958 27.6481 53.1446 27.808 53.1449 27.9717C53.1449 28.1915 53.0577 28.4022 52.9025 28.5577C52.7472 28.7132 52.5367 28.8008 52.3169 28.8012ZM52.9687 25.9781C52.5566 25.8286 52.1056 25.8255 51.6915 25.9693L49.8579 23.1389C50.2293 22.8602 50.4977 22.4663 50.6213 22.0188H52.4021C52.4916 22.3397 52.6557 22.6349 52.8809 22.8803C53.1062 23.1257 53.3863 23.3144 53.6984 23.431L52.9687 25.9781Z" fill="#9747FF"/>
<path d="M32.0695 69.1113C31.8506 69.1113 31.6602 69.0304 31.4984 68.8686C31.3366 68.7068 31.2557 68.5164 31.2557 68.2975V59.502C31.2557 59.283 31.3366 59.0926 31.4984 58.9308C31.6602 58.769 31.8506 58.6881 32.0695 58.6881H32.4265C32.674 58.6881 32.9024 58.7547 33.1119 58.888C33.3213 59.0213 33.4736 59.1974 33.5688 59.4163L36.0675 64.8135C36.0675 64.823 36.0722 64.8278 36.0818 64.8278C36.0913 64.8278 36.096 64.823 36.096 64.8135L38.5948 59.4163C38.69 59.1974 38.8423 59.0213 39.0517 58.888C39.2611 58.7547 39.4895 58.6881 39.737 58.6881H40.1511C40.37 58.6881 40.5604 58.769 40.7222 58.9308C40.8841 59.0926 40.965 59.283 40.965 59.502V68.2975C40.965 68.5164 40.8841 68.7068 40.7222 68.8686C40.5604 69.0304 40.37 69.1113 40.1511 69.1113H39.837C39.618 69.1113 39.4277 69.0304 39.2658 68.8686C39.104 68.7068 39.0231 68.5164 39.0231 68.2975V62.0864C39.0231 62.0768 39.0184 62.0721 39.0088 62.0721C38.9993 62.0721 38.9946 62.0768 38.9946 62.0864L37.2812 65.7559C37.1764 65.9748 37.0146 66.1557 36.7957 66.2985C36.5863 66.4317 36.3626 66.4984 36.1246 66.4984H36.0389C35.801 66.4984 35.5725 66.4317 35.3536 66.2985C35.1441 66.1557 34.9871 65.9748 34.8824 65.7559L33.169 62.0864C33.169 62.0768 33.1642 62.0721 33.1547 62.0721C33.1452 62.0721 33.1404 62.0768 33.1404 62.0864V68.2975C33.1404 68.5164 33.0595 68.7068 32.8977 68.8686C32.7359 69.0304 32.5455 69.1113 32.3265 69.1113H32.0695ZM44.019 69.1113C43.8001 69.1113 43.6097 69.0304 43.4479 68.8686C43.2956 68.7068 43.2194 68.5164 43.2194 68.2975V59.502C43.2194 59.283 43.2956 59.0926 43.4479 58.9308C43.6097 58.769 43.8001 58.6881 44.019 58.6881H44.4759C44.6948 58.6881 44.8852 58.769 45.047 58.9308C45.2089 59.0926 45.2898 59.283 45.2898 59.502V67.3265C45.2898 67.4122 45.3278 67.455 45.404 67.455H49.0736C49.2925 67.455 49.4781 67.5359 49.6304 67.6978C49.7922 67.8501 49.8731 68.0357 49.8731 68.2546V68.2975C49.8731 68.5164 49.7922 68.7068 49.6304 68.8686C49.4781 69.0304 49.2925 69.1113 49.0736 69.1113H44.019Z" fill="#743EB0"/>
</svg>
