<svg width="72" height="16" viewBox="0 0 72 16" fill="none" xmlns="http://www.w3.org/2000/svg">
<rect x="0.600586" y="0.266602" width="71.1006" height="14.9685" rx="7.48427" fill="#193342"/>
<g clip-path="url(#clip0_1343_3271)">
<path fill-rule="evenodd" clip-rule="evenodd" d="M14.5671 8.64776C14.5355 8.44302 14.3636 8.30893 14.1635 8.29988C14.0911 8.29658 14.0176 8.30416 13.9454 8.31335C13.8582 8.32444 13.772 8.34409 13.685 8.35707C13.6249 8.36605 13.5639 8.37019 13.5038 8.37636L13.5024 8.36857C13.6145 8.15682 13.7313 7.94737 13.8374 7.7326C13.9187 7.56785 13.9883 7.39714 14.0602 7.22783C14.1792 6.94731 14.2743 6.65809 14.353 6.36417C14.4285 6.08274 14.493 5.79822 14.5133 5.50626C14.5214 5.38965 14.527 5.27254 14.5264 5.15579C14.5259 5.06268 14.5158 4.96943 14.5065 4.8766C14.496 4.77023 14.4638 4.6694 14.4193 4.57236C14.3607 4.44452 14.2697 4.33963 14.174 4.23999C14.0974 4.16022 14.0132 4.08752 13.9296 4.0149C13.8104 3.91127 13.6765 3.82854 13.5374 3.75508C13.3797 3.67134 13.2128 3.60657 13.0399 3.56213C12.9351 3.5354 12.828 3.51554 12.7219 3.49435C12.6837 3.48663 12.6455 3.4707 12.6073 3.4707H11.8888C11.8628 3.4707 11.8371 3.4841 11.8109 3.48705C11.6388 3.50621 11.4688 3.53862 11.3037 3.58977C11.242 3.60893 11.1856 3.59686 11.1269 3.59146C11.0819 3.58732 11.0377 3.57525 10.9928 3.573C10.8214 3.56444 10.6499 3.55188 10.4786 3.55371C10.3145 3.55539 10.152 3.58241 9.99319 3.62752C9.86023 3.66527 9.73014 3.71137 9.611 3.78125C9.55999 3.81114 9.51958 3.80553 9.46681 3.7903C9.2895 3.73915 9.11093 3.69109 8.93082 3.65075C8.81856 3.62563 8.70314 3.61314 8.58849 3.60114C8.47847 3.58969 8.36803 3.58281 8.25745 3.58051C8.14953 3.5782 8.04085 3.57827 7.93342 3.58781C7.76233 3.60271 7.59368 3.63836 7.43118 3.69397C7.25122 3.7554 7.08307 3.84711 6.93399 3.96516C6.78195 4.08549 6.66 4.23241 6.56191 4.40018C6.45856 4.57721 6.38769 4.76672 6.34363 4.96578C6.31977 5.07362 6.30468 5.18448 6.28834 5.29401C6.28321 5.32811 6.3397 5.36221 6.26953 5.39617V5.87287C6.3397 5.90459 6.28413 5.93623 6.2882 5.96802C6.29795 6.04443 6.30658 6.12147 6.31949 6.19732C6.33991 6.31737 6.36411 6.43707 6.38881 6.55635C6.42311 6.72307 6.45927 6.88939 6.49729 7.05529C6.52507 7.17598 6.55672 7.29596 6.58983 7.41531C6.64042 7.5976 6.69024 7.78024 6.74743 7.96049C6.80054 8.12798 6.86137 8.29308 6.92172 8.45818C7.00528 8.68656 7.10534 8.90758 7.22532 9.11941C7.32909 9.30282 7.44767 9.47459 7.60674 9.6159C7.71156 9.70901 7.82825 9.78058 7.96409 9.81636C8.07081 9.84443 8.17928 9.84779 8.28853 9.82541C8.41298 9.80003 8.52924 9.74434 8.62701 9.66326C8.63844 9.65386 8.651 9.6467 8.66454 9.66396C8.71612 9.72928 8.78516 9.77286 8.85736 9.81054C9.05221 9.91214 9.26453 9.94259 9.48021 9.95501C9.53242 9.95802 9.58518 9.95052 9.6378 9.94904C9.74031 9.94624 9.83995 9.92624 9.93797 9.89789C9.98933 9.88302 10.0395 9.86414 10.0918 9.84653C10.0945 9.90217 10.098 9.95578 10.0996 10.0094L10.1069 10.3017C10.1083 10.3462 10.11 10.3908 10.1142 10.4351C10.1247 10.5492 10.1351 10.6635 10.1487 10.7773C10.1582 10.8557 10.168 10.9348 10.1865 11.0113C10.2234 11.1659 10.2741 11.3168 10.3379 11.4624C10.3989 11.6037 10.4927 11.7284 10.6116 11.8262C10.7673 11.955 10.9499 12.0099 11.1471 12.0201C11.2286 12.0244 11.3124 12.0204 11.3927 12.0058C11.5203 11.9831 11.6465 11.9532 11.7707 11.9163C12.0226 11.8403 12.2404 11.7089 12.4031 11.4967C12.4958 11.3757 12.5718 11.2448 12.6207 11.1004C12.6609 10.981 12.6989 10.8605 12.7291 10.7383C12.7529 10.6421 12.7647 10.5428 12.7792 10.4445C12.7888 10.3794 12.7946 10.3138 12.8006 10.2482C12.8105 10.1418 12.8205 10.0354 12.8276 9.92876C12.8325 9.85453 12.8323 9.77994 12.8352 9.70557C12.8361 9.68291 12.8398 9.66038 12.8419 9.63779C12.8439 9.61688 12.8544 9.60965 12.8757 9.61C12.9509 9.61113 13.0261 9.61309 13.1011 9.60972C13.1851 9.60594 13.2698 9.60236 13.3525 9.58846C13.4702 9.56875 13.5871 9.54377 13.7026 9.5136C13.8389 9.47795 13.964 9.4141 14.0843 9.34134C14.2245 9.25665 14.3523 9.1573 14.456 9.02932C14.5461 8.91769 14.5889 8.78865 14.5671 8.64776ZM14.3277 8.71666C14.3231 8.78086 14.2937 8.83587 14.251 8.88288C14.0497 9.10482 13.7972 9.23946 13.5083 9.30577C13.3986 9.33089 13.2853 9.34394 13.173 9.35432C13.077 9.36278 12.9806 9.36506 12.8843 9.36113C12.8138 9.35846 12.7437 9.34232 12.6716 9.33194C12.6644 9.3979 12.6575 9.46659 12.6491 9.53514L12.6155 9.79791C12.6054 9.88119 12.5974 9.96476 12.587 10.048C12.5767 10.1287 12.564 10.2092 12.5532 10.29C12.5432 10.3652 12.5358 10.4408 12.5247 10.5158C12.5075 10.6309 12.4911 10.7463 12.4686 10.8604C12.4417 10.9969 12.4003 11.1291 12.3329 11.2521C12.2507 11.4024 12.1341 11.5168 11.9857 11.6016C11.8327 11.689 11.6655 11.7345 11.496 11.7725C11.376 11.7994 11.2524 11.8039 11.1308 11.7929C10.9201 11.7738 10.7402 11.6837 10.6042 11.5202C10.4744 11.3643 10.3865 11.1855 10.3551 10.9831C10.3404 10.8868 10.3289 10.79 10.3206 10.6929C10.3113 10.585 10.3043 10.477 10.2997 10.3688C10.2934 10.2315 10.2888 10.0942 10.2858 9.95683C10.2821 9.78801 10.2809 9.6192 10.2786 9.45038L10.2781 9.44392C10.1922 9.49542 10.1078 9.55184 10.0183 9.59829C9.91367 9.65239 9.79914 9.68469 9.68166 9.69322C9.58918 9.70024 9.49551 9.70662 9.40345 9.69925C9.25253 9.68712 9.10174 9.66347 8.9666 9.58917C8.91181 9.55899 8.85462 9.5223 8.81687 9.47409C8.72636 9.3586 8.76972 9.21266 8.90619 9.14242C9.00049 9.0938 9.10343 9.07352 9.20566 9.04988C9.29464 9.02972 9.38269 9.00563 9.46955 8.97768C9.55529 8.94961 9.60939 8.88008 9.66278 8.81188L9.7474 8.70305C9.71211 8.69933 9.67885 8.69554 9.64559 8.69246C9.54462 8.68291 9.44829 8.65513 9.35616 8.61429C9.2773 8.57942 9.2761 8.57563 9.21829 8.63836C9.12174 8.74319 9.02786 8.85047 8.93328 8.95705C8.86367 9.03542 8.79449 9.11429 8.72524 9.19287C8.65662 9.27062 8.59234 9.35278 8.51846 9.42512C8.40872 9.53254 8.27646 9.59716 8.11866 9.58987C8.01741 9.58524 7.92472 9.54973 7.84137 9.49171C7.66932 9.37186 7.55341 9.20424 7.44788 9.0282C7.31267 8.80262 7.2089 8.5623 7.12007 8.31539C7.05861 8.14475 6.99686 7.97397 6.94319 7.80087C6.88488 7.61276 6.83373 7.42226 6.78342 7.23183C6.74583 7.08796 6.71117 6.94334 6.67944 6.79807C6.64243 6.63309 6.60818 6.4675 6.57671 6.30137C6.5558 6.18918 6.54367 6.07537 6.52676 5.9624C6.50395 5.81015 6.49974 5.65648 6.50802 5.50359C6.51539 5.36586 6.53518 5.22848 6.55482 5.09166C6.58205 4.90235 6.64442 4.72371 6.73416 4.55503C6.7891 4.45168 6.8573 4.35773 6.93617 4.27044C7.06562 4.12717 7.2223 4.0236 7.39659 3.94586C7.5184 3.89155 7.64708 3.85886 7.77822 3.83332C7.97286 3.79543 8.16925 3.7969 8.36571 3.80097C8.45159 3.80272 8.53712 3.81837 8.62294 3.82686C8.80768 3.84524 8.98878 3.88412 9.16756 3.93211C9.29785 3.96705 9.42548 4.01231 9.55473 4.0516C9.56771 4.05553 9.58672 4.05518 9.59732 4.04823C9.77245 3.93393 9.96386 3.85851 10.1674 3.81535C10.2447 3.79901 10.3244 3.79185 10.4034 3.7868C10.4994 3.78069 10.5963 3.77508 10.6921 3.78062C10.8073 3.78722 10.922 3.8042 11.0365 3.81991C11.092 3.82749 11.1463 3.84679 11.202 3.85205C11.2287 3.85458 11.2569 3.83507 11.2851 3.82854C11.4289 3.79536 11.572 3.75838 11.7171 3.73214C11.8251 3.71263 11.9354 3.70344 12.0452 3.69713C12.1676 3.69011 12.291 3.68499 12.4133 3.69088C12.5683 3.69857 12.7222 3.72025 12.8733 3.75564C13.0611 3.79936 13.2413 3.86286 13.4125 3.95098C13.5405 4.0168 13.6622 4.09314 13.7717 4.18702C13.8435 4.24862 13.917 4.30946 13.9818 4.37808C14.0618 4.4627 14.1434 4.54739 14.1935 4.65579C14.2313 4.73753 14.2582 4.82215 14.2657 4.91168C14.2749 5.02296 14.2862 5.13467 14.2851 5.24609C14.2841 5.35267 14.2696 5.45918 14.2593 5.56548C14.2359 5.80783 14.1832 6.04492 14.1192 6.27885C14.0656 6.47209 14.005 6.6633 13.9375 6.8521C13.8758 7.02618 13.8047 7.1971 13.7328 7.36732C13.6798 7.49341 13.6223 7.61752 13.5603 7.7394C13.4426 7.96997 13.3203 8.19814 13.1788 8.4153C13.1543 8.45284 13.1312 8.49129 13.1073 8.5296C13.1691 8.57128 13.239 8.58595 13.3095 8.59352C13.3765 8.60082 13.4448 8.60517 13.5118 8.60019C13.6189 8.59226 13.7257 8.57696 13.8322 8.56202C13.9377 8.54728 14.0412 8.51725 14.1495 8.52518C14.2577 8.53304 14.3351 8.61527 14.3277 8.71666ZM12.7832 8.4814C12.7372 8.42204 12.6903 8.36338 12.6454 8.30332C12.5748 8.20902 12.524 8.1037 12.4731 7.99789C12.4248 7.89763 12.3656 7.80269 12.3147 7.70355C12.226 7.53059 12.1356 7.3582 12.0539 7.18187C11.9511 6.96036 11.87 6.73099 11.8445 6.48563C11.8337 6.38178 11.831 6.27808 11.8519 6.17521C11.8855 6.01096 11.9714 5.88249 12.1156 5.79436C12.2494 5.71262 12.3985 5.68623 12.5513 5.67796C12.6461 5.67283 12.7413 5.67704 12.8396 5.67704L12.8363 5.66041C12.7752 5.5325 12.718 5.40242 12.651 5.27752C12.5566 5.10127 12.4358 4.94234 12.3012 4.795C12.2015 4.68589 12.0935 4.58464 11.9752 4.49518C11.8589 4.40713 11.7363 4.32847 11.6055 4.26413C11.4495 4.18744 11.2871 4.12815 11.1167 4.09033C10.9529 4.05399 10.7881 4.03174 10.6201 4.02992C10.4768 4.02837 10.3345 4.03483 10.1949 4.06718C9.98428 4.11594 9.79161 4.20266 9.62398 4.34314C9.53117 4.42084 9.44829 4.50968 9.37721 4.60766C9.29329 4.72294 9.22558 4.84741 9.1677 4.97792C9.08827 5.15698 9.03375 5.34334 8.9965 5.53489C8.97783 5.63038 8.96324 5.72672 8.94836 5.82299C8.94317 5.85667 8.94275 5.89112 8.93973 5.92971C8.96562 5.91624 8.98429 5.90585 9.00337 5.89659L9.06547 5.86873C9.27547 5.77268 9.49305 5.71086 9.72691 5.71795C9.82627 5.72097 9.92134 5.74061 10.0097 5.78411C10.1791 5.86768 10.2783 6.00977 10.3214 6.1896C10.3511 6.31372 10.3714 6.4403 10.3912 6.56653C10.4067 6.66511 10.4226 6.76474 10.4244 6.86417C10.427 7.00948 10.4197 7.15507 10.4117 7.30031C10.4049 7.42381 10.3793 7.54556 10.3359 7.66138C10.2574 7.87138 10.1698 8.07795 10.088 8.28676C10.061 8.35573 10.0402 8.42716 10.0147 8.50301C10.0541 8.50301 10.0861 8.50273 10.1181 8.50315C10.1306 8.50336 10.1433 8.50371 10.1554 8.50659C10.2494 8.52876 10.331 8.57135 10.3978 8.64369C10.487 8.73996 10.5338 8.85229 10.5362 8.98231C10.5375 9.05437 10.53 9.12664 10.5303 9.1987C10.5318 9.53451 10.5343 9.87032 10.5371 10.2061C10.5376 10.2609 10.5403 10.3159 10.5443 10.3707C10.5525 10.4854 10.5608 10.6002 10.572 10.7146C10.5798 10.7958 10.5908 10.8768 10.6036 10.9575C10.6218 11.0717 10.6738 11.1734 10.7328 11.2705C10.7836 11.3541 10.8496 11.4251 10.9366 11.4741C11.0845 11.5573 11.2437 11.5642 11.4041 11.5336C11.5125 11.5129 11.619 11.4796 11.7242 11.4453C11.8278 11.4122 11.9223 11.3557 12.0005 11.2801C12.0742 11.2086 12.1266 11.1215 12.1618 11.0253C12.2303 10.8387 12.2517 10.6423 12.28 10.4474C12.2906 10.3744 12.2998 10.3012 12.3095 10.2281C12.3205 10.1449 12.3316 10.0617 12.3423 9.97858C12.3502 9.91663 12.3573 9.85453 12.3649 9.79257C12.3757 9.7036 12.3871 9.61471 12.3975 9.52567C12.4054 9.45683 12.4121 9.38772 12.4191 9.31875C12.4282 9.23062 12.4379 9.14249 12.4457 9.05423C12.4518 8.98722 12.4493 8.91902 12.4612 8.85327C12.483 8.73273 12.54 8.63015 12.6468 8.56384C12.6915 8.53613 12.742 8.51789 12.7916 8.49445L12.7832 8.4814ZM8.74187 7.9866C8.68854 7.86128 8.65644 7.72798 8.64686 7.59213C8.63788 7.46408 8.65311 7.33652 8.66623 7.20903C8.679 7.08554 8.68959 6.96148 8.69331 6.83743C8.69949 6.63353 8.68573 6.42991 8.67598 6.22615C8.67009 6.10484 8.68419 5.98205 8.695 5.86045C8.70475 5.75093 8.71689 5.64112 8.73759 5.5332C8.77232 5.35211 8.81842 5.17361 8.88395 5.00058C8.94619 4.83654 9.01768 4.67677 9.11865 4.53293C9.18784 4.43428 9.26635 4.34208 9.34178 4.24568L9.31939 4.23775C9.07396 4.15979 8.82452 4.09889 8.568 4.0723C8.44668 4.05974 8.32495 4.05237 8.20328 4.04514C8.16595 4.0429 8.12806 4.04795 8.09059 4.05153C7.99784 4.06037 7.90396 4.06388 7.81267 4.08128C7.65733 4.11082 7.50829 4.1605 7.37028 4.2414C7.24637 4.31402 7.14231 4.4079 7.05517 4.52051C6.9589 4.64485 6.89414 4.78546 6.84762 4.9354C6.79268 5.11228 6.76651 5.29429 6.75942 5.47798C6.75325 5.63901 6.75016 5.80095 6.77795 5.96135C6.79865 6.08077 6.81247 6.20146 6.83527 6.32039C6.86636 6.48254 6.89968 6.64434 6.9382 6.80481C6.99328 7.03453 7.04829 7.2646 7.11355 7.49151C7.17599 7.70895 7.24644 7.92443 7.32278 8.13731C7.38523 8.31104 7.45743 8.48154 7.53348 8.6498C7.58302 8.75939 7.64301 8.86485 7.70588 8.9675C7.77275 9.07647 7.84881 9.17989 7.95202 9.25897C8.08224 9.35881 8.18307 9.37432 8.3154 9.26479C8.3721 9.21785 8.42002 9.1599 8.46935 9.10468C8.54772 9.01697 8.62336 8.92688 8.70138 8.83889C8.80073 8.72677 8.90135 8.61584 9.0012 8.50427C9.02232 8.4807 9.04259 8.45642 9.06315 8.43256L9.02919 8.40274C8.90589 8.2852 8.80809 8.14355 8.74187 7.9866ZM12.5089 4.64891C12.5905 4.74385 12.668 4.84227 12.7411 4.94389C12.8814 5.14098 12.9935 5.35379 13.0761 5.58148C13.1127 5.68181 13.1418 5.78313 13.1288 5.89294C13.1197 5.96984 13.1205 6.04787 13.1137 6.12519C13.108 6.18953 13.0979 6.25352 13.0895 6.31765C13.077 6.41434 13.0589 6.51074 13.0535 6.60785C13.0484 6.70026 13.0537 6.79365 13.0595 6.88627C13.0654 6.98036 13.0781 7.07403 13.0868 7.16798C13.0965 7.27449 13.1096 7.381 13.1127 7.48772C13.1151 7.57536 13.1073 7.66356 13.0997 7.75105C13.0906 7.85644 13.0638 7.95846 13.024 8.05634C12.996 8.12524 12.9625 8.19204 12.9309 8.26101L12.9436 8.27448L12.9629 8.28943L12.9823 8.25463C13.1463 7.99628 13.2922 7.72682 13.4189 7.44822C13.4998 7.26835 13.5767 7.08667 13.6495 6.90332C13.7634 6.61817 13.8536 6.32502 13.9233 6.02604C13.9546 5.89182 13.9786 5.75556 13.9998 5.6193C14.0164 5.51279 14.0302 5.40501 14.0333 5.29752C14.0366 5.1835 14.0303 5.06857 14.0198 4.95483C14.0119 4.86895 13.9907 4.78251 13.9369 4.71269C13.8504 4.60029 13.757 4.4928 13.6421 4.40776C13.5454 4.33612 13.4491 4.26266 13.3453 4.20238C13.1808 4.10696 13.0027 4.04339 12.8166 4.0001C12.635 3.95779 12.4511 3.93955 12.2659 3.93569C12.1567 3.93337 12.0471 3.94509 11.9381 3.95533C11.8394 3.96459 11.7413 3.98038 11.6419 3.99343C11.7485 4.05342 11.8537 4.10675 11.9529 4.16962C12.1615 4.30174 12.3484 4.46073 12.5089 4.64891ZM9.79876 8.34816C9.86619 8.13254 9.95804 7.92667 10.047 7.71955C10.1191 7.55157 10.1586 7.37462 10.1717 7.19289C10.1782 7.10329 10.1764 7.01256 10.172 6.92268C10.1675 6.82269 10.1584 6.72297 10.1445 6.62385C10.1258 6.49748 10.1045 6.37105 10.0747 6.24699C10.0422 6.11277 9.96049 6.01931 9.82044 5.98486C9.73512 5.96388 9.65036 5.96472 9.56413 5.97833C9.35349 6.01152 9.16068 6.08912 8.98106 6.20279C8.94492 6.22566 8.92507 6.24412 8.93131 6.29597C8.9445 6.40578 8.94738 6.51734 8.94689 6.6282C8.94619 6.78509 8.93952 6.94198 8.93356 7.0988C8.93159 7.14988 8.92423 7.20068 8.91875 7.25155C8.91033 7.32943 8.89412 7.40724 8.89462 7.48499C8.89511 7.56511 8.90332 7.64714 8.92275 7.72474C8.9845 7.97081 9.11528 8.17218 9.32964 8.31427C9.46148 8.40162 9.60735 8.44569 9.76747 8.45404C9.77834 8.41727 9.78803 8.38254 9.79876 8.34816ZM9.54715 6.2371C9.51894 6.17788 9.53508 6.12884 9.60048 6.1061C9.6164 6.10049 9.63282 6.09453 9.64938 6.09291C9.67211 6.09067 9.69527 6.09235 9.71828 6.09235C9.80122 6.09277 9.881 6.10435 9.94948 6.15711C9.9934 6.19093 10.0052 6.23584 9.97677 6.28194C9.93643 6.34733 9.87489 6.38017 9.79932 6.38648C9.68025 6.39637 9.59669 6.34087 9.54715 6.2371ZM12.8477 6.21549C12.8573 6.13662 12.8649 6.05755 12.8747 5.97868C12.8786 5.94697 12.8619 5.93841 12.8353 5.93764C12.7517 5.93532 12.668 5.93237 12.5844 5.93083C12.4901 5.92915 12.3983 5.9443 12.311 5.98016C12.2142 6.02001 12.1405 6.08386 12.1103 6.18925C12.0883 6.26695 12.0813 6.34818 12.0898 6.42851C12.1014 6.55275 12.1296 6.67489 12.1735 6.79169C12.232 6.94752 12.2933 7.10329 12.3665 7.2526C12.4656 7.45474 12.5778 7.65043 12.6831 7.84949C12.7112 7.90261 12.7349 7.95804 12.7642 8.02006C12.8233 7.89674 12.8556 7.7623 12.859 7.6256C12.8619 7.51263 12.8528 7.39917 12.8462 7.28614C12.8421 7.21696 12.8323 7.14819 12.8256 7.07915C12.8162 6.98295 12.802 6.88683 12.7998 6.79042C12.7976 6.6924 12.8046 6.59382 12.813 6.49594C12.8209 6.40206 12.8364 6.30895 12.8477 6.21549ZM12.659 6.13957C12.628 6.22538 12.5615 6.2738 12.4753 6.28804C12.395 6.30123 12.3246 6.27155 12.2723 6.20749C12.235 6.16188 12.2493 6.10786 12.3051 6.07705C12.3693 6.04155 12.4398 6.03257 12.5229 6.02717C12.5455 6.03131 12.5795 6.03474 12.6119 6.04401C12.6588 6.05727 12.6762 6.09256 12.659 6.13957ZM10.1737 8.78199C10.1277 8.74445 10.0669 8.74227 10.0232 8.78346C9.96898 8.83468 9.92127 8.89327 9.87356 8.95101C9.81848 9.01774 9.76684 9.08713 9.69576 9.13885C9.59234 9.21399 9.47179 9.24515 9.35062 9.27462C9.25428 9.29805 9.15752 9.3198 9.06091 9.34232L9.05971 9.35481C9.08841 9.36808 9.1162 9.38463 9.14609 9.39411C9.29343 9.44077 9.44331 9.46399 9.599 9.4508C9.71141 9.44126 9.81848 9.41677 9.91994 9.36864C10.0596 9.30247 10.167 9.19764 10.2583 9.0757C10.2736 9.05535 10.2806 9.02525 10.2824 8.99901C10.2887 8.90632 10.2416 8.83742 10.1737 8.78199ZM13.8048 8.81889C13.6862 8.83159 13.5675 8.84507 13.4485 8.85187C13.3911 8.85517 13.3329 8.84422 13.2749 8.83952C13.1778 8.83166 13.0829 8.81005 13.0007 8.75813C12.9532 8.72817 12.9137 8.7248 12.8631 8.74178C12.791 8.76606 12.7322 8.80297 12.7148 8.88113C12.7029 8.93396 12.6986 8.98869 12.6938 9.04279C12.6929 9.05233 12.7049 9.06987 12.714 9.07226C12.7696 9.08692 12.8255 9.10425 12.8824 9.10938C12.9523 9.11569 13.0235 9.11366 13.0939 9.11015C13.1698 9.10636 13.2463 9.10145 13.3212 9.08882C13.4977 9.05921 13.6684 9.01093 13.82 8.91088C13.8746 8.87474 13.9288 8.83784 13.9831 8.80128L13.9786 8.79356C13.9207 8.80219 13.863 8.81272 13.8048 8.81889Z" fill="#0EACFF"/>
</g>
<path d="M24.5474 5.67964V7.66372C24.5474 7.70213 24.5694 7.72683 24.6133 7.73781C24.8218 7.76525 25.0249 7.77897 25.2225 7.77897C25.667 7.77897 26.0046 7.68293 26.2351 7.49083C26.4711 7.29324 26.5891 7.01333 26.5891 6.65109C26.5891 5.92113 26.1336 5.55615 25.2225 5.55615C25.0249 5.55615 24.8218 5.56987 24.6133 5.59731C24.5694 5.60829 24.5474 5.63573 24.5474 5.67964ZM23.8723 10.751C23.7461 10.751 23.6363 10.7043 23.543 10.611C23.4552 10.5177 23.4113 10.4079 23.4113 10.2817V5.25154C23.4113 5.11981 23.4552 5.00181 23.543 4.89753C23.6308 4.79325 23.7406 4.73562 23.8723 4.72464C24.3388 4.68074 24.7889 4.65878 25.2225 4.65878C26.0458 4.65878 26.6632 4.82344 27.0748 5.15274C27.4865 5.47656 27.6923 5.94857 27.6923 6.56877C27.6923 7.25483 27.492 7.77348 27.0913 8.12475C26.6961 8.47601 26.1089 8.65164 25.3295 8.65164C25.1484 8.65164 24.9096 8.64066 24.6133 8.61871C24.5694 8.61871 24.5474 8.64066 24.5474 8.68457V10.2817C24.5474 10.4079 24.5007 10.5177 24.4074 10.611C24.3141 10.7043 24.2044 10.751 24.0781 10.751H23.8723ZM30.8569 7.53199C30.6978 7.30148 30.4563 7.18622 30.1324 7.18622C29.8086 7.18622 29.5644 7.30148 29.3997 7.53199C29.2406 7.75702 29.161 8.11651 29.161 8.61048C29.161 9.10444 29.2406 9.46668 29.3997 9.69719C29.5644 9.92222 29.8086 10.0347 30.1324 10.0347C30.4563 10.0347 30.6978 9.92222 30.8569 9.69719C31.0216 9.46668 31.1039 9.10444 31.1039 8.61048C31.1039 8.11651 31.0216 7.75702 30.8569 7.53199ZM31.6637 10.257C31.3015 10.6412 30.7911 10.8333 30.1324 10.8333C29.4738 10.8333 28.9607 10.6412 28.5929 10.257C28.2307 9.86733 28.0496 9.31849 28.0496 8.61048C28.0496 7.90246 28.2307 7.35636 28.5929 6.97217C28.9607 6.58249 29.4738 6.38765 30.1324 6.38765C30.7911 6.38765 31.3015 6.58249 31.6637 6.97217C32.0315 7.35636 32.2153 7.90246 32.2153 8.61048C32.2153 9.31849 32.0315 9.86733 31.6637 10.257ZM34.5387 9.02211C33.9625 8.89588 33.5508 8.72299 33.3038 8.50345C33.0623 8.28391 32.9416 7.99851 32.9416 7.64725C32.9416 7.25208 33.087 6.94473 33.3779 6.72519C33.6743 6.50016 34.1106 6.38765 34.6869 6.38765C35.0492 6.38765 35.4087 6.42058 35.7654 6.48644C35.8862 6.50839 35.9822 6.56877 36.0536 6.66756C36.1304 6.76086 36.1688 6.87063 36.1688 6.99687C36.1688 7.10115 36.1277 7.18622 36.0453 7.25208C35.963 7.31245 35.8697 7.32892 35.7654 7.30148C35.4581 7.22464 35.1342 7.18622 34.794 7.18622C34.3 7.18622 34.053 7.32343 34.053 7.59785C34.053 7.72958 34.0997 7.83935 34.193 7.92716C34.2863 8.01498 34.4454 8.08358 34.6705 8.13298C35.3016 8.25921 35.7325 8.42936 35.963 8.64341C36.199 8.85746 36.317 9.1703 36.317 9.58193C36.317 9.9771 36.1688 10.2845 35.8724 10.504C35.5761 10.7235 35.1452 10.8333 34.5799 10.8333C34.2122 10.8333 33.8362 10.7894 33.452 10.7016C33.3313 10.6741 33.2325 10.611 33.1556 10.5122C33.0788 10.4079 33.0404 10.2899 33.0404 10.1582C33.0404 10.0539 33.0816 9.97436 33.1639 9.91947C33.2517 9.86459 33.345 9.85087 33.4438 9.87831C33.8005 9.9771 34.1381 10.0265 34.4564 10.0265C34.9559 10.0265 35.2056 9.87831 35.2056 9.58193C35.2056 9.43923 35.1562 9.32672 35.0574 9.24439C34.9641 9.16207 34.7912 9.08797 34.5387 9.02211ZM37.3547 7.4332C37.2449 7.4332 37.1516 7.39478 37.0748 7.31794C36.998 7.23562 36.9595 7.13957 36.9595 7.0298C36.9595 6.92003 36.998 6.82672 37.0748 6.74989C37.1516 6.67305 37.2449 6.63463 37.3547 6.63463H37.7499C37.7993 6.63463 37.824 6.60993 37.824 6.56053V5.53968C37.824 5.41345 37.8679 5.30368 37.9557 5.21037C38.049 5.11707 38.1588 5.07042 38.285 5.07042H38.4497C38.5759 5.07042 38.6857 5.11707 38.779 5.21037C38.8723 5.30368 38.9189 5.41345 38.9189 5.53968V6.56053C38.9189 6.60993 38.9436 6.63463 38.993 6.63463H39.9315C40.0413 6.63463 40.1346 6.67305 40.2115 6.74989C40.2938 6.82672 40.3349 6.92003 40.3349 7.0298C40.3349 7.13957 40.2938 7.23562 40.2115 7.31794C40.1346 7.39478 40.0413 7.4332 39.9315 7.4332H38.993C38.9436 7.4332 38.9189 7.45515 38.9189 7.49906V9.16207C38.9189 9.51882 38.9573 9.74933 39.0342 9.85361C39.111 9.95789 39.2702 10.01 39.5117 10.01C39.6434 10.01 39.7422 10.0045 39.8081 9.99357C39.9178 9.98259 40.0139 10.0073 40.0962 10.0677C40.1785 10.128 40.2197 10.2104 40.2197 10.3146C40.2197 10.4354 40.1785 10.5452 40.0962 10.644C40.0194 10.7373 39.9233 10.7894 39.8081 10.8004C39.5666 10.8223 39.3854 10.8333 39.2647 10.8333C38.7323 10.8333 38.3591 10.7208 38.145 10.4958C37.931 10.2652 37.824 9.85636 37.824 9.26909V7.49906C37.824 7.45515 37.7993 7.4332 37.7499 7.4332H37.3547ZM43.1396 7.21092C42.5359 7.21092 42.234 7.64999 42.234 8.52815C42.234 8.98369 42.3136 9.32398 42.4727 9.549C42.6374 9.77403 42.8597 9.88654 43.1396 9.88654C43.3866 9.88654 43.5979 9.79873 43.7735 9.6231C43.9546 9.44747 44.0452 9.24165 44.0452 9.00564V8.11651C44.0452 7.86404 43.9546 7.64999 43.7735 7.47436C43.5979 7.29873 43.3866 7.21092 43.1396 7.21092ZM42.7938 10.7098C42.3108 10.7098 41.9157 10.5177 41.6083 10.1335C41.301 9.74384 41.1473 9.20872 41.1473 8.52815C41.1473 7.84758 41.2927 7.32069 41.5836 6.94747C41.88 6.57426 42.2834 6.38765 42.7938 6.38765C43.0518 6.38765 43.2795 6.4343 43.4771 6.5276C43.6747 6.62091 43.8696 6.77733 44.0617 6.99687C44.0671 7.00236 44.0726 7.0051 44.0781 7.0051C44.0836 7.0051 44.0864 7.00236 44.0864 6.99687V6.93924C44.0918 6.80752 44.1412 6.69775 44.2345 6.60993C44.3278 6.51663 44.4404 6.46997 44.5721 6.46997H44.6626C44.7889 6.46997 44.8959 6.51663 44.9837 6.60993C45.077 6.70323 45.1237 6.813 45.1237 6.93924V10.4217C45.1237 11.9036 44.3827 12.6445 42.9008 12.6445C42.6374 12.6445 42.3602 12.6225 42.0693 12.5786C41.9376 12.5567 41.8278 12.4908 41.74 12.3811C41.6577 12.2768 41.6165 12.156 41.6165 12.0188C41.6165 11.909 41.6605 11.8212 41.7483 11.7554C41.8416 11.695 41.9431 11.6785 42.0529 11.706C42.3163 11.7718 42.5907 11.8048 42.8761 11.8048C43.2823 11.8048 43.5787 11.6977 43.7653 11.4837C43.9519 11.2751 44.0452 10.9294 44.0452 10.4464V10.1912C44.0452 10.1857 44.0424 10.1829 44.037 10.1829C44.0315 10.1829 44.026 10.1857 44.0205 10.1912C43.6912 10.5369 43.2823 10.7098 42.7938 10.7098ZM46.7276 10.751C46.6013 10.751 46.4916 10.7043 46.3983 10.611C46.305 10.5177 46.2583 10.4079 46.2583 10.2817V6.93924C46.2583 6.813 46.305 6.70323 46.3983 6.60993C46.4916 6.51663 46.6013 6.46997 46.7276 6.46997H46.8922C47.0185 6.46997 47.1282 6.51663 47.2215 6.60993C47.3148 6.70323 47.3615 6.813 47.3615 6.93924V7.28501C47.3615 7.2905 47.3642 7.29324 47.3697 7.29324C47.3807 7.29324 47.3862 7.2905 47.3862 7.28501C47.5453 7.06547 47.7539 6.8871 48.0119 6.74989C48.2698 6.60719 48.5525 6.51937 48.8598 6.48644C48.9751 6.47546 49.0739 6.51388 49.1562 6.6017C49.2385 6.68402 49.2797 6.78282 49.2797 6.89807C49.2797 7.01333 49.2385 7.11212 49.1562 7.19445C49.0739 7.27678 48.9751 7.32343 48.8598 7.33441C47.8884 7.41125 47.4026 7.90521 47.4026 8.81629V10.2817C47.4026 10.4079 47.356 10.5177 47.2627 10.611C47.1694 10.7043 47.0596 10.751 46.9334 10.751H46.7276ZM51.8386 7.15329C51.5587 7.15329 51.3419 7.23287 51.1882 7.39204C51.04 7.54571 50.9467 7.79544 50.9083 8.14121C50.9083 8.18512 50.9303 8.20707 50.9742 8.20707H52.5878C52.6317 8.20707 52.6536 8.18512 52.6536 8.14121C52.6317 7.4826 52.36 7.15329 51.8386 7.15329ZM52.0444 10.8333C51.3254 10.8333 50.7711 10.6467 50.3814 10.2735C49.9972 9.89478 49.8051 9.34044 49.8051 8.61048C49.8051 7.886 49.978 7.33441 50.3238 6.9557C50.6696 6.577 51.169 6.38765 51.8221 6.38765C53.0406 6.38765 53.6663 7.07919 53.6992 8.46229C53.7047 8.59401 53.658 8.70378 53.5592 8.79159C53.4604 8.87941 53.3452 8.92332 53.2135 8.92332H50.9659C50.9165 8.92332 50.8973 8.94802 50.9083 8.99741C50.9467 9.36514 51.0675 9.63407 51.2705 9.80422C51.4791 9.96887 51.781 10.0512 52.1761 10.0512C52.4231 10.0512 52.6975 10.01 52.9994 9.92771C53.0982 9.90026 53.1888 9.91673 53.2711 9.9771C53.3589 10.0375 53.4028 10.1198 53.4028 10.2241C53.4028 10.3503 53.3644 10.4628 53.2875 10.5616C53.2162 10.6549 53.1201 10.7126 52.9994 10.7345C52.692 10.8004 52.3737 10.8333 52.0444 10.8333ZM56.0611 9.02211C55.4848 8.89588 55.0732 8.72299 54.8262 8.50345C54.5847 8.28391 54.464 7.99851 54.464 7.64725C54.464 7.25208 54.6094 6.94473 54.9003 6.72519C55.1967 6.50016 55.633 6.38765 56.2093 6.38765C56.5716 6.38765 56.9311 6.42058 57.2878 6.48644C57.4085 6.50839 57.5046 6.56877 57.5759 6.66756C57.6528 6.76086 57.6912 6.87063 57.6912 6.99687C57.6912 7.10115 57.65 7.18622 57.5677 7.25208C57.4854 7.31245 57.3921 7.32892 57.2878 7.30148C56.9804 7.22464 56.6566 7.18622 56.3163 7.18622C55.8224 7.18622 55.5754 7.32343 55.5754 7.59785C55.5754 7.72958 55.6221 7.83935 55.7154 7.92716C55.8087 8.01498 55.9678 8.08358 56.1929 8.13298C56.824 8.25921 57.2549 8.42936 57.4854 8.64341C57.7214 8.85746 57.8394 9.1703 57.8394 9.58193C57.8394 9.9771 57.6912 10.2845 57.3948 10.504C57.0984 10.7235 56.6676 10.8333 56.1023 10.8333C55.7346 10.8333 55.3586 10.7894 54.9744 10.7016C54.8537 10.6741 54.7549 10.611 54.678 10.5122C54.6012 10.4079 54.5628 10.2899 54.5628 10.1582C54.5628 10.0539 54.6039 9.97436 54.6863 9.91947C54.7741 9.86459 54.8674 9.85087 54.9662 9.87831C55.3229 9.9771 55.6605 10.0265 55.9788 10.0265C56.4783 10.0265 56.728 9.87831 56.728 9.58193C56.728 9.43923 56.6786 9.32672 56.5798 9.24439C56.4865 9.16207 56.3136 9.08797 56.0611 9.02211ZM60.6268 7.21092C59.9956 7.21092 59.68 7.67744 59.68 8.61048C59.68 9.07151 59.7651 9.42002 59.9353 9.65603C60.1054 9.89203 60.3359 10.01 60.6268 10.01C60.8793 10.01 61.0988 9.92496 61.2854 9.75482C61.4775 9.58468 61.5736 9.38984 61.5736 9.1703V8.05065C61.5736 7.83111 61.4775 7.63627 61.2854 7.46613C61.0988 7.29599 60.8793 7.21092 60.6268 7.21092ZM60.2975 10.8333C59.809 10.8333 59.4029 10.6357 59.0791 10.2405C58.7607 9.83989 58.6016 9.29653 58.6016 8.61048C58.6016 7.90246 58.7552 7.35636 59.0626 6.97217C59.3699 6.58249 59.7816 6.38765 60.2975 6.38765C60.5609 6.38765 60.7915 6.4343 60.989 6.5276C61.1866 6.62091 61.3842 6.77733 61.5818 6.99687C61.5873 7.00236 61.5928 7.0051 61.5983 7.0051C61.6038 7.0051 61.6065 7.00236 61.6065 6.99687V6.93924C61.612 6.80752 61.6614 6.69775 61.7547 6.60993C61.848 6.51663 61.9605 6.46997 62.0922 6.46997H62.191C62.3173 6.46997 62.427 6.51663 62.5203 6.60993C62.6136 6.70323 62.6603 6.813 62.6603 6.93924V12.0929C62.6603 12.2191 62.6136 12.3289 62.5203 12.4222C62.427 12.5155 62.3173 12.5622 62.191 12.5622H62.0264C61.9001 12.5622 61.7904 12.5155 61.6971 12.4222C61.6092 12.3289 61.5653 12.2191 61.5653 12.0929V10.3146C61.5653 10.3092 61.5626 10.3064 61.5571 10.3064C61.5516 10.3064 61.5461 10.3092 61.5406 10.3146C61.1894 10.6604 60.775 10.8333 60.2975 10.8333ZM64.5092 10.751C64.383 10.751 64.2732 10.7043 64.1799 10.611C64.0866 10.5177 64.04 10.4079 64.04 10.2817V5.04572C64.04 4.91948 64.0866 4.80971 64.1799 4.71641C64.2732 4.62311 64.383 4.57645 64.5092 4.57645H64.7233C64.8495 4.57645 64.9593 4.62311 65.0526 4.71641C65.1459 4.80971 65.1925 4.91948 65.1925 5.04572V10.2817C65.1925 10.4079 65.1459 10.5177 65.0526 10.611C64.9593 10.7043 64.8495 10.751 64.7233 10.751H64.5092Z" fill="#0EACFF"/>
<defs>
<clipPath id="clip0_1343_3271">
<rect width="8.98112" height="8.98112" fill="white" transform="translate(5.91797 3.26074)"/>
</clipPath>
</defs>
</svg>
