<svg width="60" height="16" viewBox="0 0 60 16" fill="none" xmlns="http://www.w3.org/2000/svg">
<rect x="0.468262" y="0.266602" width="59.1257" height="14.9685" rx="7.48427" fill="#2F291E"/>
<path d="M11.3281 2.55538C9.94996 2.37842 8.55795 2.75618 7.45832 3.60555C6.35869 4.45492 5.64152 5.70633 5.46456 7.08448C5.2876 8.46263 5.66536 9.85464 6.51473 10.9543C7.3641 12.0539 8.61551 12.7711 9.99366 12.948C11.3718 13.125 12.7638 12.7472 13.8634 11.8979C14.9631 11.0485 15.6803 9.79708 15.8572 8.41893C16.0342 7.04078 15.6564 5.64877 14.807 4.54914C13.9577 3.44951 12.7063 2.73234 11.3281 2.55538Z" fill="#FCD28D"/>
<path d="M9.20799 8.07966C9.20982 8.08401 9.21323 8.08751 9.21753 8.08945C9.22184 8.09139 9.22672 8.09164 9.23119 8.09013L10.0694 7.90939L9.71655 7.55202L9.21435 8.05458C9.21027 8.05714 9.20733 8.06117 9.20614 8.06584C9.20496 8.07051 9.20562 8.07546 9.20799 8.07966ZM13.1331 4.48047C13.0163 4.48066 12.9011 4.50704 12.7959 4.55765C12.6907 4.60827 12.5981 4.68183 12.5251 4.77293C12.452 4.86404 12.4004 4.97036 12.3738 5.08407C12.3473 5.19779 12.3466 5.316 12.3718 5.43002C12.397 5.54403 12.4475 5.65095 12.5195 5.74289C12.5914 5.83483 12.6831 5.90946 12.7878 5.96129C12.8924 6.01312 13.0073 6.04082 13.1241 6.04237C13.2408 6.04391 13.3565 6.01926 13.4624 5.97021L12.931 5.43883C12.9188 5.42656 12.912 5.40994 12.912 5.39262C12.912 5.37529 12.9188 5.35867 12.931 5.3464L13.6252 4.65261C13.4855 4.54091 13.312 4.48018 13.1331 4.48047Z" fill="#2F291E"/>
<path d="M13.7212 4.74414L13.0704 5.39228L13.5808 5.90271C13.6707 5.83938 13.7463 5.75789 13.8028 5.66351C13.8592 5.56913 13.8952 5.46396 13.9084 5.3548C13.9216 5.24563 13.9118 5.13491 13.8795 5.02979C13.8473 4.92466 13.7933 4.8271 13.7212 4.74414ZM12.4193 5.94013H12.4081C12.3944 5.94013 12.3807 5.94138 12.3673 5.94387H12.3628C12.3482 5.94712 12.3338 5.95125 12.3197 5.95622L12.3085 5.96146C12.2983 5.96624 12.2883 5.97149 12.2786 5.97717L12.267 5.98466C12.2544 5.99364 12.2424 6.00339 12.2311 6.01385L10.3016 7.94404L10.5407 8.18279L12.5839 6.38956C12.5955 6.37944 12.6061 6.36815 12.6154 6.35588L12.624 6.34465C12.6397 6.32093 12.6519 6.2951 12.6603 6.26794C12.6603 6.26195 12.664 6.25559 12.6655 6.24923C12.668 6.23623 12.6697 6.22312 12.6708 6.20994V6.16428C12.6708 6.15493 12.6708 6.15193 12.6681 6.14557C12.6585 6.09615 12.6343 6.05072 12.5988 6.01501C12.5633 5.97931 12.518 5.95494 12.4687 5.94499H12.4586C12.4456 5.94268 12.4325 5.94105 12.4193 5.94013ZM9.80765 7.46056L10.2036 7.8546L12.1382 5.91992C12.2015 5.85817 12.2834 5.82 12.371 5.8114C12.029 5.54945 11.6563 5.61793 9.80765 7.46056ZM12.6928 6.46515L12.6693 6.48835L10.626 8.28083L10.9733 8.62773C11.8348 7.81307 12.5989 7.03732 12.6928 6.46515ZM7.59604 10.6653C7.59712 10.669 7.59931 10.6723 7.60233 10.6747C7.60534 10.6771 7.60903 10.6786 7.61288 10.6788L8.50351 10.7402L8.00431 10.241L7.60016 10.6444C7.59748 10.6471 7.59569 10.6505 7.59502 10.6543C7.59435 10.658 7.59484 10.6619 7.59642 10.6653H7.59604ZM8.09749 10.1482L8.62401 10.6747C8.6304 10.6811 8.63874 10.6853 8.64775 10.6865C8.65675 10.6877 8.6659 10.6859 8.67378 10.6814C8.68198 10.6774 8.68853 10.6706 8.69228 10.6623C8.69604 10.654 8.69677 10.6446 8.69436 10.6358L8.60567 10.2578C8.59974 10.2332 8.60227 10.2074 8.61287 10.1844C8.62346 10.1615 8.6415 10.1427 8.66405 10.1313C9.58686 9.66879 10.3315 9.19242 10.8779 8.71679L10.5112 8.35006L9.72532 8.51921L8.09749 10.1482ZM10.3985 8.2393L10.2017 8.04246L9.92926 8.31414C9.92728 8.3165 9.9262 8.31948 9.9262 8.32256C9.9262 8.32564 9.92728 8.32862 9.92926 8.33098C9.93056 8.33369 9.93278 8.33585 9.93552 8.33708C9.93826 8.33831 9.94134 8.33854 9.94423 8.33771L10.3985 8.2393Z" fill="#2F291E"/>
<path d="M13.7406 5.16738C13.7381 5.15894 13.7337 5.15116 13.7279 5.14456C13.722 5.13797 13.7148 5.13272 13.7068 5.12917C13.6987 5.12563 13.69 5.12387 13.6811 5.12403C13.6723 5.12419 13.6637 5.12626 13.6557 5.13009C13.6478 5.13392 13.6408 5.13943 13.6352 5.14623C13.6296 5.15303 13.6255 5.16097 13.6233 5.16949C13.621 5.17801 13.6206 5.18692 13.6222 5.1956C13.6237 5.20428 13.6271 5.21252 13.6321 5.21977C13.6476 5.25128 13.6537 5.28658 13.6498 5.32148C13.6458 5.35637 13.6319 5.38939 13.6097 5.4166C13.5994 5.42901 13.5945 5.44499 13.596 5.46102C13.5975 5.47706 13.6053 5.49184 13.6177 5.50211C13.6301 5.51238 13.6461 5.51731 13.6621 5.5158C13.6782 5.51429 13.6929 5.50647 13.7032 5.49407C13.7402 5.44898 13.7634 5.39418 13.7701 5.33624C13.7767 5.27829 13.7665 5.21966 13.7406 5.16738Z" fill="#FCD28D"/>
<path d="M22.4671 5.67964V7.66372C22.4671 7.70213 22.489 7.72683 22.5329 7.73781C22.7415 7.76525 22.9446 7.77897 23.1422 7.77897C23.5867 7.77897 23.9243 7.68293 24.1548 7.49083C24.3908 7.29324 24.5088 7.01333 24.5088 6.65109C24.5088 5.92113 24.0532 5.55615 23.1422 5.55615C22.9446 5.55615 22.7415 5.56987 22.5329 5.59731C22.489 5.60829 22.4671 5.63573 22.4671 5.67964ZM21.792 10.751C21.6658 10.751 21.556 10.7043 21.4627 10.611C21.3749 10.5177 21.331 10.4079 21.331 10.2817V5.25154C21.331 5.11981 21.3749 5.00181 21.4627 4.89753C21.5505 4.79325 21.6603 4.73562 21.792 4.72464C22.2585 4.68074 22.7086 4.65878 23.1422 4.65878C23.9654 4.65878 24.5829 4.82344 24.9945 5.15274C25.4061 5.47656 25.612 5.94857 25.612 6.56877C25.612 7.25483 25.4116 7.77348 25.011 8.12475C24.6158 8.47601 24.0285 8.65164 23.2492 8.65164C23.0681 8.65164 22.8293 8.64066 22.5329 8.61871C22.489 8.61871 22.4671 8.64066 22.4671 8.68457V10.2817C22.4671 10.4079 22.4204 10.5177 22.3271 10.611C22.2338 10.7043 22.124 10.751 21.9978 10.751H21.792ZM28.7766 7.53199C28.6174 7.30148 28.3759 7.18622 28.0521 7.18622C27.7283 7.18622 27.4841 7.30148 27.3194 7.53199C27.1602 7.75702 27.0807 8.11651 27.0807 8.61048C27.0807 9.10444 27.1602 9.46668 27.3194 9.69719C27.4841 9.92222 27.7283 10.0347 28.0521 10.0347C28.3759 10.0347 28.6174 9.92222 28.7766 9.69719C28.9413 9.46668 29.0236 9.10444 29.0236 8.61048C29.0236 8.11651 28.9413 7.75702 28.7766 7.53199ZM29.5834 10.257C29.2212 10.6412 28.7107 10.8333 28.0521 10.8333C27.3935 10.8333 26.8803 10.6412 26.5126 10.257C26.1504 9.86733 25.9693 9.31849 25.9693 8.61048C25.9693 7.90246 26.1504 7.35636 26.5126 6.97217C26.8803 6.58249 27.3935 6.38765 28.0521 6.38765C28.7107 6.38765 29.2212 6.58249 29.5834 6.97217C29.9511 7.35636 30.135 7.90246 30.135 8.61048C30.135 9.31849 29.9511 9.86733 29.5834 10.257ZM32.4584 9.02211C31.8821 8.89588 31.4705 8.72299 31.2235 8.50345C30.982 8.28391 30.8613 7.99851 30.8613 7.64725C30.8613 7.25208 31.0067 6.94473 31.2976 6.72519C31.594 6.50016 32.0303 6.38765 32.6066 6.38765C32.9688 6.38765 33.3283 6.42058 33.6851 6.48644C33.8058 6.50839 33.9019 6.56877 33.9732 6.66756C34.0501 6.76086 34.0885 6.87063 34.0885 6.99687C34.0885 7.10115 34.0473 7.18622 33.965 7.25208C33.8827 7.31245 33.7894 7.32892 33.6851 7.30148C33.3777 7.22464 33.0539 7.18622 32.7136 7.18622C32.2197 7.18622 31.9727 7.32343 31.9727 7.59785C31.9727 7.72958 32.0193 7.83935 32.1126 7.92716C32.2059 8.01498 32.3651 8.08358 32.5901 8.13298C33.2213 8.25921 33.6522 8.42936 33.8827 8.64341C34.1187 8.85746 34.2367 9.1703 34.2367 9.58193C34.2367 9.9771 34.0885 10.2845 33.7921 10.504C33.4957 10.7235 33.0649 10.8333 32.4996 10.8333C32.1319 10.8333 31.7559 10.7894 31.3717 10.7016C31.251 10.6741 31.1522 10.611 31.0753 10.5122C30.9985 10.4079 30.9601 10.2899 30.9601 10.1582C30.9601 10.0539 31.0012 9.97436 31.0836 9.91947C31.1714 9.86459 31.2647 9.85087 31.3635 9.87831C31.7202 9.9771 32.0578 10.0265 32.3761 10.0265C32.8755 10.0265 33.1253 9.87831 33.1253 9.58193C33.1253 9.43923 33.0759 9.32672 32.9771 9.24439C32.8838 9.16207 32.7109 9.08797 32.4584 9.02211ZM35.2744 7.4332C35.1646 7.4332 35.0713 7.39478 34.9945 7.31794C34.9176 7.23562 34.8792 7.13957 34.8792 7.0298C34.8792 6.92003 34.9176 6.82672 34.9945 6.74989C35.0713 6.67305 35.1646 6.63463 35.2744 6.63463H35.6696C35.719 6.63463 35.7436 6.60993 35.7436 6.56053V5.53968C35.7436 5.41345 35.7876 5.30368 35.8754 5.21037C35.9687 5.11707 36.0784 5.07042 36.2047 5.07042H36.3693C36.4956 5.07042 36.6053 5.11707 36.6986 5.21037C36.7919 5.30368 36.8386 5.41345 36.8386 5.53968V6.56053C36.8386 6.60993 36.8633 6.63463 36.9127 6.63463H37.8512C37.961 6.63463 38.0543 6.67305 38.1311 6.74989C38.2135 6.82672 38.2546 6.92003 38.2546 7.0298C38.2546 7.13957 38.2135 7.23562 38.1311 7.31794C38.0543 7.39478 37.961 7.4332 37.8512 7.4332H36.9127C36.8633 7.4332 36.8386 7.45515 36.8386 7.49906V9.16207C36.8386 9.51882 36.877 9.74933 36.9539 9.85361C37.0307 9.95789 37.1899 10.01 37.4314 10.01C37.5631 10.01 37.6619 10.0045 37.7277 9.99357C37.8375 9.98259 37.9335 10.0073 38.0159 10.0677C38.0982 10.128 38.1394 10.2104 38.1394 10.3146C38.1394 10.4354 38.0982 10.5452 38.0159 10.644C37.939 10.7373 37.843 10.7894 37.7277 10.8004C37.4862 10.8223 37.3051 10.8333 37.1844 10.8333C36.652 10.8333 36.2788 10.7208 36.0647 10.4958C35.8507 10.2652 35.7436 9.85636 35.7436 9.26909V7.49906C35.7436 7.45515 35.719 7.4332 35.6696 7.4332H35.2744ZM39.8554 10.751C39.7291 10.751 39.6194 10.7043 39.5261 10.611C39.4382 10.5177 39.3943 10.4079 39.3943 10.2817V6.93924C39.3943 6.813 39.4382 6.70323 39.5261 6.60993C39.6194 6.51663 39.7291 6.46997 39.8554 6.46997H39.9706C40.0969 6.46997 40.2039 6.51388 40.2917 6.6017C40.385 6.68951 40.4344 6.79654 40.4399 6.92277V6.9804C40.4399 6.98589 40.4426 6.98863 40.4481 6.98863C40.4591 6.98863 40.4646 6.98589 40.4646 6.9804C40.7884 6.58523 41.1534 6.38765 41.5595 6.38765C41.8065 6.38765 42.0041 6.4343 42.1523 6.5276C42.306 6.62091 42.4404 6.78556 42.5557 7.02157C42.5557 7.02705 42.5612 7.0298 42.5722 7.0298C42.5776 7.0298 42.5831 7.02705 42.5886 7.02157C42.9344 6.59895 43.3241 6.38765 43.7577 6.38765C44.2132 6.38765 44.5398 6.51114 44.7374 6.75812C44.9404 7.0051 45.042 7.43046 45.042 8.03419V10.2817C45.042 10.4079 44.9953 10.5177 44.902 10.611C44.8142 10.7043 44.7072 10.751 44.5809 10.751H44.441C44.3147 10.751 44.205 10.7043 44.1117 10.611C44.0184 10.5177 43.9717 10.4079 43.9717 10.2817V8.19884C43.9717 7.79818 43.9333 7.53474 43.8565 7.4085C43.7796 7.28227 43.6314 7.21915 43.4119 7.21915C43.2692 7.21915 43.1265 7.28501 42.9838 7.41673C42.8411 7.54846 42.7697 7.68018 42.7697 7.8119V10.2817C42.7697 10.4079 42.7231 10.5177 42.6298 10.611C42.5365 10.7043 42.4267 10.751 42.3005 10.751H42.1605C42.0343 10.751 41.9245 10.7043 41.8312 10.611C41.7434 10.5177 41.6995 10.4079 41.6995 10.2817V8.19884C41.6995 7.80367 41.6583 7.54297 41.576 7.41673C41.4992 7.28501 41.351 7.21915 41.1314 7.21915C40.9887 7.21915 40.846 7.28501 40.7033 7.41673C40.5606 7.54846 40.4893 7.68018 40.4893 7.8119V10.2817C40.4893 10.4079 40.4426 10.5177 40.3493 10.611C40.256 10.7043 40.1463 10.751 40.02 10.751H39.8554ZM48.1567 8.6928C47.3718 8.6928 46.9794 8.9343 46.9794 9.41728C46.9794 9.59291 47.0288 9.73561 47.1276 9.84538C47.2319 9.95515 47.3636 10.01 47.5228 10.01C47.8356 10.01 48.0881 9.91399 48.2802 9.72189C48.4723 9.5243 48.5683 9.25537 48.5683 8.91509V8.7669C48.5683 8.7175 48.5436 8.6928 48.4942 8.6928H48.1567ZM47.2264 10.8333C46.8532 10.8333 46.5431 10.7126 46.2961 10.4711C46.0546 10.2241 45.9339 9.90575 45.9339 9.51607C45.9339 9.03858 46.115 8.6681 46.4772 8.40466C46.8449 8.14121 47.4048 8.00949 48.1567 8.00949H48.4942C48.5436 8.00949 48.5683 7.98479 48.5683 7.93539V7.86953C48.5683 7.61706 48.508 7.44143 48.3872 7.34264C48.2665 7.23836 48.0524 7.18622 47.7451 7.18622C47.4267 7.18622 47.037 7.24385 46.576 7.35911C46.4772 7.38655 46.3867 7.37008 46.3043 7.30971C46.222 7.24385 46.1808 7.15878 46.1808 7.0545C46.1808 6.92826 46.2193 6.81575 46.2961 6.71696C46.3729 6.61267 46.4717 6.54956 46.5925 6.5276C47.0096 6.4343 47.402 6.38765 47.7698 6.38765C48.4723 6.38765 48.9635 6.51388 49.2434 6.76635C49.5233 7.01882 49.6633 7.46064 49.6633 8.09182V10.2817C49.6633 10.4079 49.6166 10.5177 49.5233 10.611C49.4355 10.7043 49.3285 10.751 49.2022 10.751H49.1117C48.98 10.751 48.8674 10.7071 48.7741 10.6193C48.6808 10.5259 48.6314 10.4134 48.626 10.2817V10.1665C48.626 10.161 48.6232 10.1582 48.6177 10.1582C48.6067 10.1582 48.6013 10.161 48.6013 10.1665C48.2665 10.611 47.8082 10.8333 47.2264 10.8333ZM51.2238 10.751C51.0975 10.751 50.9877 10.7043 50.8944 10.611C50.8011 10.5177 50.7545 10.4079 50.7545 10.2817V6.93924C50.7545 6.813 50.8011 6.70323 50.8944 6.60993C50.9877 6.51663 51.0975 6.46997 51.2238 6.46997H51.3308C51.4625 6.46997 51.5723 6.51663 51.6601 6.60993C51.7534 6.69775 51.8028 6.80752 51.8083 6.93924V6.99687C51.8083 7.00236 51.811 7.0051 51.8165 7.0051C51.822 7.0051 51.8275 7.00236 51.833 6.99687C52.2062 6.59072 52.6425 6.38765 53.142 6.38765C53.6414 6.38765 54.0037 6.53035 54.2287 6.81575C54.4592 7.09566 54.5745 7.56492 54.5745 8.22354V10.2817C54.5745 10.4079 54.5278 10.5177 54.4345 10.611C54.3412 10.7043 54.2314 10.751 54.1052 10.751H53.9652C53.839 10.751 53.7292 10.7043 53.6359 10.611C53.5481 10.5177 53.5042 10.4079 53.5042 10.2817V8.30587C53.5042 7.89423 53.4493 7.61432 53.3396 7.46613C53.2353 7.31245 53.0459 7.23562 52.7715 7.23562C52.5465 7.23562 52.3379 7.33166 52.1458 7.52376C51.9537 7.71586 51.8577 7.92167 51.8577 8.14121V10.2817C51.8577 10.4079 51.811 10.5177 51.7177 10.611C51.6244 10.7043 51.5146 10.751 51.3884 10.751H51.2238Z" fill="#FCD28D"/>
</svg>
