<svg width="53" height="15" viewBox="0 0 53 15" fill="none" xmlns="http://www.w3.org/2000/svg">
<rect x="0.600586" y="0.0341797" width="52.3899" height="14.9685" rx="7.48427" fill="#2F291E"/>
<g clip-path="url(#clip0_1343_3203)">
<path d="M12.1357 6.55728C12.0032 6.05022 11.7615 5.65169 11.2544 5.65169H10.579V6.44876C10.579 7.06434 10.0476 7.58338 9.48027 7.58338H7.68068C7.18597 7.58338 6.7994 8.00624 6.7994 8.50095V10.2036C6.7994 10.674 7.22227 10.964 7.68068 11.1208C8.23638 11.29 8.77937 11.3263 9.46755 11.1208C9.91436 10.988 10.3492 10.7346 10.3492 10.2032V9.52704H8.5743V9.31H11.2544C11.7615 9.31 11.9669 8.94776 12.1357 8.4044C12.3168 7.81277 12.3168 7.26941 12.1357 6.55728ZM9.57607 9.93755C9.75756 9.93755 9.91436 10.0947 9.91436 10.2758C9.91436 10.457 9.75719 10.6138 9.57644 10.6138C9.39532 10.6257 9.23815 10.4566 9.23815 10.2758C9.22618 10.0947 9.38297 9.93755 9.57644 9.93755M7.59685 7.35398H9.38372C9.87843 7.35398 10.265 6.94347 10.265 6.43641V4.75806C10.265 4.2873 9.85448 3.92506 9.38335 3.84049C8.79209 3.75629 8.13984 3.75629 7.59685 3.84049C6.83608 3.97334 6.71521 4.251 6.71521 4.75806V5.43427H8.50208V5.65131H6.06295C5.55589 5.65131 5.09711 5.97763 4.96426 6.55691C4.79512 7.23311 4.79512 7.6556 4.96426 8.35613C5.09711 8.88751 5.38712 9.26172 5.91813 9.26172H6.49779V8.45267C6.48544 7.86104 7.00485 7.35398 7.59648 7.35398M7.48796 4.97548C7.39887 4.97367 7.31393 4.9375 7.25089 4.87452C7.18785 4.81155 7.15158 4.72665 7.14967 4.63757C7.14967 4.45645 7.30684 4.29928 7.48758 4.29928C7.66833 4.29928 7.82587 4.45645 7.82587 4.63757C7.82587 4.81869 7.66908 4.97548 7.48796 4.97548Z" fill="#FCD28D"/>
</g>
<path d="M22.5604 5.44721V7.43129C22.5604 7.46971 22.5823 7.49441 22.6262 7.50539C22.8348 7.53283 23.0378 7.54655 23.2354 7.54655C23.68 7.54655 24.0175 7.4505 24.2481 7.25841C24.4841 7.06082 24.6021 6.78091 24.6021 6.41867C24.6021 5.68871 24.1465 5.32372 23.2354 5.32372C23.0378 5.32372 22.8348 5.33744 22.6262 5.36489C22.5823 5.37586 22.5604 5.40331 22.5604 5.44721ZM21.8853 10.5186C21.759 10.5186 21.6493 10.4719 21.556 10.3786C21.4681 10.2853 21.4242 10.1755 21.4242 10.0493V5.01911C21.4242 4.88739 21.4681 4.76939 21.556 4.66511C21.6438 4.56083 21.7535 4.5032 21.8853 4.49222C22.3518 4.44831 22.8018 4.42636 23.2354 4.42636C24.0587 4.42636 24.6762 4.59101 25.0878 4.92032C25.4994 5.24414 25.7052 5.71615 25.7052 6.33635C25.7052 7.0224 25.5049 7.54106 25.1043 7.89232C24.7091 8.24359 24.1218 8.41922 23.3425 8.41922C23.1613 8.41922 22.9226 8.40824 22.6262 8.38629C22.5823 8.38629 22.5604 8.40824 22.5604 8.45215V10.0493C22.5604 10.1755 22.5137 10.2853 22.4204 10.3786C22.3271 10.4719 22.2173 10.5186 22.0911 10.5186H21.8853ZM27.6146 10.4527L26.248 6.67389C26.2151 6.56412 26.2288 6.46532 26.2892 6.37751C26.3496 6.2842 26.4374 6.23755 26.5526 6.23755H26.7996C26.9368 6.23755 27.0631 6.28146 27.1783 6.36928C27.2936 6.4516 27.3677 6.55863 27.4006 6.69035L28.1662 9.38244C28.1662 9.38793 28.169 9.39068 28.1745 9.39068C28.18 9.39068 28.1827 9.38793 28.1827 9.38244L29.0636 6.68212C29.1075 6.5504 29.1871 6.44337 29.3024 6.36104C29.4176 6.27872 29.5438 6.23755 29.6811 6.23755H29.8786C29.9939 6.23755 30.0817 6.2842 30.1421 6.37751C30.2079 6.47081 30.2189 6.5696 30.175 6.67389L28.1662 11.8934C28.1168 12.0251 28.0345 12.1294 27.9193 12.2063C27.804 12.2886 27.675 12.3297 27.5323 12.3297H27.3347C27.225 12.3297 27.1372 12.2831 27.0713 12.1898C27.0109 12.102 27.0027 12.0059 27.0466 11.9016L27.6146 10.5844C27.6256 10.5625 27.6311 10.5405 27.6311 10.5186C27.6311 10.4966 27.6256 10.4746 27.6146 10.4527ZM31.1468 7.20078C31.037 7.20078 30.9437 7.16236 30.8669 7.08552C30.79 7.00319 30.7516 6.90715 30.7516 6.79738C30.7516 6.68761 30.79 6.5943 30.8669 6.51746C30.9437 6.44063 31.037 6.40221 31.1468 6.40221H31.542C31.5914 6.40221 31.6161 6.37751 31.6161 6.32811V5.30726C31.6161 5.18102 31.66 5.07125 31.7478 4.97795C31.8411 4.88465 31.9509 4.83799 32.0771 4.83799H32.2417C32.368 4.83799 32.4777 4.88465 32.5711 4.97795C32.6644 5.07125 32.711 5.18102 32.711 5.30726V6.32811C32.711 6.37751 32.7357 6.40221 32.7851 6.40221H33.7236C33.8334 6.40221 33.9267 6.44063 34.0035 6.51746C34.0859 6.5943 34.127 6.68761 34.127 6.79738C34.127 6.90715 34.0859 7.00319 34.0035 7.08552C33.9267 7.16236 33.8334 7.20078 33.7236 7.20078H32.7851C32.7357 7.20078 32.711 7.22273 32.711 7.26664V8.92964C32.711 9.28639 32.7494 9.51691 32.8263 9.62119C32.9031 9.72547 33.0623 9.77761 33.3038 9.77761C33.4355 9.77761 33.5343 9.77212 33.6001 9.76115C33.7099 9.75017 33.806 9.77487 33.8883 9.83524C33.9706 9.89561 34.0118 9.97794 34.0118 10.0822C34.0118 10.203 33.9706 10.3127 33.8883 10.4115C33.8114 10.5048 33.7154 10.557 33.6001 10.568C33.3586 10.5899 33.1775 10.6009 33.0568 10.6009C32.5244 10.6009 32.1512 10.4884 31.9371 10.2633C31.7231 10.0328 31.6161 9.62394 31.6161 9.03667V7.26664C31.6161 7.22273 31.5914 7.20078 31.542 7.20078H31.1468ZM35.7689 10.5186C35.6427 10.5186 35.5329 10.4719 35.4396 10.3786C35.3518 10.2853 35.3079 10.1755 35.3079 10.0493V4.8133C35.3079 4.68706 35.3518 4.57729 35.4396 4.48399C35.5329 4.39068 35.6427 4.34403 35.7689 4.34403H35.9336C36.0598 4.34403 36.1696 4.39068 36.2629 4.48399C36.3562 4.57729 36.4029 4.68706 36.4029 4.8133V6.72328C36.4029 6.72877 36.4056 6.73151 36.4111 6.73151C36.4166 6.73151 36.4221 6.72877 36.4276 6.72328C36.8117 6.34458 37.2344 6.15523 37.6954 6.15523C38.1948 6.15523 38.5571 6.29793 38.7821 6.58333C39.0071 6.86873 39.1196 7.3572 39.1196 8.04875V10.0493C39.1196 10.1755 39.073 10.2853 38.9797 10.3786C38.8864 10.4719 38.7766 10.5186 38.6504 10.5186H38.5187C38.3924 10.5186 38.2827 10.4719 38.1894 10.3786C38.096 10.2853 38.0494 10.1755 38.0494 10.0493V8.2134C38.0494 7.7359 37.9973 7.42032 37.893 7.26664C37.7942 7.11296 37.6048 7.03612 37.3249 7.03612C37.1054 7.03612 36.8968 7.13492 36.6992 7.3325C36.5017 7.53009 36.4029 7.74139 36.4029 7.96642V10.0493C36.4029 10.1755 36.3562 10.2853 36.2629 10.3786C36.1696 10.4719 36.0598 10.5186 35.9336 10.5186H35.7689ZM42.7304 7.29957C42.5712 7.06905 42.3297 6.9538 42.0059 6.9538C41.6821 6.9538 41.4379 7.06905 41.2732 7.29957C41.114 7.5246 41.0345 7.88409 41.0345 8.37805C41.0345 8.87202 41.114 9.23425 41.2732 9.46477C41.4379 9.6898 41.6821 9.80231 42.0059 9.80231C42.3297 9.80231 42.5712 9.6898 42.7304 9.46477C42.895 9.23425 42.9774 8.87202 42.9774 8.37805C42.9774 7.88409 42.895 7.5246 42.7304 7.29957ZM43.5372 10.0246C43.175 10.4088 42.6645 10.6009 42.0059 10.6009C41.3473 10.6009 40.8341 10.4088 40.4664 10.0246C40.1042 9.63491 39.923 9.08607 39.923 8.37805C39.923 7.67004 40.1042 7.12394 40.4664 6.73975C40.8341 6.35007 41.3473 6.15523 42.0059 6.15523C42.6645 6.15523 43.175 6.35007 43.5372 6.73975C43.9049 7.12394 44.0888 7.67004 44.0888 8.37805C44.0888 9.08607 43.9049 9.63491 43.5372 10.0246ZM45.4078 10.5186C45.2816 10.5186 45.1718 10.4719 45.0785 10.3786C44.9852 10.2853 44.9386 10.1755 44.9386 10.0493V6.70682C44.9386 6.58058 44.9852 6.47081 45.0785 6.37751C45.1718 6.2842 45.2816 6.23755 45.4078 6.23755H45.5148C45.6466 6.23755 45.7563 6.2842 45.8442 6.37751C45.9375 6.46532 45.9869 6.57509 45.9923 6.70682V6.76445C45.9923 6.76993 45.9951 6.77268 46.0006 6.77268C46.0061 6.77268 46.0115 6.76993 46.017 6.76445C46.3903 6.3583 46.8266 6.15523 47.326 6.15523C47.8255 6.15523 48.1877 6.29793 48.4128 6.58333C48.6433 6.86324 48.7585 7.3325 48.7585 7.99112V10.0493C48.7585 10.1755 48.7119 10.2853 48.6186 10.3786C48.5253 10.4719 48.4155 10.5186 48.2893 10.5186H48.1493C48.0231 10.5186 47.9133 10.4719 47.82 10.3786C47.7322 10.2853 47.6883 10.1755 47.6883 10.0493V8.07344C47.6883 7.66181 47.6334 7.3819 47.5236 7.23371C47.4193 7.08003 47.23 7.00319 46.9556 7.00319C46.7305 7.00319 46.522 7.09924 46.3299 7.29134C46.1378 7.48343 46.0417 7.68925 46.0417 7.90879V10.0493C46.0417 10.1755 45.9951 10.2853 45.9018 10.3786C45.8085 10.4719 45.6987 10.5186 45.5725 10.5186H45.4078Z" fill="#FCD28D"/>
<defs>
<clipPath id="clip0_1343_3203">
<rect width="8.98112" height="8.98112" fill="white" transform="translate(4.06299 3.02832)"/>
</clipPath>
</defs>
</svg>
