<svg width="43" height="11" viewBox="0 0 43 11" fill="none" xmlns="http://www.w3.org/2000/svg">
<rect y="0.000976562" width="42.4948" height="10.2397" rx="5.11985" fill="#2F1B1A"/>
<g clip-path="url(#clip0_2111_2953)">
<path d="M13.962 6.51714C13.6404 6.68515 11.9746 7.36679 11.6194 7.554C11.2642 7.74121 11.0674 7.73641 10.789 7.602C10.5106 7.4676 8.73925 6.75715 8.41763 6.60354C8.25922 6.52674 8.17761 6.46433 8.17761 6.40193V5.79229C8.17761 5.79229 10.4818 5.28826 10.8562 5.15865C11.2306 5.02424 11.3554 5.01944 11.6722 5.13465C11.989 5.24986 13.8852 5.59068 14.1972 5.70589V6.30592C14.1972 6.36833 14.1252 6.43553 13.962 6.51714Z" fill="#A41E11"/>
<path d="M13.962 5.91365C13.6404 6.08166 11.9747 6.7633 11.6195 6.95051C11.2642 7.13773 11.0674 7.13292 10.789 6.99852C10.5106 6.86411 8.73928 6.14886 8.41766 5.99525C8.10084 5.84164 8.09124 5.73604 8.40326 5.61603C8.71528 5.49122 10.477 4.79998 10.8514 4.67037C11.2258 4.53596 11.3506 4.53116 11.6675 4.64637C11.9843 4.76158 13.6404 5.41922 13.9524 5.53443C14.274 5.64963 14.2836 5.74564 13.962 5.91365Z" fill="#D82C20"/>
<path d="M13.962 5.52877C13.6404 5.69678 11.9746 6.37843 11.6194 6.56564C11.2642 6.74805 11.0674 6.74805 10.789 6.61364C10.5106 6.47923 8.73925 5.76399 8.41763 5.61038C8.25922 5.53357 8.17761 5.47117 8.17761 5.40877V4.79913C8.17761 4.79913 10.4818 4.2951 10.8562 4.16549C11.2306 4.03108 11.3554 4.02628 11.6722 4.14149C11.989 4.25669 13.8852 4.59752 14.1972 4.71272V5.31276C14.1972 5.37516 14.1252 5.44237 13.962 5.52877Z" fill="#A41E11"/>
<path d="M13.9621 4.92048C13.6404 5.0885 11.9747 5.77014 11.6195 5.95735C11.2643 6.13976 11.0675 6.13976 10.7891 6.00535C10.5107 5.87094 8.73934 5.1557 8.41772 5.00209C8.0961 4.84848 8.0913 4.74287 8.40332 4.62287C8.71534 4.49806 10.477 3.80682 10.8515 3.67721C11.2259 3.5428 11.3507 3.538 11.6675 3.65321C11.9843 3.76841 13.6404 4.42605 13.9525 4.54126C14.2741 4.65647 14.2837 4.75247 13.9621 4.92048Z" fill="#D82C20"/>
<path d="M13.962 4.49663C13.6404 4.66464 11.9747 5.34628 11.6195 5.53349C11.2642 5.71591 11.0674 5.71591 10.789 5.5815C10.5106 5.45189 8.73929 4.73664 8.41767 4.58304C8.25926 4.50623 8.17285 4.44383 8.17285 4.38142V3.77178C8.17285 3.77178 10.477 3.26775 10.8514 3.13814C11.2258 3.00374 11.3507 2.99894 11.6675 3.11414C11.9843 3.22935 13.8804 3.57017 14.1924 3.68538V4.28542C14.1972 4.34782 14.1252 4.41022 13.962 4.49663Z" fill="#A41E11"/>
<path d="M13.9621 3.88932C13.6404 4.05733 11.9747 4.73897 11.6195 4.92618C11.2643 5.10859 11.0675 5.10859 10.7891 4.97418C10.5107 4.83978 8.73934 4.12933 8.41772 3.97572C8.0961 3.82211 8.0913 3.71651 8.40332 3.5965C8.71534 3.47169 10.477 2.78045 10.8515 2.65084C11.2259 2.51643 11.3507 2.51163 11.6675 2.62684C11.9843 2.74205 13.6404 3.39969 13.9525 3.51489C14.2741 3.6301 14.2837 3.72611 13.9621 3.88932Z" fill="#D82C20"/>
<path d="M11.9746 3.30198L11.4562 3.35958L11.3361 3.638L11.1489 3.32598L10.5489 3.27318L10.9953 3.10997L10.8609 2.86035L11.2833 3.02356L11.677 2.89395L11.5714 3.15317L11.9746 3.30198ZM11.3073 4.66526L10.3329 4.26204L11.7298 4.05083L11.3073 4.66526Z" fill="white"/>
<path d="M9.9584 4.036C10.3693 4.036 10.7024 3.90705 10.7024 3.74798C10.7024 3.58891 10.3693 3.45996 9.9584 3.45996C9.54748 3.45996 9.21436 3.58891 9.21436 3.74798C9.21436 3.90705 9.54748 4.036 9.9584 4.036Z" fill="white"/>
<path d="M12.5938 3.37695L13.4194 3.70337L12.5938 4.02979V3.37695Z" fill="#7A0C00"/>
<path d="M11.6818 3.74178L12.5938 3.37695V4.02979L12.5026 4.0682L11.6818 3.74178Z" fill="#AD2115"/>
</g>
<path d="M20.6878 3.65188V4.87399C20.6878 4.90403 20.7047 4.91904 20.7385 4.91904H21.0201C21.6884 4.91904 22.0226 4.68063 22.0226 4.2038C22.0226 3.77954 21.7128 3.5674 21.0933 3.5674C20.9807 3.5674 20.8624 3.57679 20.7385 3.59556C20.7047 3.60307 20.6878 3.62184 20.6878 3.65188ZM20.2317 7.12109C20.1453 7.12109 20.0702 7.08918 20.0064 7.02535C19.9426 6.96152 19.9106 6.88643 19.9106 6.80008V3.35903C19.9106 3.26892 19.9407 3.18819 20.0008 3.11686C20.0608 3.04552 20.1359 3.0061 20.226 2.99859C20.5452 2.96855 20.853 2.95353 21.1496 2.95353C21.7016 2.95353 22.1146 3.05678 22.3887 3.26328C22.6627 3.46603 22.7998 3.75325 22.7998 4.12496C22.7998 4.39153 22.7266 4.62619 22.5801 4.82894C22.4375 5.03168 22.2441 5.17435 22.0001 5.25695C21.9963 5.25695 21.9944 5.25883 21.9944 5.26259C21.9944 5.2701 21.9963 5.27385 22.0001 5.27385C22.1803 5.38649 22.3342 5.60801 22.4619 5.93841L22.7998 6.82261C22.8261 6.89394 22.8167 6.96152 22.7716 7.02535C22.7303 7.08918 22.6721 7.12109 22.597 7.12109H22.4224C22.3248 7.12109 22.2366 7.09481 22.1577 7.04225C22.0789 6.98593 22.0226 6.91272 21.9888 6.82261L21.6734 5.9553C21.6058 5.77508 21.5289 5.65682 21.4425 5.6005C21.3561 5.54418 21.2078 5.51602 20.9976 5.51602H20.7385C20.7047 5.51602 20.6878 5.53292 20.6878 5.56671V6.80008C20.6878 6.88643 20.6559 6.96152 20.5921 7.02535C20.532 7.08918 20.4588 7.12109 20.3725 7.12109H20.2317ZM24.5077 4.65998C24.3162 4.65998 24.1679 4.71442 24.0628 4.8233C23.9614 4.92843 23.8976 5.09926 23.8713 5.3358C23.8713 5.36584 23.8863 5.38086 23.9163 5.38086H25.0202C25.0502 5.38086 25.0652 5.36584 25.0652 5.3358C25.0502 4.88525 24.8644 4.65998 24.5077 4.65998ZM24.6485 7.17741C24.1566 7.17741 23.7774 7.04976 23.5108 6.79445C23.248 6.53538 23.1166 6.15617 23.1166 5.65682C23.1166 5.16121 23.2349 4.78388 23.4714 4.52482C23.708 4.26575 24.0496 4.13622 24.4964 4.13622C25.3299 4.13622 25.7579 4.60929 25.7805 5.55544C25.7842 5.64555 25.7523 5.72064 25.6847 5.78072C25.6171 5.84079 25.5383 5.87083 25.4482 5.87083H23.9107C23.8769 5.87083 23.8638 5.88772 23.8713 5.92151C23.8976 6.17307 23.9802 6.35704 24.1191 6.47343C24.2618 6.58607 24.4683 6.64239 24.7386 6.64239C24.9075 6.64239 25.0953 6.61423 25.3018 6.55791C25.3693 6.53914 25.4313 6.5504 25.4876 6.5917C25.5477 6.633 25.5777 6.68932 25.5777 6.76066C25.5777 6.84701 25.5514 6.92398 25.4989 6.99156C25.4501 7.05539 25.3844 7.09481 25.3018 7.10983C25.0915 7.15488 24.8737 7.17741 24.6485 7.17741ZM27.6652 4.6994C27.2335 4.6994 27.0176 5.01854 27.0176 5.65682C27.0176 5.97595 27.0758 6.21624 27.1922 6.37769C27.3086 6.53538 27.4663 6.61423 27.6652 6.61423C27.8417 6.61423 27.9938 6.55603 28.1214 6.43964C28.2491 6.32325 28.3129 6.18996 28.3129 6.03978V5.27385C28.3129 5.12367 28.2491 4.99038 28.1214 4.87399C27.9938 4.7576 27.8417 4.6994 27.6652 4.6994ZM27.44 7.17741C27.1058 7.17741 26.828 7.04225 26.6065 6.77192C26.3849 6.49784 26.2742 6.12614 26.2742 5.65682C26.2742 5.17248 26.3793 4.7989 26.5896 4.53608C26.8036 4.26951 27.087 4.13622 27.44 4.13622C27.7591 4.13622 28.0407 4.25261 28.2847 4.48539C28.2885 4.48915 28.2923 4.49102 28.296 4.49102C28.2998 4.49102 28.3016 4.48915 28.3016 4.48539V3.21823C28.3016 3.13187 28.3336 3.05678 28.3974 2.99296C28.4612 2.92913 28.5363 2.89721 28.6227 2.89721H28.7353C28.8217 2.89721 28.8967 2.92913 28.9606 2.99296C29.0244 3.05678 29.0563 3.13187 29.0563 3.21823V6.80008C29.0563 6.88643 29.0244 6.96152 28.9606 7.02535C28.8967 7.08918 28.8217 7.12109 28.7353 7.12109H28.6733C28.5832 7.12109 28.5063 7.09106 28.4424 7.03098C28.3824 6.96716 28.3505 6.89019 28.3467 6.80008L28.3411 6.76066C28.3411 6.7569 28.3392 6.75502 28.3354 6.75502C28.3317 6.75502 28.3279 6.7569 28.3242 6.76066C28.0764 7.03849 27.7816 7.17741 27.44 7.17741ZM30.354 7.12109C30.2677 7.12109 30.1926 7.08918 30.1287 7.02535C30.0649 6.96152 30.033 6.88643 30.033 6.80008V4.51355C30.033 4.4272 30.0649 4.35211 30.1287 4.28828C30.1926 4.22445 30.2677 4.19254 30.354 4.19254H30.5004C30.5868 4.19254 30.6619 4.22445 30.7257 4.28828C30.7895 4.35211 30.8215 4.4272 30.8215 4.51355V6.80008C30.8215 6.88643 30.7895 6.96152 30.7257 7.02535C30.6619 7.08918 30.5868 7.12109 30.5004 7.12109H30.354ZM30.354 3.57303C30.2677 3.57303 30.1926 3.54112 30.1287 3.47729C30.0649 3.41347 30.033 3.33838 30.033 3.25202V3.21823C30.033 3.13187 30.0649 3.05678 30.1287 2.99296C30.1926 2.92913 30.2677 2.89721 30.354 2.89721H30.5004C30.5868 2.89721 30.6619 2.92913 30.7257 2.99296C30.7895 3.05678 30.8215 3.13187 30.8215 3.21823V3.25202C30.8215 3.33838 30.7895 3.41347 30.7257 3.47729C30.6619 3.54112 30.5868 3.57303 30.5004 3.57303H30.354ZM32.7751 5.93841C32.3809 5.85205 32.0993 5.73378 31.9303 5.5836C31.7651 5.43342 31.6825 5.23818 31.6825 4.99789C31.6825 4.72756 31.782 4.51731 31.981 4.36712C32.1837 4.21319 32.4822 4.13622 32.8765 4.13622C33.1243 4.13622 33.3702 4.15875 33.6142 4.2038C33.6968 4.21882 33.7625 4.26012 33.8113 4.3277C33.8639 4.39153 33.8902 4.46662 33.8902 4.55298C33.8902 4.62431 33.862 4.68251 33.8057 4.72756C33.7494 4.76886 33.6856 4.78013 33.6142 4.76135C33.404 4.70879 33.1825 4.68251 32.9497 4.68251C32.6118 4.68251 32.4428 4.77637 32.4428 4.9641C32.4428 5.05421 32.4747 5.1293 32.5385 5.18937C32.6024 5.24945 32.7113 5.29638 32.8652 5.33017C33.297 5.41652 33.5917 5.53292 33.7494 5.67934C33.9108 5.82577 33.9916 6.03978 33.9916 6.32137C33.9916 6.5917 33.8902 6.80196 33.6874 6.95214C33.4847 7.10232 33.19 7.17741 32.8032 7.17741C32.5517 7.17741 32.2945 7.14738 32.0317 7.0873C31.9491 7.06853 31.8815 7.02535 31.8289 6.95777C31.7764 6.88643 31.7501 6.80571 31.7501 6.7156C31.7501 6.64426 31.7782 6.58982 31.8346 6.55228C31.8946 6.51473 31.9585 6.50535 32.026 6.52412C32.2701 6.5917 32.501 6.62549 32.7188 6.62549C33.0604 6.62549 33.2313 6.52412 33.2313 6.32137C33.2313 6.22375 33.1975 6.14679 33.1299 6.09047C33.0661 6.03415 32.9478 5.98346 32.7751 5.93841Z" fill="#F53C31"/>
<defs>
<clipPath id="clip0_2111_2953">
<rect width="6.14438" height="6.14438" fill="white" transform="translate(8.11523 2.04883)"/>
</clipPath>
</defs>
</svg>
