<svg width="70" height="16" viewBox="0 0 70 16" fill="none" xmlns="http://www.w3.org/2000/svg">
<rect x="0.905273" y="0.939453" width="68.6682" height="14.9685" rx="7.48427" fill="#2F1B1A"/>
<g clip-path="url(#clip0_1343_3233)">
<path d="M11.9963 9.22104L9.89699 8.1115L6.25308 6.18551C6.24981 6.18224 6.24317 6.18224 6.2398 6.18224C6.10676 6.119 5.97036 6.25203 6.02032 6.38506L7.87698 11.1207L7.87736 11.1217L7.88297 11.1357C7.95912 11.3123 8.12546 11.4214 8.30639 11.4644C8.32173 11.4677 8.33259 11.4706 8.35102 11.4744C8.36935 11.4784 8.39499 11.484 8.41688 11.4856C8.42053 11.486 8.4238 11.486 8.42754 11.4862H8.43016L8.43811 11.487H8.44195C8.4442 11.4873 8.44691 11.4873 8.44925 11.4873H8.45355L8.4615 11.4877C10.813 11.7439 13.1854 11.7439 15.5369 11.4877C15.5729 11.4877 15.6089 11.4853 15.6446 11.4807C15.6456 11.4803 15.647 11.4803 15.6479 11.48L15.6649 11.4774C15.6733 11.4762 15.6816 11.4747 15.6898 11.473C15.7065 11.4693 15.714 11.4667 15.7366 11.4589C15.7649 11.4494 15.7928 11.4385 15.8201 11.4263C15.8435 11.4151 15.8598 11.4041 15.8794 11.3919C15.9038 11.3765 15.9268 11.3609 15.9503 11.3433C15.9604 11.3355 15.9673 11.3307 15.9746 11.3237L15.9706 11.3213L11.9963 9.22104Z" fill="#FF4B4B"/>
<path d="M17.7443 6.18467H17.741L14.0957 8.11046L16.1221 11.1284L17.9741 6.38412V6.37748C18.0207 6.23771 17.8777 6.11141 17.7443 6.18467Z" fill="#7D353B"/>
<path d="M12.1896 5.26999C12.0963 5.13396 11.8935 5.13396 11.8036 5.26999L9.896 8.11167L11.9952 9.22122L15.9734 11.3237C15.9984 11.2993 16.0184 11.2755 16.0396 11.2503C16.0696 11.2133 16.0975 11.1739 16.1221 11.1296L14.0957 8.11158L12.1896 5.26999Z" fill="#BD4043"/>
</g>
<path d="M28.1556 8.88816C27.497 8.66862 27.0195 8.40243 26.7231 8.08959C26.4322 7.77674 26.2868 7.39804 26.2868 6.95347C26.2868 6.45402 26.4542 6.05885 26.789 5.76797C27.1238 5.47708 27.593 5.33163 28.1968 5.33163C28.7072 5.33163 29.1517 5.38926 29.5305 5.50452C29.6622 5.54294 29.7665 5.62252 29.8433 5.74327C29.9256 5.85853 29.9668 5.9875 29.9668 6.1302V6.2043C29.9668 6.30858 29.9201 6.39091 29.8268 6.45128C29.7335 6.50616 29.6375 6.5144 29.5387 6.47598C29.1271 6.31681 28.7072 6.23723 28.2791 6.23723C28.0047 6.23723 27.7961 6.30035 27.6534 6.42658C27.5107 6.55282 27.4393 6.72845 27.4393 6.95347C27.4393 7.34864 27.6973 7.6313 28.2132 7.80144C28.9542 8.03745 29.4673 8.30638 29.7527 8.60825C30.0436 8.91011 30.1891 9.29979 30.1891 9.77729C30.1891 10.9299 29.4783 11.5062 28.0568 11.5062C27.6122 11.5062 27.2088 11.4375 26.8466 11.3003C26.7149 11.2509 26.6106 11.1659 26.5338 11.0451C26.4624 10.9244 26.4267 10.7899 26.4267 10.6417V10.5429C26.4267 10.4386 26.4706 10.3646 26.5584 10.3206C26.6463 10.2713 26.7368 10.2685 26.8301 10.3124C27.1924 10.4935 27.5738 10.5841 27.9745 10.5841C28.6715 10.5841 29.02 10.3206 29.02 9.79375C29.02 9.5797 28.9542 9.40407 28.8224 9.26686C28.6907 9.12416 28.4684 8.99793 28.1556 8.88816ZM31.1421 8.10605C31.0323 8.10605 30.939 8.06763 30.8622 7.99079C30.7853 7.90847 30.7469 7.81242 30.7469 7.70265C30.7469 7.59288 30.7853 7.49958 30.8622 7.42274C30.939 7.3459 31.0323 7.30748 31.1421 7.30748H31.5372C31.5866 7.30748 31.6113 7.28278 31.6113 7.23339V6.21253C31.6113 6.0863 31.6552 5.97653 31.7431 5.88322C31.8364 5.78992 31.9461 5.74327 32.0724 5.74327H32.237C32.3633 5.74327 32.473 5.78992 32.5663 5.88322C32.6596 5.97653 32.7063 6.0863 32.7063 6.21253V7.23339C32.7063 7.28278 32.731 7.30748 32.7804 7.30748H33.7189C33.8287 7.30748 33.922 7.3459 33.9988 7.42274C34.0811 7.49958 34.1223 7.59288 34.1223 7.70265C34.1223 7.81242 34.0811 7.90847 33.9988 7.99079C33.922 8.06763 33.8287 8.10605 33.7189 8.10605H32.7804C32.731 8.10605 32.7063 8.12801 32.7063 8.17191V9.83492C32.7063 10.1917 32.7447 10.4222 32.8215 10.5265C32.8984 10.6307 33.0575 10.6829 33.299 10.6829C33.4308 10.6829 33.5295 10.6774 33.5954 10.6664C33.7052 10.6554 33.8012 10.6801 33.8836 10.7405C33.9659 10.8009 34.007 10.8832 34.007 10.9875C34.007 11.1082 33.9659 11.218 33.8836 11.3168C33.8067 11.4101 33.7107 11.4622 33.5954 11.4732C33.3539 11.4952 33.1728 11.5062 33.0521 11.5062C32.5197 11.5062 32.1465 11.3936 31.9324 11.1686C31.7184 10.9381 31.6113 10.5292 31.6113 9.94194V8.17191C31.6113 8.12801 31.5866 8.10605 31.5372 8.10605H31.1421ZM35.7313 11.4238C35.605 11.4238 35.4953 11.3772 35.402 11.2839C35.3087 11.1906 35.262 11.0808 35.262 10.9546V7.61209C35.262 7.48586 35.3087 7.37609 35.402 7.28278C35.4953 7.18948 35.605 7.14283 35.7313 7.14283H35.8959C36.0222 7.14283 36.1319 7.18948 36.2252 7.28278C36.3185 7.37609 36.3652 7.48586 36.3652 7.61209V7.95786C36.3652 7.96335 36.3679 7.9661 36.3734 7.9661C36.3844 7.9661 36.3899 7.96335 36.3899 7.95786C36.5491 7.73832 36.7576 7.55995 37.0156 7.42274C37.2735 7.28004 37.5562 7.19222 37.8635 7.15929C37.9788 7.14831 38.0776 7.18673 38.1599 7.27455C38.2423 7.35688 38.2834 7.45567 38.2834 7.57093C38.2834 7.68618 38.2423 7.78498 38.1599 7.8673C38.0776 7.94963 37.9788 7.99628 37.8635 8.00726C36.8921 8.0841 36.4064 8.57806 36.4064 9.48914V10.9546C36.4064 11.0808 36.3597 11.1906 36.2664 11.2839C36.1731 11.3772 36.0633 11.4238 35.9371 11.4238H35.7313ZM40.8423 7.82614C40.5624 7.82614 40.3456 7.90572 40.1919 8.06489C40.0437 8.21857 39.9504 8.46829 39.912 8.81406C39.912 8.85797 39.934 8.87993 39.9779 8.87993H41.5915C41.6354 8.87993 41.6573 8.85797 41.6573 8.81406C41.6354 8.15545 41.3637 7.82614 40.8423 7.82614ZM41.0481 11.5062C40.3291 11.5062 39.7748 11.3195 39.3851 10.9463C39.0009 10.5676 38.8088 10.0133 38.8088 9.28333C38.8088 8.55885 38.9817 8.00726 39.3275 7.62856C39.6733 7.24985 40.1727 7.0605 40.8258 7.0605C42.0443 7.0605 42.67 7.75205 42.7029 9.13514C42.7084 9.26686 42.6617 9.37663 42.5629 9.46445C42.4641 9.55226 42.3489 9.59617 42.2172 9.59617H39.9696C39.9202 9.59617 39.901 9.62087 39.912 9.67026C39.9504 10.038 40.0712 10.3069 40.2742 10.4771C40.4828 10.6417 40.7847 10.724 41.1798 10.724C41.4268 10.724 41.7012 10.6829 42.0031 10.6006C42.1019 10.5731 42.1925 10.5896 42.2748 10.65C42.3626 10.7103 42.4065 10.7927 42.4065 10.8969C42.4065 11.0232 42.3681 11.1357 42.2913 11.2345C42.2199 11.3278 42.1239 11.3854 42.0031 11.4074C41.6958 11.4732 41.3774 11.5062 41.0481 11.5062ZM45.6082 9.36565C44.8233 9.36565 44.4309 9.60715 44.4309 10.0901C44.4309 10.2658 44.4803 10.4085 44.5791 10.5182C44.6834 10.628 44.8151 10.6829 44.9743 10.6829C45.2871 10.6829 45.5396 10.5868 45.7317 10.3947C45.9238 10.1972 46.0198 9.92822 46.0198 9.58794V9.43975C46.0198 9.39035 45.9951 9.36565 45.9457 9.36565H45.6082ZM44.6779 11.5062C44.3047 11.5062 43.9946 11.3854 43.7476 11.1439C43.5061 10.8969 43.3854 10.5786 43.3854 10.1889C43.3854 9.71143 43.5665 9.34096 43.9287 9.07751C44.2965 8.81406 44.8563 8.68234 45.6082 8.68234H45.9457C45.9951 8.68234 46.0198 8.65764 46.0198 8.60825V8.54238C46.0198 8.28992 45.9595 8.11428 45.8387 8.01549C45.718 7.91121 45.5039 7.85907 45.1966 7.85907C44.8782 7.85907 44.4886 7.9167 44.0275 8.03196C43.9287 8.0594 43.8382 8.04293 43.7558 7.98256C43.6735 7.9167 43.6324 7.83163 43.6324 7.72735C43.6324 7.60111 43.6708 7.4886 43.7476 7.38981C43.8244 7.28553 43.9232 7.22241 44.044 7.20046C44.4611 7.10715 44.8535 7.0605 45.2213 7.0605C45.9238 7.0605 46.415 7.18673 46.6949 7.4392C46.9748 7.69167 47.1148 8.13349 47.1148 8.76467V10.9546C47.1148 11.0808 47.0681 11.1906 46.9748 11.2839C46.887 11.3772 46.78 11.4238 46.6538 11.4238H46.5632C46.4315 11.4238 46.319 11.3799 46.2257 11.2921C46.1323 11.1988 46.083 11.0863 46.0775 10.9546V10.8393C46.0775 10.8338 46.0747 10.8311 46.0692 10.8311C46.0583 10.8311 46.0528 10.8338 46.0528 10.8393C45.718 11.2839 45.2597 11.5062 44.6779 11.5062ZM48.667 11.4238C48.5408 11.4238 48.431 11.3772 48.3377 11.2839C48.2499 11.1906 48.206 11.0808 48.206 10.9546V7.61209C48.206 7.48586 48.2499 7.37609 48.3377 7.28278C48.431 7.18948 48.5408 7.14283 48.667 7.14283H48.7823C48.9085 7.14283 49.0155 7.18673 49.1034 7.27455C49.1967 7.36236 49.2461 7.46939 49.2516 7.59562V7.65325C49.2516 7.65874 49.2543 7.66149 49.2598 7.66149C49.2708 7.66149 49.2763 7.65874 49.2763 7.65325C49.6001 7.25808 49.9651 7.0605 50.3712 7.0605C50.6182 7.0605 50.8158 7.10715 50.964 7.20046C51.1176 7.29376 51.2521 7.45841 51.3674 7.69442C51.3674 7.69991 51.3728 7.70265 51.3838 7.70265C51.3893 7.70265 51.3948 7.69991 51.4003 7.69442C51.7461 7.27181 52.1357 7.0605 52.5693 7.0605C53.0249 7.0605 53.3514 7.18399 53.549 7.43097C53.7521 7.67795 53.8536 8.10331 53.8536 8.70704V10.9546C53.8536 11.0808 53.807 11.1906 53.7137 11.2839C53.6259 11.3772 53.5188 11.4238 53.3926 11.4238H53.2526C53.1264 11.4238 53.0166 11.3772 52.9233 11.2839C52.83 11.1906 52.7834 11.0808 52.7834 10.9546V8.87169C52.7834 8.47103 52.745 8.20759 52.6681 8.08135C52.5913 7.95512 52.4431 7.892 52.2236 7.892C52.0809 7.892 51.9382 7.95786 51.7955 8.08959C51.6528 8.22131 51.5814 8.35303 51.5814 8.48476V10.9546C51.5814 11.0808 51.5348 11.1906 51.4415 11.2839C51.3481 11.3772 51.2384 11.4238 51.1121 11.4238H50.9722C50.846 11.4238 50.7362 11.3772 50.6429 11.2839C50.5551 11.1906 50.5112 11.0808 50.5112 10.9546V8.87169C50.5112 8.47652 50.47 8.21582 50.3877 8.08959C50.3108 7.95786 50.1626 7.892 49.9431 7.892C49.8004 7.892 49.6577 7.95786 49.515 8.08959C49.3723 8.22131 49.3009 8.35303 49.3009 8.48476V10.9546C49.3009 11.0808 49.2543 11.1906 49.161 11.2839C49.0677 11.3772 48.9579 11.4238 48.8317 11.4238H48.667ZM55.6676 11.4238C55.5414 11.4238 55.4316 11.3772 55.3383 11.2839C55.245 11.1906 55.1983 11.0808 55.1983 10.9546V5.71857C55.1983 5.59234 55.245 5.48257 55.3383 5.38926C55.4316 5.29596 55.5414 5.24931 55.6676 5.24931H55.8816C56.0079 5.24931 56.1176 5.29596 56.2109 5.38926C56.3042 5.48257 56.3509 5.59234 56.3509 5.71857V10.9546C56.3509 11.0808 56.3042 11.1906 56.2109 11.2839C56.1176 11.3772 56.0079 11.4238 55.8816 11.4238H55.6676ZM58.2885 11.4238C58.1623 11.4238 58.0525 11.3772 57.9592 11.2839C57.8659 11.1906 57.8193 11.0808 57.8193 10.9546V7.61209C57.8193 7.48586 57.8659 7.37609 57.9592 7.28278C58.0525 7.18948 58.1623 7.14283 58.2885 7.14283H58.5026C58.6288 7.14283 58.7386 7.18948 58.8319 7.28278C58.9252 7.37609 58.9719 7.48586 58.9719 7.61209V10.9546C58.9719 11.0808 58.9252 11.1906 58.8319 11.2839C58.7386 11.3772 58.6288 11.4238 58.5026 11.4238H58.2885ZM58.2885 6.23723C58.1623 6.23723 58.0525 6.19058 57.9592 6.09727C57.8659 6.00397 57.8193 5.8942 57.8193 5.76797V5.71857C57.8193 5.59234 57.8659 5.48257 57.9592 5.38926C58.0525 5.29596 58.1623 5.24931 58.2885 5.24931H58.5026C58.6288 5.24931 58.7386 5.29596 58.8319 5.38926C58.9252 5.48257 58.9719 5.59234 58.9719 5.71857V5.76797C58.9719 5.8942 58.9252 6.00397 58.8319 6.09727C58.7386 6.19058 58.6288 6.23723 58.5026 6.23723H58.2885ZM60.5434 8.10605C60.4336 8.10605 60.3403 8.06763 60.2635 7.99079C60.1867 7.90847 60.1482 7.81242 60.1482 7.70265C60.1482 7.59288 60.1867 7.49958 60.2635 7.42274C60.3403 7.3459 60.4336 7.30748 60.5434 7.30748H60.9386C60.988 7.30748 61.0127 7.28278 61.0127 7.23339V6.21253C61.0127 6.0863 61.0566 5.97653 61.1444 5.88322C61.2377 5.78992 61.3475 5.74327 61.4737 5.74327H61.6384C61.7646 5.74327 61.8744 5.78992 61.9677 5.88322C62.061 5.97653 62.1076 6.0863 62.1076 6.21253V7.23339C62.1076 7.28278 62.1323 7.30748 62.1817 7.30748H63.1202C63.23 7.30748 63.3233 7.3459 63.4001 7.42274C63.4825 7.49958 63.5236 7.59288 63.5236 7.70265C63.5236 7.81242 63.4825 7.90847 63.4001 7.99079C63.3233 8.06763 63.23 8.10605 63.1202 8.10605H62.1817C62.1323 8.10605 62.1076 8.12801 62.1076 8.17191V9.83492C62.1076 10.1917 62.146 10.4222 62.2229 10.5265C62.2997 10.6307 62.4589 10.6829 62.7004 10.6829C62.8321 10.6829 62.9309 10.6774 62.9967 10.6664C63.1065 10.6554 63.2026 10.6801 63.2849 10.7405C63.3672 10.8009 63.4084 10.8832 63.4084 10.9875C63.4084 11.1082 63.3672 11.218 63.2849 11.3168C63.2081 11.4101 63.112 11.4622 62.9967 11.4732C62.7553 11.4952 62.5741 11.5062 62.4534 11.5062C61.921 11.5062 61.5478 11.3936 61.3337 11.1686C61.1197 10.9381 61.0127 10.5292 61.0127 9.94194V8.17191C61.0127 8.12801 60.988 8.10605 60.9386 8.10605H60.5434Z" fill="#F53C31"/>
<defs>
<clipPath id="clip0_1343_3233">
<rect width="11.9748" height="11.9748" fill="white" transform="translate(6.00977 2.43652)"/>
</clipPath>
</defs>
</svg>
