<svg width="65" height="16" viewBox="0 0 65 16" fill="none" xmlns="http://www.w3.org/2000/svg">
<rect x="0.600586" y="0.845703" width="63.6163" height="14.9685" rx="7.48427" fill="#19271F"/>
<g clip-path="url(#clip0_1343_3245)">
<path d="M10.4253 12.7863C10.1896 13.0831 9.71177 12.9204 9.70609 12.5415L9.62305 6.99902H13.3498C14.0248 6.99902 14.4013 7.77866 13.9816 8.30732L10.4253 12.7863Z" fill="url(#paint0_linear_1343_3245)"/>
<path d="M10.4253 12.7863C10.1896 13.0831 9.71177 12.9204 9.70609 12.5415L9.62305 6.99902H13.3498C14.0248 6.99902 14.4013 7.77866 13.9816 8.30732L10.4253 12.7863Z" fill="url(#paint1_linear_1343_3245)" fill-opacity="0.2"/>
<path d="M8.90902 3.8701C9.14467 3.57327 9.62253 3.73587 9.62821 4.11484L9.66459 9.65731H5.98447C5.30945 9.65731 4.93294 8.87767 5.3527 8.34902L8.90902 3.8701Z" fill="#3ECF8E"/>
</g>
<path d="M24.2425 8.79441C23.5839 8.57487 23.1064 8.30868 22.81 7.99584C22.5191 7.68299 22.3737 7.30429 22.3737 6.85972C22.3737 6.36027 22.5411 5.9651 22.8759 5.67422C23.2107 5.38333 23.6799 5.23788 24.2837 5.23788C24.7941 5.23788 25.2386 5.29551 25.6173 5.41077C25.7491 5.44919 25.8534 5.52877 25.9302 5.64952C26.0125 5.76478 26.0537 5.89375 26.0537 6.03645V6.11055C26.0537 6.21483 26.007 6.29716 25.9137 6.35753C25.8204 6.41241 25.7244 6.42065 25.6256 6.38223C25.2139 6.22306 24.7941 6.14348 24.366 6.14348C24.0916 6.14348 23.883 6.2066 23.7403 6.33283C23.5976 6.45907 23.5262 6.6347 23.5262 6.85972C23.5262 7.25489 23.7842 7.53755 24.3001 7.70769C25.0411 7.9437 25.5542 8.21263 25.8396 8.5145C26.1305 8.81636 26.276 9.20604 26.276 9.68354C26.276 10.8361 25.5652 11.4124 24.1437 11.4124C23.6991 11.4124 23.2957 11.3438 22.9335 11.2066C22.8018 11.1572 22.6975 11.0721 22.6206 10.9514C22.5493 10.8306 22.5136 10.6962 22.5136 10.548V10.4492C22.5136 10.3449 22.5575 10.2708 22.6453 10.2269C22.7332 10.1775 22.8237 10.1748 22.917 10.2187C23.2793 10.3998 23.6607 10.4903 24.0614 10.4903C24.7584 10.4903 25.1069 10.2269 25.1069 9.7C25.1069 9.48595 25.0411 9.31032 24.9093 9.17311C24.7776 9.03041 24.5553 8.90418 24.2425 8.79441ZM28.5504 11.4124C28.0674 11.4124 27.7161 11.2807 27.4966 11.0172C27.2771 10.7483 27.1673 10.2955 27.1673 9.65884V7.51834C27.1673 7.39211 27.2139 7.28234 27.3072 7.18903C27.4005 7.09573 27.5103 7.04908 27.6365 7.04908H27.7683C27.8945 7.04908 28.0043 7.09573 28.0976 7.18903C28.1909 7.28234 28.2375 7.39211 28.2375 7.51834V9.54358C28.2375 9.92778 28.2897 10.194 28.394 10.3422C28.4982 10.4903 28.6739 10.5644 28.9208 10.5644C29.1459 10.5644 29.3544 10.4684 29.5465 10.2763C29.7441 10.0842 29.8429 9.87838 29.8429 9.65884V7.51834C29.8429 7.39211 29.8896 7.28234 29.9829 7.18903C30.0762 7.09573 30.1859 7.04908 30.3122 7.04908H30.4768C30.6031 7.04908 30.7101 7.09573 30.7979 7.18903C30.8912 7.28234 30.9379 7.39211 30.9379 7.51834V10.8608C30.9379 10.987 30.8912 11.0968 30.7979 11.1901C30.7101 11.2834 30.6031 11.3301 30.4768 11.3301H30.3698C30.2381 11.3301 30.1256 11.2862 30.0323 11.1984C29.9444 11.1051 29.8978 10.9925 29.8923 10.8608L29.8841 10.8032C29.8841 10.7977 29.8813 10.795 29.8758 10.795C29.8704 10.795 29.8649 10.7977 29.8594 10.8032C29.4862 11.2093 29.0498 11.4124 28.5504 11.4124ZM33.1592 8.62975V9.7494C33.1592 9.96894 33.2525 10.1638 33.4391 10.3339C33.6312 10.5041 33.8535 10.5891 34.106 10.5891C34.3969 10.5891 34.6274 10.4711 34.7975 10.2351C34.9677 9.99913 35.0527 9.65061 35.0527 9.18958C35.0527 8.25654 34.7371 7.79002 34.106 7.79002C33.8535 7.79002 33.6312 7.87509 33.4391 8.04523C33.2525 8.21537 33.1592 8.41022 33.1592 8.62975ZM32.5418 13.1413C32.4155 13.1413 32.3058 13.0946 32.2124 13.0013C32.1191 12.908 32.0725 12.7982 32.0725 12.672V7.51834C32.0725 7.39211 32.1191 7.28234 32.2124 7.18903C32.3058 7.09573 32.4155 7.04908 32.5418 7.04908H32.6405C32.7723 7.04908 32.8848 7.09573 32.9781 7.18903C33.0714 7.27685 33.1208 7.38662 33.1263 7.51834V7.57597C33.1263 7.58146 33.129 7.5842 33.1345 7.5842C33.14 7.5842 33.1455 7.58146 33.151 7.57597C33.3486 7.35643 33.5461 7.20001 33.7437 7.10671C33.9413 7.0134 34.1718 6.96675 34.4353 6.96675C34.9512 6.96675 35.3628 7.16159 35.6702 7.55127C35.9775 7.93546 36.1312 8.48157 36.1312 9.18958C36.1312 9.87564 35.9693 10.419 35.6455 10.8197C35.3271 11.2148 34.9237 11.4124 34.4353 11.4124C33.9578 11.4124 33.5434 11.2395 33.1921 10.8937C33.1866 10.8883 33.1812 10.8855 33.1757 10.8855C33.1702 10.8855 33.1674 10.8883 33.1674 10.8937V12.672C33.1674 12.7982 33.1208 12.908 33.0275 13.0013C32.9397 13.0946 32.8326 13.1413 32.7064 13.1413H32.5418ZM39.0339 9.2719C38.2491 9.2719 37.8567 9.5134 37.8567 9.99638C37.8567 10.172 37.9061 10.3147 38.0049 10.4245C38.1091 10.5343 38.2409 10.5891 38.4 10.5891C38.7129 10.5891 38.9653 10.4931 39.1574 10.301C39.3495 10.1034 39.4456 9.83447 39.4456 9.49419V9.346C39.4456 9.2966 39.4209 9.2719 39.3715 9.2719H39.0339ZM38.1036 11.4124C37.7304 11.4124 37.4203 11.2917 37.1734 11.0502C36.9319 10.8032 36.8111 10.4849 36.8111 10.0952C36.8111 9.61768 36.9922 9.24721 37.3545 8.98376C37.7222 8.72031 38.282 8.58859 39.0339 8.58859H39.3715C39.4209 8.58859 39.4456 8.56389 39.4456 8.5145V8.44863C39.4456 8.19617 39.3852 8.02053 39.2645 7.92174C39.1437 7.81746 38.9297 7.76532 38.6223 7.76532C38.304 7.76532 37.9143 7.82295 37.4533 7.93821C37.3545 7.96565 37.2639 7.94918 37.1816 7.88881C37.0993 7.82295 37.0581 7.73788 37.0581 7.6336C37.0581 7.50736 37.0965 7.39485 37.1734 7.29606C37.2502 7.19178 37.349 7.12866 37.4697 7.10671C37.8869 7.0134 38.2793 6.96675 38.647 6.96675C39.3495 6.96675 39.8407 7.09298 40.1207 7.34545C40.4006 7.59792 40.5405 8.03974 40.5405 8.67092V10.8608C40.5405 10.987 40.4939 11.0968 40.4006 11.1901C40.3128 11.2834 40.2057 11.3301 40.0795 11.3301H39.9889C39.8572 11.3301 39.7447 11.2862 39.6514 11.1984C39.5581 11.1051 39.5087 10.9925 39.5032 10.8608V10.7456C39.5032 10.7401 39.5005 10.7373 39.495 10.7373C39.484 10.7373 39.4785 10.7401 39.4785 10.7456C39.1437 11.1901 38.6854 11.4124 38.1036 11.4124ZM42.7596 8.62975V9.7494C42.7596 9.96894 42.8529 10.1638 43.0395 10.3339C43.2261 10.5041 43.4484 10.5891 43.7064 10.5891C43.9973 10.5891 44.2278 10.4739 44.3979 10.2434C44.5681 10.0074 44.6531 9.6561 44.6531 9.18958C44.6531 8.25654 44.3376 7.79002 43.7064 7.79002C43.4484 7.79002 43.2261 7.87509 43.0395 8.04523C42.8529 8.21537 42.7596 8.41022 42.7596 8.62975ZM42.1422 11.3301C42.0159 11.3301 41.9062 11.2834 41.8129 11.1901C41.7196 11.0968 41.6729 10.987 41.6729 10.8608V5.62482C41.6729 5.49859 41.7196 5.38882 41.8129 5.29551C41.9062 5.20221 42.0159 5.15556 42.1422 5.15556H42.3068C42.4331 5.15556 42.5428 5.20221 42.6361 5.29551C42.7294 5.38882 42.7761 5.49859 42.7761 5.62482V7.47718C42.7761 7.48266 42.7788 7.48541 42.7843 7.48541C42.7898 7.48541 42.7953 7.48266 42.8008 7.47718C43.1575 7.13689 43.5692 6.96675 44.0357 6.96675C44.5516 6.96675 44.9632 7.16159 45.2706 7.55127C45.5834 7.93546 45.7399 8.48157 45.7399 9.18958C45.7399 9.87564 45.5779 10.419 45.2541 10.8197C44.9303 11.2148 44.5242 11.4124 44.0357 11.4124C43.5362 11.4124 43.1054 11.2093 42.7432 10.8032C42.7377 10.7977 42.7322 10.795 42.7267 10.795C42.7212 10.795 42.7185 10.7977 42.7185 10.8032L42.7102 10.8608C42.7047 10.9925 42.6553 11.1051 42.562 11.1984C42.4742 11.2862 42.3645 11.3301 42.2327 11.3301H42.1422ZM48.6495 9.2719C47.8646 9.2719 47.4722 9.5134 47.4722 9.99638C47.4722 10.172 47.5216 10.3147 47.6204 10.4245C47.7247 10.5343 47.8564 10.5891 48.0156 10.5891C48.3284 10.5891 48.5809 10.4931 48.773 10.301C48.9651 10.1034 49.0611 9.83447 49.0611 9.49419V9.346C49.0611 9.2966 49.0364 9.2719 48.987 9.2719H48.6495ZM47.7192 11.4124C47.346 11.4124 47.0359 11.2917 46.7889 11.0502C46.5474 10.8032 46.4266 10.4849 46.4266 10.0952C46.4266 9.61768 46.6078 9.24721 46.97 8.98376C47.3377 8.72031 47.8976 8.58859 48.6495 8.58859H48.987C49.0364 8.58859 49.0611 8.56389 49.0611 8.5145V8.44863C49.0611 8.19617 49.0007 8.02053 48.88 7.92174C48.7592 7.81746 48.5452 7.76532 48.2378 7.76532C47.9195 7.76532 47.5298 7.82295 47.0688 7.93821C46.97 7.96565 46.8794 7.94918 46.7971 7.88881C46.7148 7.82295 46.6736 7.73788 46.6736 7.6336C46.6736 7.50736 46.712 7.39485 46.7889 7.29606C46.8657 7.19178 46.9645 7.12866 47.0853 7.10671C47.5024 7.0134 47.8948 6.96675 48.2625 6.96675C48.9651 6.96675 49.4563 7.09298 49.7362 7.34545C50.0161 7.59792 50.1561 8.03974 50.1561 8.67092V10.8608C50.1561 10.987 50.1094 11.0968 50.0161 11.1901C49.9283 11.2834 49.8213 11.3301 49.695 11.3301H49.6045C49.4727 11.3301 49.3602 11.2862 49.2669 11.1984C49.1736 11.1051 49.1242 10.9925 49.1187 10.8608V10.7456C49.1187 10.7401 49.116 10.7373 49.1105 10.7373C49.0995 10.7373 49.094 10.7401 49.094 10.7456C48.7592 11.1901 48.301 11.4124 47.7192 11.4124ZM52.6405 9.60121C52.0642 9.47498 51.6526 9.30209 51.4056 9.08255C51.1641 8.86301 51.0434 8.57761 51.0434 8.22635C51.0434 7.83118 51.1888 7.52383 51.4797 7.30429C51.7761 7.07926 52.2124 6.96675 52.7887 6.96675C53.151 6.96675 53.5105 6.99968 53.8672 7.06554C53.9879 7.0875 54.084 7.14787 54.1553 7.24666C54.2322 7.33996 54.2706 7.44973 54.2706 7.57597C54.2706 7.68025 54.2294 7.76532 54.1471 7.83118C54.0648 7.89156 53.9715 7.90802 53.8672 7.88058C53.5598 7.80374 53.236 7.76532 52.8957 7.76532C52.4018 7.76532 52.1548 7.90253 52.1548 8.17696C52.1548 8.30868 52.2015 8.41845 52.2948 8.50626C52.3881 8.59408 52.5472 8.66268 52.7723 8.71208C53.4034 8.83832 53.8343 9.00846 54.0648 9.22251C54.3008 9.43656 54.4188 9.7494 54.4188 10.161C54.4188 10.5562 54.2706 10.8636 53.9742 11.0831C53.6778 11.3026 53.247 11.4124 52.6817 11.4124C52.314 11.4124 51.938 11.3685 51.5538 11.2807C51.4331 11.2532 51.3343 11.1901 51.2574 11.0913C51.1806 10.987 51.1422 10.869 51.1422 10.7373C51.1422 10.633 51.1833 10.5535 51.2657 10.4986C51.3535 10.4437 51.4468 10.43 51.5456 10.4574C51.9023 10.5562 52.2399 10.6056 52.5582 10.6056C53.0577 10.6056 53.3074 10.4574 53.3074 10.161C53.3074 10.0183 53.258 9.90582 53.1592 9.82349C53.0659 9.74117 52.893 9.66707 52.6405 9.60121ZM57.1733 7.73239C56.8934 7.73239 56.6766 7.81197 56.5229 7.97114C56.3747 8.12482 56.2814 8.37454 56.243 8.72031C56.243 8.76422 56.2649 8.78618 56.3088 8.78618H57.9224C57.9664 8.78618 57.9883 8.76422 57.9883 8.72031C57.9664 8.0617 57.6947 7.73239 57.1733 7.73239ZM57.3791 11.4124C56.6601 11.4124 56.1058 11.2258 55.7161 10.8526C55.3319 10.4739 55.1398 9.91954 55.1398 9.18958C55.1398 8.4651 55.3127 7.91351 55.6585 7.53481C56.0042 7.1561 56.5037 6.96675 57.1568 6.96675C58.3752 6.96675 59.0009 7.6583 59.0339 9.04139C59.0394 9.17311 58.9927 9.28288 58.8939 9.3707C58.7951 9.45851 58.6799 9.50242 58.5481 9.50242H56.3006C56.2512 9.50242 56.232 9.52712 56.243 9.57651C56.2814 9.94424 56.4021 10.2132 56.6052 10.3833C56.8138 10.548 57.1156 10.6303 57.5108 10.6303C57.7578 10.6303 58.0322 10.5891 58.3341 10.5068C58.4329 10.4794 58.5234 10.4958 58.6058 10.5562C58.6936 10.6166 58.7375 10.6989 58.7375 10.8032C58.7375 10.9294 58.6991 11.0419 58.6222 11.1407C58.5509 11.234 58.4548 11.2917 58.3341 11.3136C58.0267 11.3795 57.7084 11.4124 57.3791 11.4124Z" fill="#21A157"/>
<defs>
<linearGradient id="paint0_linear_1343_3245" x1="104.231" y1="129.89" x2="317.928" y2="219.514" gradientUnits="userSpaceOnUse">
<stop stop-color="#249361"/>
<stop offset="1" stop-color="#3ECF8E"/>
</linearGradient>
<linearGradient id="paint1_linear_1343_3245" x1="18.6521" y1="-71.1663" x2="155.839" y2="187.069" gradientUnits="userSpaceOnUse">
<stop/>
<stop offset="1" stop-opacity="0"/>
</linearGradient>
<clipPath id="clip0_1343_3245">
<rect width="8.98112" height="9.2267" fill="white" transform="translate(5.17627 3.7168)"/>
</clipPath>
</defs>
</svg>
